<?xml version="1.0" encoding="utf-8"?>
<!-- Generator: Adobe Illustrator 22.0.1, SVG Export Plug-In . SVG Version: 6.00 Build 0)  -->
<svg version="1.1" xmlns="http://www.w3.org/2000/svg" xmlns:xlink="http://www.w3.org/1999/xlink" x="0px" y="0px"
	 viewBox="0 0 131.3 83.7" style="enable-background:new 0 0 131.3 83.7;" xml:space="preserve">
<style type="text/css">
	.st0{fill:#FF0000;}
	.st1{fill:#FFFF00;}
	.st2{fill:#00C900;}
	.st3{fill:#FF7D00;}
	.st4{fill:#050001;}
	.st5{fill:#000001;}
	.st6{fill:none;stroke:#000000;stroke-width:1.5;stroke-miterlimit:10;}
	.st7{fill:#FFFFFF;}
	.st8{fill:#00FF00;}
	.st9{fill:#EC1C24;}
	.st10{fill:none;stroke:#621C24;stroke-width:0.8996;stroke-miterlimit:10;}
	.st11{fill:none;stroke:#FFFFFF;stroke-width:0.6973;stroke-miterlimit:10;}
	.st12{fill:#0049FF;}
	.st13{fill:#FFB700;}
	.st14{clip-path:url(#SVGID_2_);}
	.st15{fill:url(#SVGID_3_);}
	.st16{clip-path:url(#SVGID_5_);}
	.st17{fill:none;}
	.st18{fill:#00ADEE;}
	.st19{fill:url(#SVGID_6_);}
</style>
<g id="Layer_2">
</g>
<g id="Layer_3">
</g>
<g id="Layer_4">
	<g>
		<rect class="st7" width="131.3" height="83.7"/>
		<rect class="st12" width="131.3" height="17.6"/>
		<rect y="66.1" class="st13" width="131.3" height="17.6"/>
		<g>
			<path class="st12" d="M16.9,23.8h14.6l-1.7,28.4H30l10.5-28.4h9.3L33.6,60.6h-11l-0.2-32.1L16.9,23.8z"/>
			<path class="st12" d="M54.3,23.8H63l-7.8,36.8h-8.7L54.3,23.8z"/>
			<path class="st12" d="M69.6,49.4l-0.3,1.3c-0.6,2.8-0.3,4.9,2.7,4.9c3,0,4.4-2.3,4.8-4.4c1.7-7.9-15.1-3.5-12.1-17.3
				c1.2-5.9,5.4-10.8,14.4-10.8c8.7,0,10.8,4.4,9.6,10L88.5,34h-8.3c0.4-1.8,0.4-3,0.1-3.9c-0.3-0.9-1.1-1.3-2.4-1.3
				c-2.2,0-3.7,1.3-4.3,4c-1.6,7.7,15,3.8,12.2,16.8c-1.8,8.3-7.1,11.7-15.1,11.7c-6.3,0-11.7-1.9-10.1-9.6l0.5-2.4H69.6z"/>
			<path class="st12" d="M101.3,23.8h10.8l1.3,36.8h-9l0.2-7h-8.8l-2.8,7h-9L101.3,23.8z M105.1,30.5H105l-6.5,16.4h6.3L105.1,30.5z
				"/>
		</g>
	</g>
</g>
</svg>
