<?xml version="1.0" encoding="utf-8"?>
<!-- Generator: Adobe Illustrator 22.0.1, SVG Export Plug-In . SVG Version: 6.00 Build 0)  -->
<svg version="1.1" xmlns="http://www.w3.org/2000/svg" xmlns:xlink="http://www.w3.org/1999/xlink" x="0px" y="0px"
	 viewBox="0 0 131.3 83.7" style="enable-background:new 0 0 131.3 83.7;" xml:space="preserve">
<style type="text/css">
	.st0{fill:#FF0000;}
	.st1{fill:#FFFF00;}
	.st2{fill:#00C900;}
	.st3{fill:#FF7D00;}
	.st4{fill:#050001;}
	.st5{fill:#000001;}
	.st6{fill:none;stroke:#000000;stroke-width:1.5;stroke-miterlimit:10;}
	.st7{fill:#FFFFFF;}
	.st8{fill:#00FF00;}
	.st9{fill:#EC1C24;}
	.st10{fill:none;stroke:#621C24;stroke-width:0.8996;stroke-miterlimit:10;}
	.st11{fill:none;stroke:#FFFFFF;stroke-width:0.6973;stroke-miterlimit:10;}
	.st12{fill:#0049FF;}
	.st13{fill:#FFB700;}
	.st14{clip-path:url(#SVGID_2_);}
	.st15{fill:url(#SVGID_3_);}
	.st16{clip-path:url(#SVGID_5_);}
	.st17{fill:none;}
	.st18{fill:#00ADEE;}
	.st19{fill:url(#SVGID_6_);}
</style>
<g id="Layer_2">
</g>
<g id="Layer_3">
</g>
<g id="Layer_4">
	<g>
		<rect class="st7" width="131.3" height="83.7"/>
		<path class="st13" d="M88.9,10.5c-9.1,0-17.3,3.8-23.2,9.8c5.7,5.9,9.2,13.9,9.2,22.7c0,8.8-3.5,16.8-9.2,22.7
			c5.9,6,14.1,9.8,23.2,9.8c17.9,0,32.5-14.6,32.5-32.5C121.4,25,106.8,10.5,88.9,10.5z"/>
		<path class="st0" d="M65.6,20.3c-5.9-6-14.1-9.8-23.3-9.8C24.4,10.5,9.9,25,9.9,43c0,17.9,14.6,32.5,32.5,32.5
			c9.1,0,17.3-3.8,23.3-9.8c-5.7-5.9-9.3-13.9-9.3-22.7C56.4,34.1,59.9,26.1,65.6,20.3z"/>
		<g>
			<defs>
				<ellipse id="SVGID_1_" cx="65.6" cy="43" rx="9.2" ry="22.7"/>
			</defs>
			<use xlink:href="#SVGID_1_"  style="overflow:visible;fill:#FF0000;"/>
			<clipPath id="SVGID_2_">
				<use xlink:href="#SVGID_1_"  style="overflow:visible;"/>
			</clipPath>
			<g class="st14">
				<rect x="53.4" y="20.2" class="st13" width="24.3" height="1.8"/>
				<rect x="53.4" y="24.2" class="st13" width="24.3" height="1.8"/>
				<rect x="53.4" y="28.2" class="st13" width="24.3" height="1.8"/>
				<rect x="53.4" y="32.1" class="st13" width="24.3" height="1.8"/>
				<rect x="53.4" y="36.1" class="st13" width="24.3" height="1.8"/>
				<rect x="53.4" y="40.1" class="st13" width="24.3" height="1.8"/>
				<rect x="53.4" y="44.1" class="st13" width="24.3" height="1.8"/>
				<rect x="53.4" y="48" class="st13" width="24.3" height="1.8"/>
				<rect x="53.4" y="52" class="st13" width="24.3" height="1.8"/>
				<rect x="53.4" y="56" class="st13" width="24.3" height="1.8"/>
				<rect x="53.4" y="60" class="st13" width="24.3" height="1.8"/>
				<rect x="53.4" y="64" class="st13" width="24.3" height="1.8"/>
			</g>
		</g>
		<g>
			<path class="st7" d="M19.6,34.4h5l-0.2,9.5h0l3.7-9.5H33l-3.1,14.4h-3.2l2.4-11.2h0l-4.6,11.2h-2.6l0.1-11.2h0l-2.4,11.2h-3
				L19.6,34.4z"/>
			<path class="st7" d="M33.5,41.2c0.3-1.5,1-2.4,1.9-2.9c0.9-0.5,1.8-0.7,3.2-0.7c2.7,0,3.7,0.9,3.2,3.2l-1.2,5.6
				c-0.2,0.8-0.4,1.9-0.1,2.4h-3.2c0-0.4,0-0.8,0.1-1.3h0c-0.7,1-1.8,1.5-2.9,1.5c-1.8,0-2.7-1-2.2-3.3c0.3-1.3,1-2.3,1.9-2.8
				c0.9-0.4,2.2-0.6,3.1-0.9c1-0.3,1.3-0.4,1.4-1.3c0.1-0.7-0.1-1.1-0.8-1.1c-0.9,0-1.3,0.5-1.5,1.5H33.5z M36.1,46.8
				c0.7,0,1.4-0.4,1.6-1.5c0.2-0.9,0.3-1.5,0.4-1.9c-1.1,0.5-1.6,0.6-2,0.8c-0.4,0.3-0.6,0.6-0.8,1.2C35.3,46.3,35.5,46.8,36.1,46.8
				z"/>
			<path class="st7" d="M45.3,45.3c-0.1,0.5-0.1,0.9,0,1.2c0.1,0.3,0.4,0.5,0.9,0.5c0.8,0,1.3-0.5,1.4-1.1c0.1-0.5,0-1-1-1.3
				c-2.5-0.9-3.7-1.4-3.2-3.7c0.5-2.2,2.2-3.3,4.9-3.3c3.1,0,3.6,1.5,3.3,3.1L51.5,41h-2.9l0-0.2c0.2-1-0.1-1.2-0.8-1.2
				c-0.9,0-1.2,0.4-1.3,1c-0.4,1.9,5.1,0.6,4.2,4.9c-0.5,2.2-2.2,3.6-4.9,3.6c-2.9,0-3.9-1.1-3.5-3.3l0.1-0.5H45.3z"/>
			<path class="st7" d="M53.7,40.1h-1.4l0.5-2.3h1.4l0.7-3.2h3.3l-0.7,3.2H59l-0.5,2.3H57l-1.2,5.5c-0.2,0.8,0.1,1,0.8,1
				c0.1,0,0.3,0,0.5,0l-0.5,2.2c-0.6,0.1-1.3,0.1-1.9,0.1c-2.3,0-2.8-0.4-2.3-3L53.7,40.1z"/>
			<path class="st7" d="M61.8,43.9l-0.1,0.7c-0.4,1.7-0.3,2.5,0.7,2.5c0.8,0,1.2-0.6,1.6-2h3c-0.6,2.7-2.4,4-5.1,4
				c-4.1,0-3.8-2.9-3.1-6.1c0.7-3.1,2-5.4,5.6-5.4c4.1,0,3.8,2.6,3,6.3H61.8z M64.5,42c0.3-1.5,0.3-2.4-0.6-2.4
				c-1.1,0-1.4,0.9-1.8,2.4H64.5z"/>
			<path class="st7" d="M69.9,37.9H73l-0.3,1.5h0c0.6-1,1.6-1.8,3-1.8c0.2,0,0.3,0,0.5,0l-0.7,3.1c-0.3-0.1-0.6-0.1-0.9-0.1
				c-1.3,0-2.3,0.5-2.6,2l-1.3,6.2h-3.3L69.9,37.9z"/>
			<path class="st7" d="M83.4,39.4c0.4-2.1,0.4-3-0.7-3c-1.4,0-1.8,1.3-2.6,5.1c-0.9,4.3-1,5.4,0.4,5.4c1.3,0,1.7-1.4,2.2-3.7H86
				l-0.1,0.5c-0.7,3.1-2,5.4-6.2,5.4c-4.3,0-4-3.3-3.1-7.6c0.8-3.7,1.8-7.4,6.6-7.4c3,0,4.4,1.3,3.6,4.7l-0.1,0.6H83.4z"/>
			<path class="st7" d="M87.6,41.2c0.3-1.5,1-2.4,1.9-2.9c0.9-0.5,1.8-0.7,3.2-0.7c2.7,0,3.7,0.9,3.2,3.2l-1.2,5.6
				c-0.2,0.8-0.4,1.9-0.1,2.4h-3.2c0-0.4,0-0.8,0.1-1.3h0c-0.7,1-1.8,1.5-2.9,1.5c-1.8,0-2.7-1-2.2-3.3c0.3-1.3,1-2.3,1.9-2.8
				c0.9-0.4,2.2-0.6,3.1-0.9c1-0.3,1.3-0.4,1.4-1.3c0.1-0.7-0.1-1.1-0.8-1.1c-0.9,0-1.3,0.5-1.5,1.5H87.6z M90.2,46.8
				c0.7,0,1.4-0.4,1.6-1.5c0.2-0.9,0.3-1.5,0.4-1.9c-1.1,0.5-1.6,0.6-2,0.8c-0.4,0.3-0.6,0.6-0.8,1.2C89.4,46.3,89.6,46.8,90.2,46.8
				z"/>
			<path class="st7" d="M98.5,37.9h3.2l-0.3,1.5h0c0.6-1,1.6-1.8,3-1.8c0.2,0,0.3,0,0.5,0l-0.7,3.1c-0.3-0.1-0.6-0.1-0.9-0.1
				c-1.3,0-2.3,0.5-2.6,2l-1.3,6.2h-3.3L98.5,37.9z"/>
			<path class="st7" d="M109.2,47.5L109.2,47.5c-0.4,0.7-1.3,1.6-2.8,1.6c-2.2,0-3-1.6-2.2-5.7c0.7-3.4,1.7-5.8,4.4-5.8
				c0.9,0,1.8,0.3,2.1,1.5h0l1-4.7h3.3l-3.1,14.4h-3.2L109.2,47.5z M109.6,40c-1.2,0-1.5,1.3-2,3.3c-0.4,1.8-0.7,3.4,0.5,3.4
				c1,0,1.4-1.2,1.9-3.3C110.4,41.5,110.7,40,109.6,40z"/>
		</g>
		<circle class="st7" cx="115.6" cy="48.4" r="1.2"/>
	</g>
</g>
</svg>
