<?xml version="1.0" encoding="utf-8"?>
<!-- Generator: Adobe Illustrator 22.0.1, SVG Export Plug-In . SVG Version: 6.00 Build 0)  -->
<svg version="1.1" xmlns="http://www.w3.org/2000/svg" xmlns:xlink="http://www.w3.org/1999/xlink" x="0px" y="0px"
	 viewBox="0 0 131.3 83.7" style="enable-background:new 0 0 131.3 83.7;" xml:space="preserve">
<style type="text/css">
	.st0{fill:#FF0000;}
	.st1{fill:#FFFF00;}
	.st2{fill:#00C900;}
	.st3{fill:#FF7D00;}
	.st4{fill:#050001;}
	.st5{fill:#000001;}
	.st6{fill:none;stroke:#000000;stroke-width:1.5;stroke-miterlimit:10;}
	.st7{fill:#FFFFFF;}
	.st8{fill:#00FF00;}
	.st9{fill:#EC1C24;}
	.st10{fill:none;stroke:#621C24;stroke-width:0.8996;stroke-miterlimit:10;}
	.st11{fill:none;stroke:#FFFFFF;stroke-width:0.6973;stroke-miterlimit:10;}
	.st12{fill:#0049FF;}
	.st13{fill:#FFB700;}
	.st14{clip-path:url(#SVGID_2_);}
	.st15{fill:url(#SVGID_3_);}
	.st16{clip-path:url(#SVGID_5_);}
	.st17{fill:none;}
	.st18{fill:#00ADEE;}
	.st19{fill:url(#SVGID_6_);}
</style>
<g id="Layer_2">
</g>
<g id="Layer_3">
</g>
<g id="Layer_4">
	<g>
		<rect class="st7" width="131.3" height="83.7"/>
		<g>
			<g>
				<path d="M12.9,24.4h6.6c4.4,0,5.8,2.3,4.4,8.9c-1.5,6.9-3,10.1-8.9,10.1H8.9L12.9,24.4z M14.1,40h1.2c2.1,0,3-0.8,4.2-6.5
					c1-4.6,0.9-5.9-1.5-5.9h-1.2L14.1,40z"/>
				<path d="M28.2,24.4h4.5l-4,18.9h-4.5L28.2,24.4z"/>
				<path d="M36.4,37.5l-0.1,0.7c-0.3,1.4-0.1,2.5,1.4,2.5c1.6,0,2.3-1.2,2.5-2.3c0.9-4.1-7.8-1.8-6.3-8.9c0.6-3,2.8-5.6,7.4-5.6
					c4.5,0,5.6,2.3,4.9,5.2l-0.1,0.5h-4.3c0.2-0.9,0.2-1.6,0.1-2c-0.2-0.5-0.5-0.7-1.2-0.7c-1.1,0-1.9,0.7-2.2,2
					c-0.8,4,7.7,2,6.3,8.7c-0.9,4.3-3.7,6-7.8,6c-3.2,0-6-1-5.2-4.9l0.3-1.2H36.4z"/>
				<path d="M56.3,31c0.6-2.8,0.5-4-1-4c-1.8,0-2.3,1.7-3.4,6.7c-1.2,5.6-1.3,7.1,0.5,7.1c1.6,0,2.2-1.9,2.9-4.8h4.3l-0.1,0.7
					c-0.9,4.1-2.7,7.1-8.2,7.1c-5.7,0-5.2-4.3-4-10c1-4.9,2.3-9.7,8.6-9.7c3.9,0,5.7,1.7,4.8,6.2L60.6,31H56.3z"/>
				<path d="M83.4,24.4h4.8L87.3,39h0.1l5.4-14.6h4.8l-8.3,18.9h-5.7L83.4,24.4z"/>
				<path d="M99,24.4h11l-0.8,3.6h-6.5l-0.8,3.8h6.1l-0.8,3.6h-6.1l-0.9,4.3h6.8l-0.8,3.6H94.9L99,24.4z"/>
				<path d="M112.2,24.4h7.5c3.8,0,4.6,2.3,4,4.9c-0.6,2.8-2,4.1-4.2,4.6l0,0.1c2.8,0.4,2.5,2.2,2,4.7c-0.7,3.7-0.7,4.1-0.1,4.4
					l-0.1,0.2h-4.8c-0.2-0.6-0.1-1.7,0.3-3.8c0.7-3.3,0.4-4-1-4h-1.7l-1.7,7.8h-4.5L112.2,24.4z M115,32.4h1.4
					c1.8,0,2.6-1.4,2.8-2.5c0.3-1.4,0-2.4-1.8-2.4H116L115,32.4z"/>
			</g>
		</g>
		<g>
			<g>
				<path d="M42.2,49.3h2.4l0.5,5.8h0l1.2-5.8h1.9l-1.9,8.9h-2.4l-0.5-6.1h0l-1.3,6.1h-1.9L42.2,49.3z"/>
				<path d="M49.7,49.3h5.2L54.5,51h-3.1L51,52.8h2.9l-0.4,1.7h-2.9l-0.4,2h3.2l-0.4,1.7h-5.3L49.7,49.3z"/>
				<path d="M56.8,51H55l0.4-1.7h5.8L60.8,51h-1.9l-1.5,7.2h-2.1L56.8,51z"/>
				<path d="M61.3,49.3h2.1l-0.6,6.3h0l2.3-6.3h1.9l-0.3,6.3h0l2.1-6.3h2l-3.4,8.9h-2.3l0.4-6.3h0l-2.2,6.3H61L61.3,49.3z"/>
				<path d="M72.6,58.4c-2.8,0-2.8-1.8-2.2-4.6c0.6-2.8,1.4-4.6,4.1-4.6c3,0,2.7,2.2,2.2,4.6C76.2,56.3,75.6,58.4,72.6,58.4z
					 M72.9,57c0.8,0,1.1-0.8,1.7-3.2c0.5-2.5,0.6-3.2-0.3-3.2c-0.8,0-1.1,0.8-1.6,3.2C72.1,56.2,72.1,57,72.9,57z"/>
				<path d="M78.8,49.3h3.5c1.8,0,2.2,1.1,1.9,2.3c-0.3,1.3-0.9,1.9-2,2.2l0,0c1.3,0.2,1.2,1,1,2.2c-0.3,1.8-0.3,1.9,0,2.1l0,0.1
					h-2.3c-0.1-0.3-0.1-0.8,0.2-1.8c0.3-1.5,0.2-1.9-0.5-1.9h-0.8L79,58.3h-2.1L78.8,49.3z M80.1,53.1h0.6c0.9,0,1.2-0.6,1.3-1.2
					c0.1-0.7,0-1.1-0.8-1.1h-0.6L80.1,53.1z"/>
				<path d="M86,49.3h2.1l-0.7,3.5h0l2.7-3.5h2.3l-3.2,3.8l1.5,5.1h-2.4l-0.9-3.4l-0.7,0.9l-0.5,2.5h-2.1L86,49.3z"/>
			</g>
		</g>
		<radialGradient id="SVGID_2_" cx="71.8506" cy="34.0181" r="10.5015" gradientUnits="userSpaceOnUse">
			<stop  offset="0.3077" style="stop-color:#FFCB99"/>
			<stop  offset="1" style="stop-color:#FF7D00"/>
		</radialGradient>
		<circle style="fill:url(#SVGID_2_);" cx="71.9" cy="34" r="10.5"/>
		<path class="st3" d="M131.3,49.3v34.3H31.6C31.6,83.7,88.3,81.1,131.3,49.3z"/>
	</g>
</g>
</svg>
