<?xml version="1.0" encoding="utf-8"?>
<!-- Generator: Adobe Illustrator 22.0.1, SVG Export Plug-In . SVG Version: 6.00 Build 0)  -->
<svg version="1.1" id="Layer_1" xmlns="http://www.w3.org/2000/svg" xmlns:xlink="http://www.w3.org/1999/xlink" x="0px" y="0px"
	 viewBox="0 0 128.9 83.7" style="enable-background:new 0 0 128.9 83.7;" xml:space="preserve">
<style type="text/css">
	.st0{fill:#0049FF;}
	.st1{fill:#00ADEE;}
</style>
<g id="Layer_2_1_">
</g>
<g id="Layer_3">
</g>
<g id="Layer_4">
	<g>
		<g>
			<path class="st0" d="M9.6,22.4H21c7.7,0,8,5.6,7.2,9.5c-1.2,5.6-4.7,9.5-12,9.5h-3.3l-2.6,12.2H3L9.6,22.4z M14.1,36h2
				c2.9,0,4-1.8,4.5-3.9c0.5-2.4,0.1-4.2-2.9-4.2h-1.9L14.1,36z"/>
			<path class="st0" d="M28.7,37.2c0.7-3.2,2.1-5.2,4-6.3c1.9-1.1,4-1.5,6.9-1.5c5.8,0,8,2,6.9,7L44,48.5c-0.4,1.8-0.9,4.1-0.3,5.1
				h-6.8c-0.1-0.8,0-1.8,0.2-2.7H37c-1.4,2.1-3.9,3.3-6.3,3.3c-4,0-5.8-2.1-4.8-7.2c0.6-2.8,2.2-5.1,4.2-6c2-1,4.7-1.4,6.7-1.9
				c2.3-0.6,2.7-0.9,3.1-2.7c0.3-1.4-0.2-2.4-1.7-2.4c-2,0-2.8,1.2-3.3,3.2C34.9,37.2,28.7,37.2,28.7,37.2z M34.4,49.3
				c1.5,0,3-0.9,3.5-3.2c0.4-2,0.7-3.2,0.9-4.2c-2.5,1.2-3.4,1.2-4.2,1.7c-0.9,0.6-1.4,1.3-1.6,2.6C32.6,48.2,33.1,49.3,34.4,49.3z"
				/>
			<path class="st0" d="M49.9,29.9h7.3l-0.6,16.6h0.1L63,29.9h7.1L58.7,53.8c-2.9,6.1-4.9,7.5-10.4,7.5c-1.1,0-2.1,0-3-0.1l1.1-5
				c0.5,0.1,1.1,0.2,1.7,0.2c1.4,0,2.7-0.6,3.5-2.6L49.9,29.9z"/>
			<path class="st1" d="M74.4,22.4h11.4c7.7,0,8,5.6,7.2,9.5c-1.2,5.6-4.7,9.5-12,9.5h-3.2l-2.6,12.2h-7.3L74.4,22.4z M78.8,36h2
				c2.9,0,4-1.8,4.5-3.9c0.5-2.4,0.1-4.2-2.9-4.2h-1.9L78.8,36z"/>
			<path class="st1" d="M93.5,37.2c0.7-3.2,2.1-5.2,4-6.3c1.9-1.1,4-1.5,6.9-1.5c5.8,0,8,2,6.9,7l-2.6,12.1
				c-0.4,1.8-0.9,4.1-0.3,5.1h-6.8c-0.1-0.8,0-1.8,0.2-2.7h-0.1c-1.4,2.1-3.9,3.3-6.3,3.3c-4,0-5.8-2.1-4.8-7.2
				c0.6-2.8,2.2-5.1,4.2-6c2-1,4.7-1.4,6.7-1.9c2.3-0.6,2.7-0.9,3.1-2.7c0.3-1.4-0.2-2.4-1.7-2.4c-2,0-2.8,1.2-3.3,3.2
				C99.6,37.2,93.5,37.2,93.5,37.2z M99.1,49.3c1.5,0,3-0.9,3.5-3.2c0.4-2,0.7-3.2,0.9-4.2c-2.5,1.2-3.4,1.2-4.2,1.7
				c-0.9,0.6-1.4,1.3-1.6,2.6C97.3,48.2,97.8,49.3,99.1,49.3z"/>
			<path class="st1" d="M118.8,22.4h7.1l-6.6,31.2h-7.1L118.8,22.4z"/>
		</g>
	</g>
</g>
</svg>
