<?xml version="1.0" encoding="utf-8"?>
<!-- Generator: Adobe Illustrator 22.0.1, SVG Export Plug-In . SVG Version: 6.00 Build 0)  -->
<svg version="1.1" xmlns="http://www.w3.org/2000/svg" xmlns:xlink="http://www.w3.org/1999/xlink" x="0px" y="0px"
	 viewBox="0 0 51.6 83.7" style="enable-background:new 0 0 51.6 83.7;" xml:space="preserve">
<style type="text/css">
	.st0{fill:#FF0000;}
	.st1{fill:#FFFF00;}
	.st2{fill:#00C900;}
	.st3{fill:#FF7D00;}
	.st4{fill:#050001;}
	.st5{fill:#000001;}
	.st6{fill:none;stroke:#000000;stroke-width:1.5;stroke-miterlimit:10;}
	.st7{fill:#FFFFFF;}
	.st8{fill:#00FF00;}
	.st9{fill:#EC1C24;}
	.st10{fill:none;stroke:#621C24;stroke-width:0.8996;stroke-miterlimit:10;}
	.st11{fill:none;stroke:#FFFFFF;stroke-width:0.6973;stroke-miterlimit:10;}
	.st12{fill:#0049FF;}
	.st13{fill:#FFB700;}
	.st14{clip-path:url(#SVGID_2_);}
	.st15{fill:url(#SVGID_3_);}
	.st16{clip-path:url(#SVGID_5_);}
	.st17{fill:none;}
	.st18{fill:#00ADEE;}
	.st19{fill:url(#SVGID_6_);}
</style>
<g id="Layer_2">
</g>
<g id="Layer_3">
</g>
<g id="Layer_4">
	<g>
		<circle class="st3" cx="25.8" cy="41.8" r="25.8"/>
		<g>
			<g>
				<g>
					<path class="st7" d="M23.6,28.7l9.2,1.8c4.3,0.8,6.4,3.3,4.7,7.3c-1.2,2.8-3.7,4.7-6.2,4.7l0,0.1c1.8,0.6,4.2,1.9,2.1,6.9
						c-1.2,2.8-4.1,6.5-11.2,5.1l-8.8-1.7L23.6,28.7z M21.2,49.8l1.8,0.3c2.4,0.5,3.8-0.8,4.5-2.5c1-2.4,0.2-3.6-1.7-4l-1.9-0.4
						L21.2,49.8z M25.5,39.4l1.6,0.3c2,0.4,3.4-0.6,4.1-2.3c0.5-1.3,0.4-2.7-1.8-3.2L27.8,34L25.5,39.4z"/>
				</g>
			</g>
			
				<rect x="24.6" y="27.2" transform="matrix(0.1874 -0.9823 0.9823 0.1874 -5.5699 50.0954)" class="st7" width="5.8" height="2.5"/>
			
				<rect x="29.2" y="28.1" transform="matrix(0.1874 -0.9823 0.9823 0.1874 -2.6808 55.3506)" class="st7" width="5.8" height="2.5"/>
			
				<rect x="16.1" y="53.4" transform="matrix(0.1874 -0.9823 0.9823 0.1874 -38.1951 63.0262)" class="st7" width="5.8" height="2.5"/>
			
				<rect x="20.7" y="54.2" transform="matrix(0.1874 -0.9823 0.9823 0.1874 -35.306 68.2814)" class="st7" width="5.8" height="2.5"/>
		</g>
	</g>
</g>
</svg>
