<?xml version="1.0" encoding="utf-8"?>
<!-- Generator: Adobe Illustrator 22.0.1, SVG Export Plug-In . SVG Version: 6.00 Build 0)  -->
<svg version="1.1" id="Layer_1" xmlns="http://www.w3.org/2000/svg" xmlns:xlink="http://www.w3.org/1999/xlink" x="0px" y="0px"
	 viewBox="0 0 83.8 83.7" style="enable-background:new 0 0 83.8 83.7;" xml:space="preserve">
<style type="text/css">
	.st0{fill:url(#SVGID_1_);}
	.st1{clip-path:url(#SVGID_3_);}
	.st2{fill:none;}
	.st3{fill:#FFFFFF;}
</style>
<g id="Layer_2_1_">
</g>
<g id="Layer_3">
</g>
<g id="Layer_4">
	<g>
		
			<radialGradient id="SVGID_1_" cx="22.405" cy="64.2016" r="50.4028" gradientTransform="matrix(1 0 0 -1 0 86)" gradientUnits="userSpaceOnUse">
			<stop  offset="0" style="stop-color:#3B9EFF"/>
			<stop  offset="1" style="stop-color:#0246F1"/>
		</radialGradient>
		<rect x="0.1" class="st0" width="83.7" height="83.7"/>
		<g>
			<g>
				<defs>
					<rect id="SVGID_2_" x="0.1" width="83.7" height="83.7"/>
				</defs>
				<clipPath id="SVGID_3_">
					<use xlink:href="#SVGID_2_"  style="overflow:visible;"/>
				</clipPath>
				<g class="st1">
					<path class="st2" d="M75.3,52.2L75.3,52.2L75.3,52.2C75.3,52.3,75.3,52.3,75.3,52.2z"/>
					<path class="st2" d="M74.4,50.4c0-0.1,0-0.2-0.1-0.3H74C74.2,50.2,74.3,50.3,74.4,50.4z"/>
					<path class="st2" d="M55.9,32.3h-1.3c0,0.1,0,0.2-0.1,0.3h0.7h3h0.6l0.1-0.3h-0.2H55.9z"/>
					<polygon class="st2" points="27.8,50.4 27.3,52.6 28.5,51 28,49.2 					"/>
					<path class="st2" d="M65.8,52.2L65.8,52.2L65.8,52.2C65.9,52.3,65.9,52.3,65.8,52.2z"/>
					<polygon class="st2" points="35.2,51.6 35.7,53.3 36.4,49.7 					"/>
					<polygon class="st3" points="5.5,34.3 7.6,34.3 7.7,28.7 7.7,28.7 					"/>
					<path class="st3" d="M18.6,40.5h1h0.9h2.7h0.1h1.2h0.7h6.9h0.5h1.2h0.1h3h1.2l0.1-0.7l0.2,0.7h1.1h2.7h0.5h1.2H44h3h1.2
						l0.3-1.2l0.1-0.5c0.1,0.2,0.2,0.3,0.3,0.4c0.8,1,2.1,1.5,3.8,1.5c1,0,1.8-0.1,2.5-0.3v0.1h2.4h3.1h1l0.4-0.9l0.6-1.4h0.5v0.9
						v1.5h1.5h2.2h0.9h0.9h0.6h2h1.2v-0.1v0.1h1.4h3.3h1.2l0.3-1.2l2.5-12.7l0.4-1.8h-1.9H77h-1.1h-1.4h-3.4h-1.2l-0.3,1.2l-1,4.5
						l-0.2-4.2L68.3,25h-1.4h-3.7h-1l-0.4,0.9L60.3,29c0-1.1-0.3-2-0.8-2.7c-0.8-1-2.1-1.5-4-1.5c-2,0-3.4,0.6-4.4,1.5l0.3-1.3h-1.9
						h-3h-1.2L45,26.2l0.2,0.3c0-0.1-0.1-0.1-0.1-0.2c-0.5-0.6-1.5-1.4-3.5-1.4H37h-0.3h-1.2h-0.3h-7.3h-0.1h-1.2h-0.7h-4.3h-1
						l-0.4,1L20,26.4V25h-1.5h-4.3H13l-0.3,1.2l-1,4.8l-0.2-4.6L11.4,25H10H6.4h-1L5,25.9l-5.8,12.4l-1,2.1h2.4h3.1h1l0.4-0.9
						l0.6-1.4h0.5V39v1.5h1.5h2.2h0.8h1h0.5h2h1.2h0.8C16.2,40.5,18.6,40.5,18.6,40.5z M71.1,26.4h3.4l0.7,8.2l0,0l1.7-8.2h2.7
						L77.1,39h-3.3l-0.7-8.6l0,0l-2,8.6h-2.6L71.1,26.4z M63.4,26.4h3.7l0.4,10.2l0.1,2.4H67h-2.5l0.1-2.4h-3l-1,2.4h-3.1L63.4,26.4
						z M55.8,26.2c2.6,0,3.8,1.1,3.2,4.1l-0.1,0.5h-2.8c0.4-1.8,0.3-2.6-0.6-2.6c-1.2,0-1.5,1.1-2.2,4.4c-0.8,3.7-0.9,4.7,0.4,4.7
						c1.1,0,1.5-1.2,1.9-3.2h2.6l0,0l-0.1,0.4c-0.3,1.5-0.8,2.8-1.9,3.7c-0.8,0.7-1.9,1-3.5,1c-3.8,0-3.5-2.8-2.7-6.6
						C50.7,29.4,51.6,26.2,55.8,26.2z M46.8,26.4h3L47.1,39h-3L46.8,26.4z M36.6,26.4h5c2.5,0,3,1.5,2.7,3.3
						c-0.4,1.8-1.3,2.7-2.8,3.1l0,0c1.8,0.3,1.7,1.4,1.4,3.1c-0.4,2-0.4,2.5-0.2,2.8c0,0.1,0.1,0.1,0.2,0.1V39h-0.2h-3
						c-0.1-0.4-0.1-1.1,0.2-2.5c0.5-2.2,0.3-2.6-0.7-2.6h-1.1L36.9,39h-3L36.6,26.4z M27.9,26.4h7.3l0,0l-0.5,2.4l0,0h-4.3l-0.5,2.5
						h4l-0.5,2.4h-4l-0.6,2.9h4.3h0.1L32.6,39h-0.2h-7.2L27.9,26.4z M10.1,39H7.5l0.1-2.4h-3l-1,2.4h-3l5.9-12.6h3.7L10.5,37l0.1,2
						H10.1z M14.2,39h-2.6l2.7-12.6h4.3l-0.2,8.2l0,0l3.2-8.2h4.3L23.3,39h-2.7l2.1-9.8l0,0l-4,9.8h-2.3l0.1-9.8l0,0L14.2,39z"/>
					<path class="st3" d="M41.3,30.1c0.2-0.9,0-1.6-1.2-1.6h-0.9l-0.7,3.2h0.9C40.6,31.7,41.1,30.8,41.3,30.1z"/>
					<polygon class="st3" points="64.7,28.7 64.6,28.7 62.4,34.3 64.6,34.3 					"/>
					<path class="st3" d="M27.6,47.5h-0.5h-4.3L22.3,50h4l-0.5,2.4h-4l-0.6,2.9h4.3h0.2h1.6l2.8-4l-0.9-3.8H27.6z"/>
					<path class="st3" d="M42.2,47.3h-0.8l-0.7,3.3h0.8c1.2,0,1.6-0.7,1.8-1.6C43.5,48.1,43.4,47.3,42.2,47.3z"/>
					<path class="st3" d="M52.1,47.2h-0.9l-0.7,3.2h0.9c1.2,0,1.7-0.9,1.9-1.6C53.5,47.8,53.3,47.2,52.1,47.2z"/>
					<path class="st3" d="M84.9,44.9c-0.8-1-2.2-1.6-4.1-1.6c-2.1,0-3.9,0.8-5,2.1c-0.1-0.2-0.2-0.4-0.4-0.5c-0.8-1-2.2-1.6-4.1-1.6
						c-1.4,0-2.6,0.3-3.7,1l0.2-0.7h-1.9h-7.3h-1.2l-0.3,1.2L57,45.2l-0.1-0.1c-0.5-0.6-1.5-1.4-3.5-1.4h-5h-1.2v1.1v0.3l0,0
						c-0.8-1-2-1.5-3.7-1.5h-3h-1.6h-1.2l0,0h-3.3h-0.9l-0.3,0.5v-0.5h-1.3h-2.4h-0.9h-1h-0.9h-6.3h-1.2l-0.3,1.2l-2.7,12.6
						l-0.4,1.8h1.9h5.1h2.4h0.5h0.7h2.5h0.9l0.4-0.7l0.3-0.4l0.2,1.2H32h2.5h0.9h1h1h1.8h1.2l0.3-1.2l0.8-3.7h0.1
						c1.6,0,2.9-0.4,3.9-1.1l-0.9,4.2l-0.4,1.7h1.9h3h1.1l0.1-0.7l0.2,0.7h1.1h2.6h0.6H56h0.1h7.5h1.2l0.2-0.7c0.9,0.6,2,1,3.6,1
						c2.4,0,4-0.8,5-1.9c0.1,0.1,0.1,0.2,0.2,0.3c0.8,1,2.2,1.6,4.3,1.6c4.5,0,6.1-2.8,6.6-5.2c0.4-2-0.2-3.3-1.1-4.1h0.5h1.2
						l0.3-1.2l0.1-0.3C86,46.8,85.5,45.6,84.9,44.9z M75.3,52.2L75.3,52.2L75.3,52.2C75.3,52.3,75.3,52.3,75.3,52.2z M65.8,52.2
						L65.8,52.2L65.8,52.2L65.8,52.2z M34.7,57.7h-2.8l-0.6-4.1l-2.4,4.1h-1.3h-1.9h-0.5h-1.4h-6.1l2.7-12.6h6.7h0.6h1h2h1.2
						l0.5,3.8l0,0l2.1-3.8h2.9h0.3l-0.5,0.7l-3.7,5.5l1.4,5.2l0.3,1.2H34.7z M41.6,52.8h-1.3l-1,4.9h-3L39,45.1h4.6
						c2.7,0,3.1,1.7,3,3.1c0,0.2-0.1,0.5-0.1,0.7s-0.1,0.4-0.2,0.7C45.6,51.5,44.2,52.8,41.6,52.8z M54.9,57.7h-0.3h-2.9
						c-0.1-0.4-0.1-1.1,0.2-2.5c0.5-2.2,0.3-2.6-0.7-2.6h-1.1L49,57.8h-3l2.7-12.6h5c2.5,0,3,1.5,2.7,3.3c-0.4,1.8-1.3,2.7-2.8,3.1
						l0,0c1.8,0.3,1.7,1.4,1.4,3.1c-0.4,1.9-0.4,2.5-0.3,2.7C54.7,57.5,54.8,57.5,54.9,57.7L54.9,57.7z M63.6,57.7h-7.5l2.7-12.6
						h7.3l-0.2,1.2l-0.3,1.2h-0.3h-4L60.7,50h4l-0.5,2.3v0.1h-0.1h-3.9l-0.6,2.9h4h0.5l-0.3,1.5L63.6,57.7z M73.7,53.9
						c-0.2,0.7-0.4,1.3-0.7,1.9c-0.9,1.5-2.4,2.1-4.4,2.1c-2.1,0-4-0.7-3.4-3.3l0.2-0.8h2.8l-0.1,0.4c-0.2,0.9-0.1,1.7,0.9,1.7
						s1.5-0.8,1.7-1.5c0.6-2.7-5.1-1.2-4.1-5.9c0.4-2,1.9-3.7,4.9-3.7c2.4,0,3.3,1,3.4,2.4c0,0.3,0,0.7-0.1,1l-0.1,0.3h-0.2h-2.6
						c0.1-0.6,0.1-1,0-1.3s-0.4-0.4-0.8-0.4c-0.7,0-1.3,0.4-1.5,1.4c-0.5,2.2,3.6,1.6,4.2,4.1C73.9,52.8,73.9,53.3,73.7,53.9z
						 M84.1,48.3L84,48.6h-2.8c0.1-0.6,0.1-1,0-1.3s-0.4-0.4-0.8-0.4c-0.7,0-1.3,0.4-1.5,1.4c-0.6,2.6,5.1,1.3,4.2,5.7
						c-0.6,2.8-2.4,4-5.1,4c-2.1,0-4-0.7-3.4-3.3l0.2-0.8h2.8l-0.1,0.4c-0.2,0.9-0.1,1.7,0.9,1.7s1.5-0.8,1.7-1.5
						c0.6-2.7-5.1-1.2-4.1-5.9c0.4-2,1.9-3.7,4.9-3.7C83.8,44.9,84.5,46.4,84.1,48.3z"/>
				</g>
			</g>
		</g>
	</g>
</g>
</svg>
