<?xml version="1.0" encoding="utf-8"?>
<!-- Generator: Adobe Illustrator 22.0.1, SVG Export Plug-In . SVG Version: 6.00 Build 0)  -->
<svg version="1.1" id="Layer_1" xmlns="http://www.w3.org/2000/svg" xmlns:xlink="http://www.w3.org/1999/xlink" x="0px" y="0px"
	 viewBox="0 0 338.9 567.6" style="enable-background:new 0 0 338.9 567.6;" xml:space="preserve">
<style type="text/css">
	.st0{fill:#A87C4F;stroke:#000000;stroke-width:0.18;stroke-miterlimit:10;}
	.st1{fill:#754C28;stroke:#000000;stroke-width:0.18;stroke-miterlimit:10;}
	.st2{fill:#A87C4F;stroke:#000000;stroke-width:0.27;stroke-miterlimit:10;}
	.st3{fill:#754C28;}
	.st4{fill:#A87C4F;stroke:#000000;stroke-width:0.34;stroke-miterlimit:10;}
	.st5{fill:#754C28;stroke:#000000;stroke-width:0.2;stroke-miterlimit:10;}
	.st6{fill:none;stroke:#000000;stroke-width:0.34;stroke-miterlimit:10;}
	.st7{fill:#EC1C24;stroke:#000000;stroke-width:0.18;stroke-miterlimit:10;}
	.st8{fill:#9F0009;stroke:#000000;stroke-width:0.18;stroke-miterlimit:10;}
	.st9{font-family:'HelveticaNeueLTStd-HvCnO';}
	.st10{font-size:13.78px;}
	.st11{fill:#929497;stroke:#000000;stroke-width:0.21;stroke-miterlimit:10;}
	.st12{fill:#A6A8AB;stroke:#000000;stroke-width:0.21;stroke-miterlimit:10;}
	.st13{fill:#D0D2D3;stroke:#000000;stroke-width:0.21;stroke-miterlimit:10;}
	.st14{fill:#A6A8AB;stroke:#000000;stroke-width:0.19;stroke-miterlimit:10;}
	.st15{fill:#BBBDBF;stroke:#000000;stroke-width:0.21;stroke-miterlimit:10;}
	.st16{fill:none;}
	.st17{fill:none;stroke:#000000;stroke-width:0.21;stroke-miterlimit:10;}
	.st18{fill:#BBBDBF;stroke:#000000;stroke-width:0.19;stroke-miterlimit:10;}
	.st19{fill:#D0D2D3;stroke:#000000;stroke-width:0.19;stroke-miterlimit:10;}
	.st20{fill:#E6E7E8;stroke:#000000;stroke-width:0.18;stroke-miterlimit:10;}
	.st21{fill:none;stroke:#000000;stroke-width:0.18;stroke-miterlimit:10;}
	.st22{fill:#A6A8AB;stroke:#000000;stroke-width:0.17;stroke-miterlimit:10;}
	.st23{fill:none;stroke:#FFFFFF;stroke-width:0.17;stroke-miterlimit:10;}
	.st24{fill:#231F20;stroke:#000000;stroke-width:0.17;stroke-miterlimit:10;}
	.st25{stroke:#000000;stroke-width:0.17;stroke-miterlimit:10;}
</style>
<title>Artboard 3</title>
<rect x="7.1" y="100.9" class="st0" width="317.4" height="27.1"/>
<polygon class="st1" points="334,94 17.9,93.1 7.1,100.9 324.5,100.9 "/>
<polygon class="st1" points="192.2,10.7 192.1,552.3 182.8,560.6 182.8,17.7 "/>
<polygon class="st1" points="192.2,10.7 158.9,10.5 148.6,17.7 182.8,17.7 "/>
<rect x="148.8" y="17.4" class="st2" width="34.1" height="543.2"/>
<polygon class="st1" points="334,94 333.9,121.1 324.5,128 324.5,100.9 "/>
<polygon class="st3" points="184.7,410.2 183.2,409.9 180.7,413.6 180.7,420.8 184,417.9 "/>
<rect x="146.2" y="413.4" class="st4" width="34.5" height="7.4"/>
<polygon class="st5" points="182.8,410.3 148.8,410.3 146.2,413.4 180.7,413.4 "/>
<line class="st6" x1="180.8" y1="420.9" x2="182.9" y2="418.8"/>
<rect x="57.3" y="59" class="st7" width="211.3" height="23.1"/>
<polygon class="st8" points="268.6,82.1 276.3,75.6 276.3,52.5 268.6,59 "/>
<polygon class="st8" points="276.7,52.3 65.3,52.3 57.3,59 268.6,59 "/>
<text transform="matrix(1 0 0 1 62.23 75.62)" class="st9 st10">IESVS·NAZARENVS·REX·IVDÆORVM</text>
<g id="Layer_4">
	<path class="st11" d="M152.6,264.3c0,0,0.1,5.7,0.6,6.9c0.7,1.3,1.6,2.6,2.7,3.7c0.5,0.4,1,1.4,1.4,1.6c0.7,0.2,1.4,0.4,2.1,0.4
		c0.6,0,1,0.3,1.9,0.4s1.8-0.6,2.5-0.7c1-0.1,1.8-0.6,2.4-1.4c0.3-0.8,0.9-3.4,0.9-3.4l-4.9,0.4c0,0,0.4,1.2-0.4,1.5
		c-1.3,0.2-2.6,0.1-3.8-0.4c-0.3-0.3-1-0.8-0.9-1.5s0.2-1.4,0.3-2.2c0-0.8-3-5.5-3.2-5.7S152.2,262.5,152.6,264.3z"/>
	<path class="st11" d="M168,273c0.4,1,1,1.8,1.8,2.5c1.3,0.6,2.8,0.8,4.2,0.8c0.6-0.1,1-0.6,1.5-0.8c0.9-0.4,1.8-0.8,2.7-1.3
		c2.2-1.9,4.2-4,6.2-6.1c-0.6-0.8-1.2-1.5-1.8-2.2c0,0-6.2,5.6-6.4,5.9c-0.6,0.7-1.3,1.2-2.2,1.5c-0.6,0-1.3-1-1.4-1.4
		s-1.3-0.4-1.8-0.3C169.8,272,168.9,272.5,168,273z"/>
	<path class="st12" d="M161.8,143.3l2.6,2l-0.4,7.2c0,0,1,27.8,1,28.2s-1.6,8.6-2.3,8.7s-2,1.4-2.6,1.5s-3.7,4.8-4.7,5.6
		c-1.6,1.2-3.3,2.2-5.1,3c-1.5,0.9-3,1.9-4.3,3c-0.1,0.2-0.2-0.8-0.2-1.2c0.6-1,1.4-1.8,2.4-2.4c1-0.3,2-0.9,2.8-1.6
		c0.6-0.7,1.4-1.2,2.3-1.6c0.4-0.1,1.6-2.2,2.5-3.4s3.3-3.4,3.6-4.2s1.4-1,2-1.4s-0.4-0.8-0.8-1s-0.8-0.7-1.5-0.8s-1.3,1-1.8,1.9
		s-1.5,2.7-1.8,3.1s-1.7,0.6-1.7,0.6s-0.4-3.9-0.6-4c-1.5,0.6-2.9,1.3-4.2,2.1c-0.7,0.4-0.7,2.9-0.8,3.3s-3,2.8-3.7,2.8
		s-2.1-1.5-2.1-1.5s2-2,2.6-2.6s4.1-3.9,4.4-4.5c1.3-1.5,2.7-2.9,4.2-4.1c0.5-0.4,0.8-1,0.7-1.7c1.4-1.2,3-2.4,4.6-3.4
		c1-0.5,1.7-1.5,1.9-2.6c0-0.3-2,0-3.2,0.2s-3.4,2.5-3.8,3.1s-1,2-1.7,2.3c-1.4,1.1-2.7,2.3-3.9,3.6c-0.9,0.9-3.3,3.8-3.6,4.1
		s-1.8,1.9-2.1,2.2s-1.1,1.1-1.1,1.1l-0.5-1.8c0-1.3,2.7-4.1,3.3-4.5c0.7-0.8,1.2-1.7,1.5-2.7c0.1-0.6,1.1-1.2,1.8-1.8
		c2.1-1.9,4.4-3.7,6.7-5.3c0.9-0.4,3.8-2.4,4.7-3c0.5-0.3,0.7-1,0.4-1.5c-0.1-0.1-0.2-0.2-0.3-0.3c-0.4-0.3-1.9,0-3,0.5
		c-2.2,1.2-4.3,2.6-6.3,4.2c-1.3,0.9-2.6,1.8-4,2.5c-0.8,0.4-2.5,2.3-3,2.5s-2.5,3.8-2.5,3.8l-0.9-2.2c0,0,1.7-2.4,2.2-2.9
		s2.2-2,2.8-2.5s-0.3-1.8-0.8-2.5s-1.7-0.1-2.6,0.1c-0.8,0.4-1.5,0.9-2.1,1.5l-0.5-1.6c0.3-1,2.6-3.3,3.2-3.6s0.9-2.1,0.9-2.6
		s-0.2-1.9-1-1.8s-2,1.8-2,1.8l-1.1-1c1-1,1.2-3,1.2-4s-2.5-3.3-3.4-4.3c-0.7-1.1-0.8-2.5-0.2-3.6c0.4-0.6,4.1-5.2,4.7-5.2
		c2.1-0.6,4.1-1.3,6.1-2.1c0.6-0.3,0.5-2.1,0.8-2.1s7.2-0.4,8.2-0.4s3.9-0.3,3.9-0.3L161.8,143.3z M155.1,146.9
		c-0.8,0-1.5-0.6-2.2-0.4c-0.5,0.1-0.8,0.5-0.8,1c0,0.1,0,0.2,0.1,0.2c0.4,0.7,0.6,1.5,0.8,2.3c0,0.5,2.6-0.3,2.9-0.3
		s2.7-0.2,2.8-0.5s0.3-0.9,0.4-1.2s-0.2-1.1-1.1-1.2S155.8,146.9,155.1,146.9z M152.9,151.3c0,0,0.6,1.1,0.5,1.4s-0.4,0.8,0.3,0.8
		s1.9-0.5,2.4-0.5s1.9,0.2,2-0.2s0.1-1.4-1.2-1.5c-1,0-2.1-0.2-3.1-0.3C153.4,151,152.9,151.3,152.9,151.3z M157.4,154.8
		c-0.7,0.2-1.4,0.3-2.1,0.2c-0.5,0-1.4,0.1-1.4,0.6s2.9,1,3.8,1.1c0.8,0.1,1.6,0.2,2.4,0.1c0.3,0-0.6-0.9-0.4-1.2
		c0.1-0.3,0-0.7-0.4-0.9h-0.1C158.6,154.7,158,154.7,157.4,154.8z M158.9,159.3c-0.4-0.2-1-0.2-1.4,0c-0.8,0.3-1.6,0.5-2.4,0.6
		c-0.8,0.1-1.5,0.7-1,1.2s5.9,2,6.1,1.6s0.1-1.2,0-1.5s-1.1-0.2-1.2-0.8C159.1,160,159,159.6,158.9,159.3z M158.9,164.6
		c-0.7-0.1-1.4-0.1-2.1,0c-0.9,0.3-1.7,0.7-2.5,1.2c-0.7,0.5-0.9,1.1-0.2,1.3c1.5,0.4,3,0.6,4.5,0.6c0.5-0.1,1.6-0.8,1.6-1.3
		c0-0.3,0-0.6-0.1-0.9C160.2,165.5,159.1,165.2,158.9,164.6z M140.2,157.4c-0.4-0.2-0.9-0.3-1.3-0.3c-0.6,0-1.9-0.1-1.9,0.3
		c0.3,0.7,0.7,1.2,1.3,1.6c0.3,0.1,0.8-0.3,1.3-0.3c0.4,0,0.8-0.1,1.1-0.2L140.2,157.4z"/>
	<path class="st12" d="M170.8,144.2c0,0,2.9,0.3,3.9,0.3s7.8,0.4,8.2,0.4s0.2,1.8,0.8,2.1c2,0.8,4,1.5,6.1,2.1
		c0.5,0,4.2,4.7,4.7,5.2s0.8,2.7-0.2,3.6s-3.5,3.3-3.4,4.3s0.3,3,1.2,4l-1.1,1c0,0-1.3-1.7-2-1.8s-1,1.3-1,1.8s0.3,2.3,0.9,2.6
		s3,2.5,3.2,3.6l-0.5,1.6c-0.6-0.6-1.3-1.1-2.1-1.5c-0.9-0.3-2.1-0.8-2.6-0.1s-1.4,2-0.8,2.5s2.2,2,2.8,2.5s2.2,2.9,2.2,2.9
		l-0.9,2.2c0,0-2-3.6-2.5-3.8s-2.2-2.1-3-2.5c-1.4-0.7-2.7-1.6-4-2.5c-2-1.5-4.1-2.9-6.3-4.2c-1.2-0.5-2.6-0.8-3-0.5
		c-0.5,0.4-0.6,1.1-0.2,1.5c0.1,0.1,0.2,0.2,0.3,0.3c0.9,0.6,3.8,2.6,4.7,3c2.3,1.7,4.5,3.4,6.7,5.3c0.7,0.6,1.6,1.3,1.8,1.8
		c0.3,1,0.9,1.9,1.5,2.7c0.5,0.4,3.3,3.2,3.2,4.5L189,191c0,0-0.8-0.8-1.1-1.1s-1.9-1.9-2.1-2.2s-2.7-3.1-3.6-4.1
		c-1.2-1.3-2.5-2.5-3.9-3.6c-0.7-0.3-1.3-1.7-1.7-2.3s-2.6-2.8-3.8-3.1s-3.2-0.5-3.2-0.2c0.2,1.1,0.9,2.1,1.9,2.6
		c1.6,1,3.1,2.2,4.6,3.4c0,0.6,0.3,1.3,0.8,1.7c1.5,1.2,2.9,2.6,4.2,4.1c0.2,0.6,3.8,3.8,4.4,4.5s2.6,2.6,2.6,2.6s-1.4,1.5-2,1.5
		s-3.6-2.4-3.7-2.8s-0.1-2.9-0.7-3.3c-1.4-0.8-2.8-1.5-4.2-2.1c-0.1,0.1-0.6,4-0.6,4s-1.4-0.2-1.7-0.6s-1.2-2.2-1.8-3.1
		s-1.1-2-1.8-1.9s-1.1,0.6-1.5,0.8s-1.4,0.6-0.8,1s1.7,0.6,2,1.4s2.7,3,3.6,4.2s2.1,3.3,2.5,3.4c0.9,0.3,1.7,0.9,2.3,1.6
		c0.8,0.8,1.7,1.3,2.8,1.6c1,0.6,1.8,1.4,2.4,2.4c0,0.4-0.1,1.4-0.2,1.2c-1.3-1.1-2.8-2.1-4.3-3c-1.8-0.8-3.5-1.8-5.1-3
		c-0.9-0.8-4.1-5.4-4.7-5.6s-1.9-1.4-2.6-1.5s-2.4-8.4-2.3-8.7s1-28.2,1-28.2l-0.4-7.2l2.6-2L170.8,144.2z M172.6,146.9
		c-0.9,0-1.3,0.8-1.1,1.2s0.3,0.9,0.4,1.2s2.5,0.6,2.8,0.5s2.8,0.8,2.8,0.3c0.2-0.8,0.4-1.6,0.8-2.3c0.2-0.5,0-1-0.5-1.2
		c-0.1,0-0.2-0.1-0.2-0.1c-0.7-0.1-1.4,0.4-2.2,0.4S173.5,146.8,172.6,146.9z M176.7,151c-1,0.2-2.1,0.3-3.1,0.3
		c-1.4,0.1-1.3,1-1.2,1.5s1.4,0.2,2,0.2s1.8,0.5,2.4,0.5s0.4-0.5,0.3-0.8s0.5-1.4,0.5-1.4S177.1,151,176.7,151L176.7,151z
		 M171.3,154.7c-0.4,0.1-0.6,0.5-0.5,0.8v0.1c0.1,0.3-0.7,1.2-0.4,1.2c0.8,0,1.6,0,2.4-0.1c0.9-0.1,3.8-0.6,3.8-1.1
		s-0.9-0.6-1.4-0.6c-0.7,0-1.3-0.1-2-0.2C172.5,154.7,171.9,154.7,171.3,154.7L171.3,154.7z M171.3,160.4c0,0.6-1.1,0.4-1.2,0.8
		s-0.3,1.2,0,1.5s5.6-1,6.2-1.6s-0.1-1.1-1-1.2c-0.8-0.1-1.6-0.3-2.4-0.6c-0.4-0.2-1-0.2-1.4,0C171.4,159.7,171.3,160,171.3,160.4
		L171.3,160.4z M170.3,165.5c0,0.3,0,0.6,0,0.9c0,0.5,1.1,1.2,1.6,1.3c1.5,0,3-0.2,4.5-0.6c0.6-0.2,0.5-0.8-0.2-1.3
		c-0.8-0.5-1.6-0.9-2.5-1.2c-0.7-0.1-1.4-0.1-2.1,0C171.3,165.2,170.3,165.4,170.3,165.5L170.3,165.5z M189.7,158.6
		c0.4,0.1,0.7,0.2,1.1,0.2c0.5,0,1,0.4,1.3,0.3c0.6-0.4,1-0.9,1.3-1.6c0-0.4-1.3-0.3-1.9-0.3c-0.5,0-0.9,0.1-1.3,0.3L189.7,158.6z"
		/>
	<path class="st13" d="M202.5,147.4c-1.3,0.4-5.6,0.9-6.9,1.1s-2.6,0.2-3,1.1c-0.3,1.1-0.7,2.1-1.1,3.1c-0.8,1.5-0.5,3.3,0.6,4.4
		c1.4,1.3,3.6,1.1,5.1,0.8s2.3-0.8,2.2-1.4s0.5-1.6,1.7-2.4c3.5-2.1,7.1-3.9,10.9-5.3c3.6-1.3,15.6-5.2,19.2-6.2
		c2.9-0.8,5.9-1.5,8.9-1.9c1,0,3.2-0.1,4.1,0.4c0.9,0.6,2,0.7,3,0.4c0.8-0.5,1.3-1.4,1.2-1.8s-0.8-3-1-3.6c-0.1-0.7-0.2-1.5-0.1-2.3
		c-0.1-1.3-0.4-2.5-0.9-3.6c-0.5-0.5-1.3-0.6-1.9-0.4c-0.5,0.1-1.9,0.5-2.1,1c-0.4,0.7-0.9,1.3-1.5,1.7s-3,2.1-3.7,2.5
		s-5,3.2-6.1,3.8c-2.8,1-5.6,1.9-8.5,2.6c-2.9,0.5-5.7,1.2-8.5,2c-3.1,1-7.4,2.7-9,3.2S202.5,147.4,202.5,147.4z"/>
	<path class="st13" d="M244.1,137c-0.6,0.4-0.5,2,0.1,2.8c0.4,0.7,1.2,1,1.9,0.7c0.9-0.6,1.8-1.3,2.6-2c0.5-0.4,5.6-4,6.2-4.5
		s8.3-6,9.7-6.9c2.3-1.2,4.6-2.3,7-3.2c1.2-0.4,8.1-2.6,8.9-2.8s5.5-1,6.3-1.2s2.4-0.4,2.5-0.7s-0.3-0.4-0.5-0.9s-0.5-1.6-0.9-1.7
		c-0.7-0.2-1.4-0.1-1.9,0.4c-0.6,0.5-1.3,0.9-2.1,1.2c-0.4,0.1-7.5,2.4-8.6,2.8c-3.1,0.7-6.1,1.6-9,2.7c-3.8,2-7.4,4.3-10.8,6.8
		c-0.8,0.8-7.1,4.6-8.4,5.3S244.8,136.5,244.1,137z"/>
	<path class="st13" d="M246.8,129.9c-0.7,0.2-1.2,0.3-1,1.2c0.4,1.1,0.8,2.2,1.3,3.3c0.2,0.3,0.9,0,1.1-0.2c0.4-0.4,0.9-0.7,1.3-1
		c1-0.5,2-0.9,3-1.3c0.8-0.3,5.1-2.6,6-3s14.6-7.9,15.7-8.4s8.8-3.1,9.9-3.4s1.5,0.1,2.2-0.2c0.6-0.2,1-0.9,0.9-1.5
		c-0.1-0.5-1-2.6-1-2.8c-0.4-0.4-0.9-0.6-1.4-0.5c-0.7,0.3-1.3,0.7-1.8,1.1c-0.4,0.6-0.9,1-1.5,1.3c-0.8,0.4-16.1,7.2-17.7,8.1
		s-13.6,7-14.2,7.2c-0.5,0.2-0.9,0.3-1.4,0.4C247.8,130.4,247.2,129.8,246.8,129.9z"/>
	<path class="st13" d="M293.8,104.7c-0.8,0.3-5.5,2.7-5.7,3s0.3,0.9,0.7,1.2c0.3,0.4,0.9,0.5,1.3,0.2c0.5-0.4,1.4-1.2,1.9-1.5
		c0.8-0.5,1.7-0.9,2.6-1.1c0.4,0.1,1,0.3,1.2,0c0.3-0.5,0.3-1.1,0-1.7C295.6,104.4,295.3,104.1,293.8,104.7z"/>
	<path class="st13" d="M298.7,102.9l-2.9,1.3c0,0,0.5,1.8,1,1.7s1.2-0.9,1.7-1.2s2.2-0.9,2.5-1.1s-0.1-1.3-0.3-1.5
		S298.7,102.9,298.7,102.9z"/>
	<path class="st13" d="M301.7,101.6c-0.3,0.2-0.7,0.3-0.6,0.8s0.4,1.1,0.7,0.9c0.4-0.4,0.9-0.7,1.4-1c0.5-0.2,1.7-0.7,1.8-1
		s-0.2-0.8-0.8-0.5S301.7,101.6,301.7,101.6z"/>
	<path class="st13" d="M292,108.5c-0.4,0.1-1.3,0.3-1.3,0.6s1.2,0.7,1.9,0.5s4.5-1.1,5.1-1.2s5-1,5.7-1.3s1.3-0.9,1.1-1.4
		c-0.3-0.7-1-1-1.8-0.9c-1.1,0.4-2.2,0.9-3.2,1.5c-1.4,0.6-2.8,1.1-4.2,1.5C294.8,108,292,108.5,292,108.5z"/>
	<path class="st13" d="M304.5,104.3c-0.2,0.4-0.1,0.5,0,0.9c0.1,0.6,0.3,1.1,0.5,1.6c0.2,0.3,0.5,0.4,0.8,0.1s0.6-0.8,1-0.9
		s4.1-0.9,4.5-0.9s1.1,0.2,1.5,0s0.3-0.9,0.2-1.3s-1.2-0.4-1.4-0.3s-4.1,0.7-4.6,0.7S304.7,103.9,304.5,104.3z"/>
	<path class="st13" d="M313.1,103.2c0,0,0.1,1,0.2,1.3s0.5,0.4,1,0.5c0.9,0.1,1.9,0.3,2.8,0.6c0.2,0.2,0.3,0.1,0.5-0.5
		s-0.2-0.9-0.9-1c-0.8-0.1-1.6-0.3-2.3-0.6C314,103.5,313.3,103,313.1,103.2z"/>
	<path class="st13" d="M318,104.2c-0.2,0.1-0.2,0.8,0,1s0.6,0.2,1,0.1s1.6-0.4,1.7-0.6s-0.9-0.6-1.3-0.6S318,104.2,318,104.2z"/>
	<path class="st13" d="M287.9,109.5c-0.3,0.1-0.4,0.7-0.5,1s1,0.6,1.6,0.6c0.6-0.1,1.1-0.3,1.6-0.5c0.6-0.1,0.9-0.4,0.5-0.7
		s-1-0.5-1.5-0.4S288.5,109.6,287.9,109.5z"/>
	<path class="st13" d="M292.9,110c-0.3,0.1-0.4,0.4-0.4,0.7c0,0.1,0.1,0.2,0.1,0.2c0.3,0.4,0.4,1.3,0.9,1.2s3.8-1.6,4.4-1.6
		s5.4-0.2,6-0.2s1.6-0.6,1.5-1c-0.2-0.5-0.5-1-0.9-1.4c-0.7-0.3-1.4-0.3-2,0c-0.8,0.3-3.2,0.9-3.7,1c-0.8,0.2-1.6,0.4-2.5,0.5
		c-0.7,0-1.4,0.1-2.1,0.2C293.9,109.6,293.4,109.8,292.9,110z"/>
	<path class="st13" d="M305.6,107.7c-0.2,0.1,0,1.1,0.2,1.5s1.1,1.2,1.4,1s0.7-0.9,1.3-1.1c1.3-0.6,2.7-1,4.1-1.3
		c0.5,0,2.1,0.6,2.3,0.5c0.3-0.3,0.3-0.8,0.1-1.1c-0.2-0.5-0.8-0.8-2.3-0.7c-1.4,0-2.8,0.1-4.1,0.4
		C307.8,107.1,305.6,107.7,305.6,107.7z"/>
	<path class="st13" d="M315.8,106.4c-0.3,0.1-0.4,0.4-0.3,0.9s0.6,0.4,1,0.2c0.8-0.2,1.6-0.3,2.5-0.2c0.5,0.1,1.4,1,1.9,0.9
		s0.6-0.6,0.3-1s-2.5-0.8-3.5-0.8C317.1,106.3,316.4,106.3,315.8,106.4z"/>
	<path class="st13" d="M322.1,107.1c-0.3,0-0.4,0.6-0.3,0.8c0.2,0.4,0.5,0.6,0.9,0.5c0.5-0.1,2,0.3,2.1,0c0.2-0.3,0.1-0.7-0.3-0.9
		h-0.1C324.1,107.4,322.1,107.1,322.1,107.1z"/>
	<path class="st13" d="M291,110.8c-0.4,0.2-0.9,0.3-1.1,0.6s-0.4,0.9,0.4,0.9s1.1,0.1,1.6,0.2s1,0.1,1-0.5s0-1-0.5-1.2
		C291.9,110.7,291.5,110.7,291,110.8z"/>
	<path class="st13" d="M294.4,112.4c-0.6,0.2-1,0.3-0.9,0.7s0,1.6,1.4,1.2c0.9-0.3,1.9-0.5,2.9-0.6c0.4,0,4.2,0,4.6,0
		c1.2,0,2.3-0.1,3.4-0.3c0.5-0.2,0.3-1,0.1-1.4c-0.6-0.6-1.5-0.9-2.4-0.7c-1,0.2-3.4,0.8-4.3,0.9c-1.1,0.1-2.2,0.2-3.3,0.1
		C295.4,112.4,294.9,112.4,294.4,112.4z"/>
	<path class="st13" d="M306.6,111.3c-0.4,0.1-0.5,0.7-0.4,1.2s0,1.5,0.5,1.5s1.6-0.5,2.2-0.6s5.1-0.9,5.8-0.9s1.4,0.1,1.6-0.2
		s-0.1-1.7-0.5-1.8c-1.1-0.1-2.3,0-3.4,0.2c-0.7,0.2-4.3,0.6-4.6,0.6C307.8,111.3,306.6,111.3,306.6,111.3z"/>
	<path class="st13" d="M316.4,110.2c-0.3,0.2,0,1.1,0.1,1.6s0.6,0.8,1,0.7c0.7-0.3,1.4-0.4,2.1-0.5c0.6,0.1,1.1,0.1,1.7,0.1
		c0.4-0.1,0.3-1.1,0.1-1.4s-1.3,0-2-0.1S316.8,109.9,316.4,110.2z"/>
	<path class="st13" d="M322.2,110.4c-0.4,0-0.3,0-0.3,0.6s0.2,0.6,0.8,0.5s1.3-0.1,1.4-0.2s0.1-0.3,0-0.7S322.2,110.4,322.2,110.4z"
		/>
	<path class="st13" d="M295.7,114.6c-0.7,0-1.4,0.3-1.9,0.8c-0.3,0.5,0.7,1.4,1.4,1.2s1.7-0.4,2.5-0.5s4.8-0.3,5.3,0s1.8,1.2,2.3,1
		s1.2-1.1,1-1.5s0-1.2-2-1.3s-4.1-0.4-5.1-0.1C298.2,114.5,297,114.6,295.7,114.6z"/>
	<path class="st13" d="M307,114.5c-0.3,0.2-0.4,0.9-0.4,1.3s-0.4,1.1,0.1,1.1s2.1-0.2,2.8-0.3s3.5,0.3,3.9,0.2
		c0.4-0.3,0.7-0.8,0.7-1.4c-0.4-0.3-0.9-0.4-1.4-0.3c-1.3,0.2-2.6,0.2-3.8-0.1C308.3,114.7,307.7,114.5,307,114.5z"/>
	<path class="st13" d="M314.6,115.4l-0.7,1.6c0.7,0.2,1.4,0.2,2.1,0.2c0.8-0.1,1.5-0.1,2.3,0.1c0.2,0.1,1-0.6,0.7-1.1
		s-1.2-0.2-2-0.3S314.6,115.4,314.6,115.4z"/>
	<path class="st13" d="M319.6,116.2c-0.2,0.1-0.2,0.9-0.2,0.9l1.3,0.5c0.6,0.2,0.8,0.6,1.2,0.3s0.7-0.7,0.1-0.9
		C321.2,116.6,320.4,116.3,319.6,116.2z"/>
	<path class="st13" d="M287.2,111.2c-0.2,0.1-0.3,1-0.1,1.4s0.1,1.4,0.8,1.4s1.7-0.4,1.6-0.8s-0.3-0.8-0.5-1.2
		C288.6,111.3,287.9,111,287.2,111.2z"/>
	<path class="st13" d="M291,112.9c-0.5-0.1-0.9-0.1-0.8,0.2s0.2,1.4,0.8,1.2s0.9-0.7,0.7-1S291,112.9,291,112.9z"/>
	<path class="st13" d="M292.5,113.2c-0.3,0.4-0.3,0.9-0.2,1.4c0.1,0.3,0.5,0.9,0.9,0.9s0.7-0.2,0.6-0.6s-0.2-0.8-0.3-1.2
		C293.1,113.3,292.8,113,292.5,113.2z"/>
	<path class="st13" d="M291.1,114.8c-0.3,0.2-1,0.7-0.9,1.2s0.6,1.2,1,1.1s0.6-0.4,0.9-0.9S291.6,114.5,291.1,114.8z"/>
	<path class="st13" d="M289.2,113.9c-0.4,0.1-1.2,0.5-1.2,0.8c0,0.6,0.3,1.1,0.7,1.4c0.4,0.2,1-0.3,1.2-0.7s0.2-0.8,0-1.1
		C289.8,114,289.2,113.9,289.2,113.9z"/>
	<path class="st13" d="M292.1,117.2c-0.5,0.1-1.4,0.2-1.3,0.5s0.7,1,1.3,0.8s1.4-0.2,1.2-0.7S292.1,117.2,292.1,117.2z"/>
	<path class="st13" d="M292.6,115.9c-0.3,0.3-0.4,0.7-0.1,0.9s0.8,0.1,0.8-0.3s-0.2-0.7-0.4-0.7
		C292.9,115.9,292.7,115.9,292.6,115.9z"/>
	<path class="st13" d="M126.9,147.4c1.3,0.4,5.6,0.9,6.9,1.1s2.6,0.2,3,1.1c0.3,1.1,0.7,2.1,1.1,3.1c0.8,1.5,0.5,3.3-0.6,4.4
		c-1.4,1.3-3.6,1.1-5.1,0.8s-2.3-0.8-2.2-1.4s-0.5-1.6-1.7-2.4c-3.5-2.1-7.1-3.9-10.9-5.3c-3.6-1.3-15.6-5.2-19.2-6.2
		c-2.9-0.8-5.9-1.5-8.9-1.9c-1,0-3.2-0.1-4.1,0.4c-0.9,0.6-2,0.7-3,0.4c-0.8-0.5-1.3-1.4-1.2-1.8s0.8-3,1-3.6
		c0.1-0.7,0.2-1.5,0.1-2.3c0.1-1.3,0.4-2.5,0.9-3.6c0.5-0.5,1.3-0.7,2-0.4c0.5,0.1,1.9,0.5,2.1,1c0.4,0.7,0.9,1.3,1.6,1.7
		c0.6,0.4,3,2.1,3.7,2.5s5,3.2,6.1,3.8c2.8,1,5.6,1.9,8.5,2.6c2.9,0.5,5.7,1.2,8.5,2c3.1,1,7.4,2.7,9,3.2S126.9,147.4,126.9,147.4z"
		/>
	<path class="st13" d="M85.3,137c0.6,0.4,0.5,2-0.1,2.8c-0.4,0.7-1.2,1-1.9,0.7c-0.9-0.6-1.8-1.3-2.6-2c-0.5-0.4-5.6-4-6.2-4.5
		s-8.3-6-9.7-6.9c-2.3-1.2-4.6-2.3-7-3.2c-1.2-0.4-8.1-2.6-8.9-2.8s-5.5-1-6.3-1.2s-2.3-0.4-2.5-0.7s0.3-0.4,0.5-0.9
		s0.5-1.6,0.9-1.7c0.7-0.2,1.4-0.1,1.9,0.4c0.6,0.5,1.3,0.9,2.1,1.2c0.3,0.1,7.4,2.4,8.6,2.8c3.1,0.7,6.1,1.6,9,2.7
		c3.7,2,7.4,4.3,10.8,6.8c0.8,0.8,7.1,4.6,8.4,5.3S84.6,136.5,85.3,137z"/>
	<path class="st13" d="M82.6,129.9c0.7,0.2,1.2,0.3,1,1.2c-0.4,1.1-0.8,2.2-1.3,3.3c-0.2,0.3-0.9,0-1.1-0.2c-0.4-0.4-0.9-0.7-1.3-1
		c-1-0.5-2-0.9-3-1.3c-0.8-0.3-5.1-2.6-6-3s-14.6-7.9-15.7-8.4s-8.8-3.1-9.9-3.4s-1.5,0.1-2.2-0.2c-0.6-0.2-1-0.9-0.9-1.5
		c0.2-0.5,1-2.6,1-2.8c0.4-0.4,0.9-0.6,1.4-0.5c0.6,0.3,1.2,0.7,1.8,1.1c0.4,0.6,0.9,1,1.5,1.3c0.8,0.4,16.1,7.2,17.7,8.1
		s13.6,7,14.2,7.2c0.5,0.2,0.9,0.3,1.4,0.4C81.6,130.4,82.2,129.8,82.6,129.9z"/>
	<path class="st13" d="M35.6,104.7c0.8,0.3,5.5,2.7,5.7,3s-0.3,0.9-0.7,1.2c-0.3,0.4-0.9,0.5-1.3,0.2c-0.5-0.4-1.4-1.2-1.9-1.5
		c-0.8-0.5-1.7-0.9-2.6-1.1c-0.4,0.1-0.9,0.3-1.2,0c-0.3-0.5-0.3-1.1,0-1.7C33.8,104.4,34.1,104.1,35.6,104.7z"/>
	<path class="st13" d="M30.7,102.9l2.9,1.3c0,0-0.5,1.8-1,1.7s-1.2-0.9-1.7-1.2s-2.2-0.9-2.5-1.1s0.1-1.3,0.3-1.5
		S30.7,102.9,30.7,102.9z"/>
	<path class="st13" d="M27.7,101.6c0.3,0.2,0.7,0.3,0.6,0.8s-0.4,1.1-0.7,0.9c-0.4-0.4-0.9-0.7-1.4-1c-0.4-0.2-1.7-0.7-1.8-1
		s0.2-0.8,0.8-0.5S27.7,101.6,27.7,101.6z"/>
	<path class="st13" d="M37.4,108.5c0.4,0.1,1.3,0.3,1.3,0.6s-1.2,0.7-1.9,0.5s-4.5-1.1-5.1-1.2s-5-1-5.7-1.3s-1.3-0.9-1.1-1.4
		c0.3-0.7,1-1,1.8-0.9c1.1,0.4,2.2,0.9,3.2,1.5c1.4,0.6,2.8,1.1,4.2,1.5C34.7,108,37.4,108.5,37.4,108.5z"/>
	<path class="st13" d="M24.9,104.3c0.2,0.4,0.1,0.5,0,0.9c-0.1,0.6-0.3,1.1-0.5,1.6c-0.2,0.3-0.5,0.4-0.8,0.1s-0.6-0.8-1-0.9
		s-4.1-0.9-4.5-0.9s-1.1,0.2-1.5,0s-0.3-0.9-0.2-1.3s1.2-0.4,1.4-0.3s4.1,0.7,4.6,0.7S24.7,103.9,24.9,104.3z"/>
	<path class="st13" d="M16.3,103.2c0,0-0.1,1-0.2,1.3s-0.5,0.4-1,0.5c-0.9,0.1-1.9,0.3-2.8,0.6c-0.2,0.2-0.3,0.1-0.5-0.5
		s0.2-0.9,0.9-1c0.8-0.1,1.6-0.3,2.3-0.6C15.4,103.5,16.1,103,16.3,103.2z"/>
	<path class="st13" d="M11.5,104.2c0.2,0.1,0.2,0.8,0,1s-0.6,0.2-1,0.1s-1.6-0.4-1.7-0.6s0.9-0.6,1.3-0.6S11.5,104.2,11.5,104.2z"/>
	<path class="st13" d="M41.5,109.5c0.3,0.1,0.4,0.7,0.5,1s-1,0.6-1.6,0.6c-0.6-0.1-1.1-0.3-1.7-0.5c-0.6-0.1-0.9-0.4-0.5-0.7
		s1-0.5,1.5-0.4C40.3,109.6,40.9,109.6,41.5,109.5z"/>
	<path class="st13" d="M36.5,110c0.3,0.1,0.4,0.4,0.4,0.7c0,0.1-0.1,0.2-0.1,0.2c-0.3,0.4-0.4,1.3-0.9,1.2s-3.8-1.6-4.4-1.6
		s-5.4-0.2-6-0.2s-1.6-0.6-1.5-1c0.2-0.5,0.5-1,0.8-1.4c0.6-0.2,1.4-0.2,2,0c0.8,0.3,3.2,0.9,3.7,1c0.8,0.2,1.6,0.4,2.5,0.5
		c0.7,0,1.4,0.1,2.1,0.2C35.5,109.6,36,109.8,36.5,110z"/>
	<path class="st13" d="M23.8,107.7c0.2,0.1,0,1.1-0.2,1.5s-1.1,1.2-1.4,1s-0.7-0.9-1.3-1.1c-1.3-0.6-2.7-1-4.1-1.3
		c-0.5,0-2.1,0.6-2.3,0.5c-0.3-0.3-0.3-0.8-0.1-1.1c0.2-0.5,0.8-0.8,2.3-0.7c1.4,0,2.8,0.1,4.2,0.4
		C21.6,107.1,23.8,107.7,23.8,107.7z"/>
	<path class="st13" d="M13.6,106.4c0.3,0.1,0.3,0.4,0.3,0.9s-0.6,0.4-1,0.2c-0.8-0.2-1.6-0.3-2.5-0.2c-0.5,0.1-1.4,1-1.9,0.9
		s-0.5-0.6-0.3-1s2.5-0.8,3.5-0.8C12.3,106.3,13,106.3,13.6,106.4z"/>
	<path class="st13" d="M7.3,107.1c0.3,0,0.4,0.6,0.3,0.8c-0.2,0.4-0.5,0.6-0.9,0.5c-0.5-0.1-2,0.3-2.1,0c-0.2-0.3-0.1-0.7,0.3-0.9H5
		C5.3,107.4,7.3,107.1,7.3,107.1z"/>
	<path class="st13" d="M38.4,110.8c0.4,0.2,0.9,0.3,1.1,0.6s0.3,0.9-0.4,0.9s-1.1,0.1-1.7,0.2s-1,0.1-0.9-0.5s0-1,0.5-1.2
		C37.5,110.7,37.9,110.7,38.4,110.8z"/>
	<path class="st13" d="M35.1,112.4c0.6,0.2,1,0.3,0.9,0.7s0,1.6-1.4,1.2c-0.9-0.3-1.9-0.5-2.9-0.6c-0.4,0-4.2,0-4.6,0
		c-1.2,0-2.3-0.1-3.4-0.3c-0.5-0.2-0.3-1-0.1-1.4c0.6-0.6,1.5-0.9,2.4-0.7c1,0.2,3.3,0.8,4.3,0.9c1.1,0.1,2.2,0.2,3.3,0.1
		C34.1,112.4,34.6,112.4,35.1,112.4z"/>
	<path class="st13" d="M22.8,111.3c0.4,0.1,0.5,0.7,0.4,1.2s0,1.5-0.5,1.5s-1.6-0.5-2.2-0.6s-5.1-0.9-5.8-0.9s-1.4,0.1-1.6-0.2
		s0.1-1.7,0.5-1.8c1.1-0.1,2.3,0,3.4,0.2c0.7,0.2,4.3,0.6,4.6,0.6C21.6,111.3,22.8,111.3,22.8,111.3z"/>
	<path class="st13" d="M13.1,110.2c0.2,0.2,0,1.1-0.1,1.6s-0.6,0.8-1,0.7c-0.7-0.3-1.4-0.4-2.1-0.5c-0.6,0.1-1.1,0.1-1.7,0.1
		c-0.4-0.1-0.3-1.1-0.1-1.4s1.3,0,2-0.1S12.7,109.9,13.1,110.2z"/>
	<path class="st13" d="M7.2,110.4c0.4,0,0.3,0,0.3,0.6s-0.2,0.6-0.8,0.5s-1.3-0.1-1.4-0.2s-0.1-0.3,0-0.7S7.2,110.4,7.2,110.4z"/>
	<path class="st13" d="M33.7,114.6c0.7,0,1.4,0.3,1.9,0.8c0.3,0.5-0.7,1.4-1.4,1.2s-1.7-0.4-2.5-0.5s-4.8-0.3-5.3,0s-1.8,1.2-2.3,1
		s-1.2-1.1-1-1.5s0-1.2,2-1.3s4.1-0.4,5.1-0.1C31.2,114.5,32.5,114.6,33.7,114.6z"/>
	<path class="st13" d="M22.4,114.5c0.3,0.2,0.3,0.9,0.4,1.3s0.3,1.1-0.1,1.1s-2.1-0.2-2.8-0.3s-3.5,0.3-3.9,0.2
		c-0.4-0.3-0.7-0.8-0.7-1.4c0.4-0.3,0.9-0.4,1.4-0.3c1.3,0.2,2.6,0.2,3.8-0.1C21.1,114.7,21.7,114.5,22.4,114.5z"/>
	<path class="st13" d="M14.8,115.4l0.7,1.6c-0.7,0.2-1.4,0.2-2.1,0.2c-0.8-0.1-1.5-0.1-2.3,0.1c-0.2,0.1-1-0.6-0.7-1.1
		s1.2-0.2,2-0.3S14.8,115.4,14.8,115.4z"/>
	<path class="st13" d="M9.8,116.2C10,116.3,10,117,10,117l-1.3,0.5c-0.6,0.2-0.8,0.6-1.2,0.3s-0.7-0.7-0.1-0.9
		C8.2,116.6,9,116.3,9.8,116.2z"/>
	<path class="st13" d="M42.2,111.2c0.2,0.1,0.3,1,0.1,1.4s-0.1,1.4-0.8,1.4s-1.7-0.4-1.6-0.8c0.1-0.4,0.3-0.8,0.5-1.2
		C40.7,111.4,41.5,111,42.2,111.2z"/>
	<path class="st13" d="M38.4,112.9c0.5-0.1,0.9-0.1,0.8,0.2s-0.2,1.4-0.8,1.2s-0.9-0.7-0.7-1S38.4,112.9,38.4,112.9z"/>
	<path class="st13" d="M37,113.2c0.3,0.4,0.3,0.9,0.2,1.4c-0.2,0.3-0.5,0.9-0.9,0.9s-0.7-0.2-0.6-0.6c0.1-0.4,0.2-0.8,0.3-1.2
		C36.3,113.3,36.6,113,37,113.2z"/>
	<path class="st13" d="M38.3,114.8c0.3,0.2,1,0.7,0.9,1.2s-0.6,1.2-1,1.1s-0.6-0.4-0.8-0.9S37.8,114.5,38.3,114.8z"/>
	<path class="st13" d="M40.2,113.9c0.3,0.1,1.2,0.5,1.2,0.8c0,0.6-0.3,1.1-0.7,1.4c-0.4,0.2-1-0.3-1.2-0.7s-0.2-0.8,0-1.1
		C39.6,114,40.2,113.9,40.2,113.9z"/>
	<path class="st13" d="M37.3,117.2c0.5,0.1,1.4,0.2,1.3,0.5s-0.7,1-1.3,0.8s-1.4-0.2-1.2-0.7S37.3,117.2,37.3,117.2z"/>
	<path class="st13" d="M36.8,115.9c0.3,0.3,0.4,0.7,0.1,0.9s-0.8,0.1-0.8-0.3s0.2-0.7,0.4-0.7C36.5,115.9,36.7,115.9,36.8,115.9z"/>
	<path class="st14" d="M150.6,341.4c-0.6-0.1-1.2,0-1.7,0.2c-0.7,0.4-1.9,2.1-1.4,2.9s2.1,3.3,2.4,4.1s1.4,7,1.7,7.9
		s2.1,10.1,2.3,12.5s1.4,16.6,1.5,17.7s0.7,7.6,0.6,8.7c-0.1,1.6,0.1,3.2,0.5,4.8c0.4,0.9,0.7,1.6,1.2,1.5s1.4-2,1.5-2.6
		c0-0.9,0.2-1.7,0.4-2.6c0.1-1.9,0-3.7-0.1-5.6c0-0.3-0.9-1.3-1-1.6s-0.8-4.3-0.8-5.6s-0.2-11.7-0.5-13.8s-1.5-8.7-2-11.6
		c-0.6-2.7-1.2-5.4-2.1-8c-0.3-1.6-0.6-3.2-0.6-4.8C152.5,345.2,150.6,341.4,150.6,341.4z"/>
	<rect x="163.7" y="192.5" class="st12" width="3.2" height="38.1"/>
	<path class="st15" d="M162.1,135.8l0.4,12.4l4.7-0.1c0,0-0.6-6.8-0.7-7.2c-0.2-0.5-0.3-1-0.4-1.5c0-0.6-0.2-4.3-0.2-4.6
		s-2.5,0.1-2.5,0.1L162.1,135.8z"/>
	<path class="st13" d="M168.8,136.9c-0.8,0-3.1,0-3.6,0s-3.5,0.2-3.9,0.2s-2.4,0-2.4,0.7s0.3,1.2,1.6,1.6c0.9,0.3,1.9,0.4,2.9,0.4
		s2.1-0.1,3.1-0.2c0.2-0.1,0.2-0.6,0.5-0.6c0.4,0.1,0.8,0.1,1.1,0.1c0.6-0.1,1.5-0.6,1.5-1.1S170,136.9,168.8,136.9z"/>
	<path class="st13" d="M170.7,141.8c-0.3-0.4-0.8-0.6-1.3-0.5c-0.8,0-1.6,0-2.4-0.1c-0.5-0.2-0.9-0.2-1.4-0.2
		c-0.6,0-3.3,0.4-3.8,0.5s-3.1,0.4-3.4,0.7s-0.6,1.3-0.1,1.7c0.7,0.4,1.6,0.5,2.4,0.4c1-0.2,2-0.4,3-0.4c0.6,0,2.1-0.3,2.4-0.3
		c0.4,0,0.9-0.1,1.3-0.3c0.3-0.1,2.9,0.1,3.2-0.2C171,142.8,171,142.3,170.7,141.8z"/>
	<path class="st16" d="M150.8,188.4c-0.3,0.2-1.3,0.4-1.6,0.9s-1,1.1-0.1,1.4c1.1,0.1,2.2-0.3,3-1c0.6-0.6,1.1-1.5,0.8-2
		S152,187.6,150.8,188.4z"/>
	<path class="st16" d="M153.8,155.5c1.5,0.6,3,0.9,4.5,1c1,0.1,1.9,0.1,2.9-0.1c0.1-0.2-0.1-1.2-0.1-1.7s-0.9-0.7-1.3-1.3
		s-1.1-1.9-1.9-2.1l-2.1-0.4c-0.9,0.2-1.8,0.4-2.7,0.7c-0.6,0-2.4,0.1-2.4,0.3C151.2,153.4,152.4,154.7,153.8,155.5z"/>
	<path class="st16" d="M145,196c-0.6,0-1.2-0.6-1.5-0.5c-0.4,0.4-0.5,1-0.3,1.5c0.2,0.7,0.8,2.1,1.2,2.2s1.5-0.9,1.8-1.3
		S147.2,196,145,196z"/>
	<path class="st16" d="M161.4,159.1c0-0.3-0.6-0.3-1.1-0.2c-0.4,0-0.9,0-1.3-0.1c-2.2-0.2-4.4-0.7-6.4-1.4c-2.1-0.6-3.4-3.7-3.6-4.2
		s-0.4-0.5-1.1-0.6c-1.2-0.3-2.3-0.8-3.2-1.5c-0.5-0.5-2.9-0.6-3.7-0.4s0.2,3.2,0.2,3.2s0.5,0.5,0.8,0.7c1.4,1.6,2.9,3,4.6,4.2
		c2.6,1.7,9.7,2.6,10.4,2.6s3.6,0.2,4-0.1S161.4,159.4,161.4,159.1z"/>
	<path class="st16" d="M160.9,163.6c-0.4-0.2-3.4-0.2-5.8-0.5s-7.5-1.2-9.3-2.4c-2-1.4-3.8-2.9-5.5-4.7c-0.1-0.2-0.2-0.3-0.4-0.4
		c-0.4,0.3-0.7,0.8-0.8,1.3c0.2,0.6,0.7,1.2,1.2,1.5c0.6,0.5,3,3.3,4.2,4.3c2.4,1.5,4.9,2.7,7.6,3.4c1.4,0.2,4.4,0.4,5.1,0.4
		c0.9,0.1,1.9,0.1,2.8-0.1c0.3-0.2,0.5-0.8,0.8-1S161.3,163.9,160.9,163.6z"/>
	<path class="st16" d="M161.5,178.1c-0.2,0.2-0.5,0.3-0.8,0.4c-0.8,0.2-1.5,0.5-2.1,1c-0.4,0.3-1.1,1.1-0.3,1.1
		c0.9-0.1,1.8-0.4,2.6-0.7c0.4-0.3,0.9-0.4,1.4-0.5c0.4,0.1,0.5-0.5,0.5-0.8S161.8,177.8,161.5,178.1z"/>
	<path class="st13" d="M166.1,133.1c-1.2,0-2.4,0-3.5,0.1c-0.7,0-2.5,0.3-2.8,0.7s0.2,1.6,0.8,1.6c0.5,0.1,1,0.2,1.5,0.5
		c0.2,0.1,2.8,0,3.1,0c0.6-0.1,1.1-0.3,1.6-0.6s1-0.5,1.5-0.6c0.4,0,1.2-0.3,1.2-0.7s-0.6-1-1.5-1S166.3,133.2,166.1,133.1z"/>
	<path class="st15" d="M162.5,180.7c-0.9,0.1-3.1,1.3-3.2,2s0.5,1.6,1,1.6s1.2-0.5,1.6-0.3s0.7,0.2,0.8,0.5s0.1,1.9-0.2,2
		c-0.8,0.4-1.6,0.8-2.3,1.2c-0.5,0.4-1,1.2-0.7,1.7s0.9,0.2,1.1,0.2s0.9-0.4,1-0.1c0,0.6-0.1,1.2-0.2,1.8c0,0.1-1,0.5-1.2,1
		s-0.1,1.1,0.3,1.5c0.3,0.3,0.7,0.7,0.7,1.1s0.5,1.4,1,1.4s2.8,0.2,3.3,0.2c1.1,0,2.2-0.2,3.3-0.4c0.1-0.1,0-1.8,0.3-1.9
		s1.3-0.6,1.2-1.2c-0.2-0.5-0.6-1-1.1-1.3c-0.3-0.1-0.4-0.9-0.4-1.4s0.1-1.3,0.3-1.3s0.8-0.2,1-0.1s0.8,0.4,1,0.3
		c0.4-0.2,0.6-0.7,0.6-1.1c0-0.6-1.1-1.7-1.3-2s-0.4-0.5-1.1-0.4s-0.9,0.4-1.2,0.2s-0.3-1.5,0-1.6s2.3,0,2.5,0c0.7-0.3,1-1,0.8-1.7
		l0,0c-0.4-1.1-2.1-2-3-2.4c-0.9-0.3-1.9-0.4-2.9-0.5c-0.2,0-2,0.4-2.2,0.5C163.1,180.4,162.8,180.5,162.5,180.7z"/>
	<path class="st16" d="M179.5,188.4c0.3,0.2,1.3,0.4,1.6,0.9s1,1.1,0.1,1.4c-1.1,0.1-2.2-0.3-3-1c-0.6-0.6-1.1-1.5-0.8-2
		S178.3,187.6,179.5,188.4z"/>
	<path class="st16" d="M176.5,155.5c-1.5,0.6-3,0.9-4.5,1c-1,0.1-1.9,0.1-2.9-0.1c-0.1-0.2,0.1-1.2,0.1-1.7s0.9-0.7,1.3-1.3
		s1.1-1.9,1.9-2.1l2-0.4c0.9,0.2,1.8,0.4,2.7,0.7c0.6,0,2.4,0.1,2.4,0.3C179.1,153.4,177.9,154.7,176.5,155.5z"/>
	<path class="st16" d="M185.4,196c0.6,0,1.2-0.6,1.5-0.5c0.4,0.4,0.5,1,0.3,1.5c-0.2,0.7-0.7,2.1-1.2,2.2s-1.5-0.9-1.8-1.3
		S183.1,196,185.4,196z"/>
	<path class="st16" d="M168.9,159.1c0-0.3,0.6-0.3,1.1-0.2c0.4,0,0.9,0,1.3-0.1c2.2-0.2,4.4-0.7,6.4-1.4c2.1-0.6,3.4-3.7,3.6-4.2
		s0.4-0.5,1.1-0.6c1.2-0.3,2.3-0.8,3.2-1.5c0.5-0.5,2.9-0.6,3.7-0.4s-0.2,3.2-0.2,3.2s-0.5,0.5-0.8,0.7c-1.4,1.6-2.9,3-4.6,4.2
		c-2.6,1.7-9.7,2.6-10.4,2.6s-3.6,0.2-4-0.1S168.9,159.4,168.9,159.1z"/>
	<path class="st16" d="M169.4,163.6c0.4-0.2,3.4-0.2,5.8-0.5s7.5-1.2,9.3-2.4c2-1.4,3.8-2.9,5.5-4.7c0.1-0.2,0.2-0.3,0.4-0.4
		c0.4,0.3,0.7,0.8,0.8,1.3c-0.2,0.6-0.7,1.2-1.2,1.5c-0.6,0.5-3,3.3-4.1,4.3c-2.4,1.5-4.9,2.7-7.6,3.4c-1.4,0.2-4.4,0.4-5.1,0.4
		c-0.9,0.1-1.9,0.1-2.8-0.1c-0.3-0.2-0.5-0.8-0.8-1S169,163.9,169.4,163.6z"/>
	<path class="st16" d="M168.9,178.1c0.2,0.2,0.5,0.3,0.8,0.4c0.8,0.2,1.5,0.5,2.1,1c0.4,0.3,1.1,1.1,0.3,1.1
		c-0.9-0.1-1.8-0.4-2.6-0.7c-0.4-0.3-0.9-0.4-1.4-0.5c-0.4,0.1-0.5-0.5-0.5-0.8C167.9,178.1,168.4,177.9,168.9,178.1z"/>
	<path class="st17" d="M186.1,199.3c0.4-0.1,1-1.5,1.2-2.2c0.2-0.5,0.1-1.1-0.3-1.5c-0.3-0.2-0.9,0.5-1.5,0.5c-2.2,0-1.4,1.6-1.1,2
		S185.6,199.4,186.1,199.3z"/>
	<path class="st17" d="M153.8,155.5c1.5,0.6,3,0.9,4.5,1c1,0.1,1.9,0.1,2.9-0.1c0.1-0.2-0.1-1.2-0.1-1.7s-0.9-0.7-1.3-1.3
		s-1.1-1.9-1.9-2.1l-2.1-0.4c-0.9,0.2-1.8,0.4-2.7,0.7c-0.6,0-2.4,0.1-2.4,0.3C151.2,153.4,152.4,154.7,153.8,155.5z"/>
	<path class="st17" d="M161.5,178.1c-0.2,0.2-0.5,0.3-0.8,0.4c-0.8,0.2-1.5,0.5-2.1,1c-0.4,0.3-1.1,1.1-0.3,1.1
		c0.9-0.1,1.8-0.4,2.6-0.7c0.4-0.3,0.9-0.4,1.4-0.5c0.4,0.1,0.5-0.5,0.5-0.8S161.8,177.8,161.5,178.1z"/>
	<path class="st17" d="M160.9,163.6c-0.4-0.2-3.4-0.2-5.8-0.5s-7.5-1.2-9.3-2.4c-2-1.4-3.8-2.9-5.5-4.7c-0.1-0.2-0.2-0.3-0.4-0.4
		c-0.4,0.3-0.7,0.8-0.8,1.3c0.2,0.6,0.7,1.2,1.2,1.5c0.6,0.5,3,3.3,4.2,4.3c2.4,1.5,4.9,2.7,7.6,3.4c1.4,0.2,4.4,0.4,5.1,0.4
		c0.9,0.1,1.9,0.1,2.8-0.1c0.3-0.2,0.5-0.8,0.8-1S161.3,163.9,160.9,163.6z"/>
	<path class="st17" d="M150.8,188.4c-0.3,0.2-1.3,0.4-1.6,0.9s-1,1.1-0.1,1.4c1.1,0.1,2.2-0.3,3-1c0.6-0.6,1.1-1.5,0.8-2
		S152,187.6,150.8,188.4z"/>
	<path class="st17" d="M145,196c-0.6,0-1.2-0.6-1.5-0.5c-0.4,0.4-0.5,1-0.3,1.5c0.2,0.7,0.8,2.1,1.2,2.2s1.5-0.9,1.8-1.3
		S147.2,196,145,196z"/>
	<path class="st17" d="M161.4,159.1c0-0.3-0.6-0.3-1.1-0.2c-0.4,0-0.9,0-1.3-0.1c-2.2-0.2-4.4-0.7-6.4-1.4c-2.1-0.6-3.4-3.7-3.6-4.2
		s-0.4-0.5-1.1-0.6c-1.2-0.3-2.3-0.8-3.2-1.5c-0.5-0.5-2.9-0.6-3.7-0.4s0.2,3.2,0.2,3.2s0.5,0.5,0.8,0.7c1.4,1.6,2.9,3,4.6,4.2
		c2.6,1.7,9.7,2.6,10.4,2.6s3.6,0.2,4-0.1S161.4,159.4,161.4,159.1z"/>
	<path class="st17" d="M167.7,178.5c-0.1,0.3,0.1,0.8,0.5,0.8c0.5,0,1,0.2,1.4,0.5c0.8,0.4,1.7,0.6,2.6,0.7c0.8,0,0.1-0.8-0.3-1.1
		c-0.6-0.5-1.4-0.8-2.1-1c-0.3-0.1-0.5-0.2-0.8-0.4C168.4,177.9,167.9,178,167.7,178.5z"/>
	<path class="st17" d="M169.3,161.2c0.4,0.3,3.3,0.1,4,0.1s7.8-1,10.4-2.6c1.7-1.2,3.3-2.6,4.6-4.2c0.2-0.2,0.8-0.7,0.8-0.7
		s1-2.9,0.2-3.2s-3.2-0.1-3.7,0.4c-1,0.7-2.1,1.2-3.2,1.5c-0.8,0.1-1,0.1-1.1,0.6s-1.5,3.5-3.6,4.2s-4.2,1.1-6.4,1.4
		c-0.4,0.1-0.9,0.2-1.3,0.1c-0.4-0.1-1.1-0.1-1.1,0.2S168.9,160.9,169.3,161.2z"/>
	<path class="st17" d="M190.5,155.7c-0.2,0-0.4,0.2-0.4,0.4c-1.7,1.7-3.5,3.3-5.5,4.7c-1.8,1.2-6.9,2.1-9.3,2.4s-5.4,0.3-5.8,0.5
		s-0.3,1.8,0,2s0.6,0.8,0.8,1c0.9,0.1,1.9,0.2,2.8,0.1c0.8,0,3.8-0.2,5.1-0.4c2.7-0.8,5.3-1.9,7.6-3.4c1.2-1,3.5-3.8,4.1-4.3
		c0.6-0.4,1-0.9,1.2-1.5C191.1,156.5,190.9,156,190.5,155.7z"/>
	<path class="st17" d="M172,156.5c1.6-0.1,3.1-0.4,4.5-1c1.5-0.7,2.6-2,3.2-3.6c0-0.2-1.9-0.3-2.4-0.3c-0.9-0.3-1.8-0.5-2.7-0.7
		l-2,0.4c-0.9,0.2-1.5,1.5-1.9,2.1s-1.3,0.9-1.3,1.3s-0.3,1.5-0.1,1.7C170.1,156.6,171.1,156.6,172,156.5z"/>
	<path class="st17" d="M178.2,189.8c0.8,0.7,1.9,1.1,3,1c0.9-0.3,0.3-0.8-0.1-1.4s-1.3-0.7-1.6-0.9c-1.2-0.8-1.8-1.1-2.1-0.7
		S177.5,189.2,178.2,189.8z"/>
	<path class="st13" d="M197.1,147.6c-0.4-0.7-1.1-1.1-1.9-1c-1.1,0-4.1,1.6-4.5,1.7s-3.7-0.2-4.6,0c-1,0.1-2,0-3-0.3
		c-0.1-0.2,0.3-2.7,0.3-3s-1.4-0.3-2-0.2s-0.5,2.8-0.5,3.7s-1.2,0.5-2.3,0.4s-5.6-0.4-8.1-0.3h-0.7h0.1c0.4,0,0.8-0.8,0.4-0.9
		s-2.9-0.1-3.2-0.2c-0.6-0.1-1.2-0.2-1.9-0.2h-0.1c-0.6,0-1.3,0.1-1.9,0.2c-0.4,0.1-2.7,0.1-3.2,0.2s0,0.9,0.4,0.9h0.1h-0.7
		c-2.4,0-6.9,0.3-8.1,0.3s-2.3,0.5-2.3-0.4s0-3.6-0.5-3.7s-1.9-0.1-2,0.2s0.4,2.8,0.3,3c-1,0.4-2,0.5-3,0.3c-0.8-0.2-4.2,0.1-4.6,0
		s-3.4-1.7-4.5-1.7c-0.8-0.1-1.5,0.3-1.9,1c-0.2,0.7,0,1.4,0.5,1.9c0.5,0.6,1.5,4.6,2,5.4s3.3,4.7,3.8,5.5s3.3,4.3,5.6,5.6
		s5.9,2.8,7.5,2.9c1.3,0,2.6,0.1,3.9,0.2c1,0.3,2,0.4,3,0.4c0.4-0.2,0.5,0.6,0.9,0.8c0.3,0.1,0.5,0.5,0.4,0.9c0,0.1-0.1,0.2-0.1,0.2
		c-0.6,0.7-1.4,1.1-2.3,1.1c-1.3,0-7.8,0.6-10.3-0.2s-6.6-2.9-6.9-3.4s-1.8-2.7-2.3-2.8s-0.9,0.8-0.8,1.3c1.1,1.7,2.5,3.3,4,4.7
		c1.6,1.1,3.3,1.9,5.2,2.5c1.4,0.3,3.2,0.7,4,0.8s4.1,0.1,4.5,0.1s2.9-0.4,3.6-0.4s2.1,0.1,2.1,0.5s-1.1,0.8-2.5,1.4s-4,1-4.6,1.2
		c-1.2,0.6-2.4,1-3.7,1.3c-1.4,0.1-6.4,0-7.7-0.8c-1.5-1-2.7-2.3-3.6-3.8c-0.1-0.5-0.5-1.7-0.8-1.5s-0.2,1.8,0.1,2.4
		c1,1.6,2.1,3,3.2,4.5c0.5,0.5,2.2,1.7,2.9,1.7c0.9,0,1.7,0,2.6,0.1c1.1,0,2.2-0.1,3.3-0.4c0.8-0.2,3.4-0.8,3.8-0.6
		c0.7,0.4,1,1.2,0.6,1.9c0,0,0,0.1-0.1,0.1c-0.6,0.8-4.1,2.7-4.6,2.8s-2.6,1.2-3.4,1.2s-4.3-1.2-5.3-2.3c-0.7-1-1.3-2-1.8-3.2
		c-0.1-0.4-0.6-0.4-0.6,0.1c0.2,1.2,0.6,2.4,1.2,3.5c0.6,0.7,1.6,2.8,2.2,3.1s3.4,1.3,4,1.6c0.6,0.4,0.9,1.1,0.9,1.8
		c-0.4,0.9-1.1,1.6-2,1.9c-0.6,0.1-2.7,0-2.9-0.6s-1.4-2.8-1.4-3s-0.1-1-0.3-0.9s0.4,2.5,0.4,2.9s1.3,2.5,1.3,2.8s-0.9,0.3-0.9,0.8
		c0.3,1.3,0.8,2.5,1.4,3.7c0.4,0.6,1.3,2.6,1.3,2.6s0.9,2.3,1.3,2.3s0.1-2,0.3-2.3s1.2-0.9,1.4-1.2c0.5-0.7,0.9-1.5,1.2-2.3
		c0.1-0.7,0.9-2.8,1.8-3.3s4.6-4.5,4.9-4.8c0.3-0.3,0.4-0.8,0.4-1.3s-0.3-3.1,1.1-4c1.2-0.9,2.4-1.7,3.7-2.4c0.7-0.1,1.4-0.4,2-0.8
		c0.3-0.3,1.2-1.5,1.4-1.2c0.4,0.3,0.8,0.6,1.2,0.8h0.1c0.4-0.2,0.8-0.5,1.1-0.8c0.2-0.3,1.1,0.9,1.4,1.2c0.6,0.4,1.3,0.6,2,0.8
		c1.3,0.7,2.6,1.5,3.7,2.4c1.4,0.9,1.1,3.6,1.1,4c-0.1,0.5,0.1,0.9,0.4,1.3c0.3,0.3,4,4.2,4.9,4.8s1.7,2.6,1.8,3.3
		c0.3,0.8,0.7,1.6,1.2,2.3c0.1,0.2,1.2,0.8,1.4,1.2s-0.1,2.3,0.3,2.3s1.3-2.3,1.3-2.3s0.9-1.9,1.3-2.6c0.6-1.2,1.1-2.4,1.4-3.7
		c0-0.5-0.9-0.5-0.9-0.8s1.2-2.4,1.3-2.8s0.6-2.8,0.4-2.9s-0.3,0.6-0.3,0.9s-1.2,2.5-1.4,3s-2.3,0.6-2.9,0.6c-0.9-0.4-1.6-1.1-2-1.9
		c0-0.7,0.3-1.4,0.9-1.8c0.6-0.4,3.4-1.4,4-1.6s1.6-2.3,2.2-3.1c0.6-1.1,1-2.3,1.2-3.5c0-0.5-0.5-0.4-0.7-0.1
		c-0.4,1.1-1,2.2-1.8,3.2c-1,1.2-4.5,2.3-5.3,2.3s-2.8-1.1-3.4-1.2s-4-1.9-4.6-2.8c-0.4-0.7-0.2-1.5,0.4-1.9c0,0,0.1,0,0.1-0.1
		c0.4-0.2,3,0.4,3.8,0.6c1,0.2,2.1,0.4,3.2,0.4c0.9-0.1,1.7-0.1,2.6-0.1c0.6,0,2.4-1.2,2.9-1.7c1.2-1.4,2.2-2.9,3.2-4.5
		c0.3-0.7,0.5-2.2,0.1-2.4s-0.8,1-0.8,1.5c-1,1.5-2.2,2.8-3.6,3.8c-1.4,0.8-6.4,0.9-7.7,0.8c-1.3-0.3-2.5-0.7-3.7-1.3
		c-0.6-0.2-3.2-0.7-4.6-1.2s-2.4-1.1-2.5-1.4s1.5-0.5,2.1-0.5s3.2,0.3,3.5,0.4s3.7,0,4.5-0.1s2.6-0.5,4-0.8c1.8-0.6,3.6-1.4,5.2-2.5
		c1.5-1.4,2.9-2.9,4-4.7c0.1-0.6-0.2-1.4-0.7-1.3s-2,2.3-2.3,2.8s-4.4,2.6-6.9,3.4s-9,0.2-10.3,0.2c-0.9,0-1.7-0.4-2.3-1.1
		c-0.3-0.3-0.2-0.7,0-0.9c0.1-0.1,0.1-0.1,0.2-0.1c0.4-0.2,0.6-1,0.9-0.8c1,0,2-0.1,3-0.4c1.3-0.2,2.6-0.2,3.9-0.2
		c1.6-0.1,5.3-1.6,7.5-2.9s5-4.9,5.6-5.6s3.4-4.7,3.8-5.5s1.5-4.7,2-5.4C197.1,149.1,197.2,148.3,197.1,147.6z M146,198
		c-0.3,0.4-1.4,1.4-1.8,1.3s-1-1.5-1.2-2.2c-0.2-0.5-0.1-1.1,0.3-1.5c0.3-0.2,0.9,0.5,1.5,0.5C147.2,196,146.3,197.6,146,198z
		 M152.1,189.7c-0.8,0.7-1.9,1.1-3,1c-0.9-0.3-0.3-0.8,0.1-1.4s1.3-0.7,1.6-0.9c1.2-0.8,1.8-1.1,2.1-0.7S152.8,189.2,152.1,189.7
		L152.1,189.7z M153,151.6c0.9-0.3,1.8-0.5,2.7-0.7l2.1,0.4c0.9,0.2,1.5,1.5,1.9,2.1s1.3,0.9,1.3,1.3s0.3,1.5,0.1,1.7
		c-1,0.2-1.9,0.2-2.9,0.1c-1.6-0.1-3.1-0.4-4.5-1c-1.5-0.7-2.6-2-3.2-3.6C150.7,151.7,152.5,151.6,153,151.6L153,151.6z
		 M160.9,165.7c-0.3,0.2-0.5,0.8-0.8,1c-0.9,0.1-1.9,0.2-2.8,0.1c-0.8,0-3.8-0.2-5.1-0.4c-2.7-0.8-5.3-1.9-7.6-3.4
		c-1.2-1-3.5-3.8-4.2-4.3c-0.6-0.4-1-0.9-1.2-1.6c0.1-0.5,0.3-1,0.8-1.3c0.2,0,0.4,0.2,0.4,0.4c1.7,1.7,3.5,3.3,5.5,4.7
		c1.8,1.2,6.9,2.1,9.3,2.4s5.4,0.3,5.8,0.5S161.2,165.4,160.9,165.7L160.9,165.7z M160.9,161.2c-0.4,0.3-3.3,0.1-4,0.1
		s-7.8-1-10.4-2.6c-1.7-1.2-3.3-2.6-4.6-4.2c-0.2-0.2-0.8-0.7-0.8-0.7s-1-2.9-0.2-3.2s3.2-0.1,3.7,0.4c1,0.7,2.1,1.2,3.2,1.5
		c0.8,0.1,1,0.1,1.1,0.6s1.5,3.5,3.6,4.2s4.2,1.1,6.4,1.4c0.4,0.1,0.9,0.2,1.3,0.1c0.4-0.1,1.1-0.1,1.1,0.2S161.4,160.9,160.9,161.2
		L160.9,161.2z M162.1,179.2c-0.5,0-1,0.2-1.4,0.5c-0.8,0.4-1.7,0.6-2.6,0.7c-0.7,0-0.1-0.8,0.3-1.1c0.6-0.5,1.4-0.8,2.1-1
		c0.3-0.1,0.6-0.2,0.8-0.4c0.3-0.2,1.1,0.1,1.2,0.4S162.5,179.3,162.1,179.2L162.1,179.2z M185.4,196c0.6,0,1.2-0.6,1.5-0.5
		c0.4,0.4,0.5,1,0.3,1.5c-0.2,0.7-0.7,2.1-1.2,2.2s-1.5-0.9-1.8-1.3S183.1,196,185.4,196z M177.4,187.8c0.3-0.4,0.9-0.2,2.1,0.7
		c0.3,0.2,1.3,0.4,1.6,0.9s1,1.1,0.1,1.4c-1.1,0.1-2.2-0.3-3-1C177.5,189.2,177.1,188.2,177.4,187.8L177.4,187.8z M169.2,154.8
		c0-0.4,0.9-0.7,1.3-1.3s1.1-1.9,1.9-2.1l2-0.4c0.9,0.2,1.8,0.4,2.7,0.7c0.6,0,2.4,0.1,2.4,0.3c-0.6,1.5-1.7,2.8-3.2,3.6
		c-1.5,0.6-3,0.9-4.5,1c-1,0.1-1.9,0.1-2.9-0.1C168.9,156.2,169.2,155.2,169.2,154.8L169.2,154.8z M169.6,178.5
		c0.8,0.2,1.5,0.5,2.1,1c0.4,0.3,1.1,1.1,0.3,1.1c-0.9-0.1-1.8-0.4-2.6-0.7c-0.4-0.3-0.9-0.4-1.4-0.5c-0.4,0.1-0.5-0.5-0.5-0.8
		c0.2-0.4,0.7-0.6,1.2-0.4C169.1,178.3,169.4,178.4,169.6,178.5L169.6,178.5z M168.9,159.2c0-0.3,0.6-0.3,1.1-0.2
		c0.4,0,0.9,0,1.3-0.1c2.2-0.2,4.4-0.7,6.4-1.4c2.1-0.6,3.4-3.7,3.6-4.2s0.4-0.5,1.1-0.6c1.2-0.3,2.3-0.8,3.2-1.5
		c0.5-0.5,2.9-0.6,3.7-0.4s-0.2,3.2-0.2,3.2s-0.5,0.5-0.8,0.7c-1.4,1.6-2.9,3-4.6,4.2c-2.6,1.7-9.7,2.6-10.4,2.6s-3.6,0.2-4-0.1
		S168.9,159.4,168.9,159.2L168.9,159.2z M189.9,158.6c-0.6,0.5-3,3.3-4.1,4.3c-2.4,1.5-4.9,2.7-7.6,3.4c-1.4,0.2-4.4,0.4-5.1,0.4
		c-0.9,0.1-1.9,0.1-2.8-0.1c-0.3-0.2-0.5-0.8-0.8-1s-0.4-1.8,0-2s3.4-0.2,5.8-0.5s7.5-1.2,9.3-2.4c2-1.4,3.8-2.9,5.5-4.7
		c0.1-0.2,0.2-0.3,0.4-0.4c0.4,0.3,0.7,0.8,0.8,1.3C190.9,157.7,190.5,158.2,189.9,158.6L189.9,158.6z"/>
	<path class="st13" d="M165,198.4c-1,0-3.1-0.1-3.4,0.2c-0.2,0.3-0.3,0.6-0.4,0.9c0,0-1.2-0.1-1.4,0.4s-0.3,1.3,0.1,1.5
		s1,0.2,1.1,0.6s0.1,1.6,0.4,1.7c0.8,0.2,1.7,0.3,2.6,0.3c1.1,0,4.6,0,4.7-0.1c0.2-0.1,0.3-0.4,0.4-0.6c0-0.3-0.1-1.3,0.4-1.3
		s1-0.1,1.1-0.5s0-1.7-0.3-1.8l-1.2-0.1c0,0-0.3-1.2-0.9-1.2S165.6,198.4,165,198.4z"/>
	<path class="st13" d="M164.4,205.7c-1.2,0-2.8,0.2-2.9,0.5s-0.1,0.6-0.3,0.6s-1.4,0.2-1.4,1.1s0.1,1.2,0.5,1.3s0.8,0.3,0.9,0.8
		s0.2,1.2,0.8,1.2s3.7,0.1,4.2,0.1c0.8,0.1,1.6,0.1,2.3,0c0.3-0.1,0.3-0.4,0.4-0.8s-0.1-0.6,0.1-0.8s1.2-0.9,1.2-1.5
		s-0.9-1.3-1.2-1.5s-0.3-0.7-0.9-0.8C166.9,205.8,165.6,205.7,164.4,205.7z"/>
	<path class="st13" d="M164.5,213.4c-1.3,0-2.1,0.1-2.4,0.4c-0.1,0.2-0.3,0.4-0.3,0.7c0,0-1.6,0.3-1.8,0.7s-0.4,1.4,0,1.6
		s1,0.1,1.1,0.4s0,1.4,0.3,1.5c0.9,0.2,1.7,0.3,2.6,0.3c0.9,0,3.6,0,3.9,0c0.4,0,0.7-0.3,0.7-0.7c0.1-0.5,0-1.4,0.5-1.4
		s0.9-0.1,0.9-0.7s-0.3-1.2-0.9-1.6c-0.5-0.1-0.5-1.2-1.2-1.3S164.5,213.4,164.5,213.4z"/>
	<path class="st13" d="M165,220.9c-0.7,0-2.6-0.1-2.8,0.2s-0.1,0.8-0.4,0.9s-1.7,0.1-1.7,0.7s0,1.6,0.4,1.7s1.2-0.1,1.2,0.3
		c-0.1,0.5-0.1,1-0.1,1.5c0.1,0.4,0.5,0.7,0.9,0.8c0.5,0,5.5,0,5.8,0s0.3-0.2,0.3-0.5s-0.3-1.7,0-1.8s1.1-0.1,1.1-0.6s0-1.5-0.4-1.7
		s-0.7-0.2-0.9-0.5s-0.4-0.8-0.8-0.8L165,220.9z"/>
	<path class="st18" d="M146.2,260.9c-0.9,0.1-1.7,0.6-2.2,1.3c-0.3,0.5-0.6,1-0.8,1.6c0,0.2-0.4,0.6-0.2,0.9s0.4,0.6,0.2,0.7
		s-0.8,0.4-0.9,0.2s-0.5-2.4-1.2-2.4c-0.9,0.1-1.7,0.6-2.3,1.4c-0.5,0.8-1.4,1.3-1.6,3c-0.2,2-0.1,3.9,0.1,5.9
		c0.2,0.5,1.6,0.6,2.1,1.7s6.5,26.7,6.8,28.6s3.9,21.3,4,22.3c0.2,1.5,0,3.1-0.4,4.6c-0.5,1.2-0.7,2.5-0.7,3.8
		c0.2,0.7,0.8,2.5,1,3.1s0.7,1.2,1.2,1.2c0.6,0,1.1-0.2,1.6-0.4c0.4-0.2,3.4-1.5,4.4-1.3s2,0.3,3.1,0.2c1-0.1,1.9-0.5,2.6-1.1
		c0.6-0.6,0.6-1.6,0.4-3c-0.2-1.4-0.4-2.9-0.9-4.2c-0.4-0.6-1-1.1-1.7-1.3c-1.2-0.3-2.3-1.1-2.9-2.1c-2.1-4.5-3.6-9.2-4.7-14
		c-1.1-5.5-4.6-21.4-5.2-25.7s-1.1-9.7-1.1-9.7c0.7-0.6,1.4-1.2,1.9-2c0.2-0.5,0.3-1.6-0.3-2c-0.5-0.3-1.1-0.5-1.6-0.5
		c-0.2,0-0.3-0.9,0-1.2c0.3-0.4,0.7-0.6,1.1-0.8c0.3,0,1.4,0.2,1.8-0.1c0.8-0.8,1.5-1.7,2-2.7c-0.3-1.6-1-3.1-2.2-4.2
		C148.7,261.7,147.5,261.2,146.2,260.9z"/>
	<path class="st18" d="M155.8,340.3c-0.9,0-3.2-0.8-4.3-0.5s-1.4,2.1-1.3,2.9c0.4,1.3,1.2,2.4,2.2,3.3c1.9,1.7,3.1,4.2,3.3,6.8
		c0.4,3.7,2.5,18.9,2.6,20.4s1.8,14.9,1.6,15.4s-1,1-1,1.9s0.2,2.3,0.1,3.1s-0.6,3.9,0.3,4.2c1.1,0.3,2.2,0.3,3.3,0.1
		c0.9-0.1,1.7-0.2,2.6-0.1c0.4,0,0.9,1.6,1.4,2s1.2,0.3,1.7-0.1c0.4-0.4,0.4-1.3,0.4-2c-0.1-1.2-0.4-2.5-0.6-3.7
		c-0.2-0.3-0.8-1.2-1.5-2.4s-1.8-2.3-1.9-3.1s-3.1-29.3-3.4-31.3s-0.5-8.3,0.1-9.6s2.6-4.6,2.6-5.5s0.1-2.7-1-3.2
		c-0.7-0.4-1.5-0.5-2.2-0.3c-0.6,0.1-1.3,0.2-1.4,0.2S155.8,340.3,155.8,340.3z"/>
	<path class="st19" d="M155.4,334.7c-0.9,0.3-1.8,0.9-2.3,1.8c-0.5,1-0.8,2.1-0.8,3.2c0.7,0.9,1.6,1.6,2.6,2.2
		c0.6,0.5,1.4,0.7,2.1,0.8c0.7-0.1,1.9-1.6,2.1-2.2c0.4-0.7,0.8-1.4,1-2.2c0.1-0.8-0.3-1.6-1-2C157.9,335.4,156.6,334.5,155.4,334.7
		z"/>
	<path class="st13" d="M157.4,412.5c0,0-0.6,0.4-0.7,0.8c-0.1,0.7,0,1.5,0.4,2.2c0.8,1.3,1.4,2.7,1.9,4.1c0.1,0.6,0.4,3.5,0.5,3.8
		s1.2-0.1,1.5-0.3s-0.3-1.9-0.7-2.9c-0.6-1.3-1-2.7-1.3-4.1c-0.1-0.6-0.1-1.7-0.2-2.2S158,412.2,157.4,412.5z"/>
	<path class="st13" d="M158.8,413.4c-0.5,0.3-0.8,0.6-0.8,1s0.9,1.6,1,2s1.2,4.2,1.3,4.7c0.4,1,0.7,1.9,0.9,2.9
		c0,0.4,0.4,0.8,0.8,0.7c0.1,0,0.1,0,0.2,0c0.5-0.1,0.8-1.3,0.7-2s-1.2-7-1.2-7l-0.6-2.5C160.3,413.1,159.5,413.1,158.8,413.4z"/>
	<path class="st13" d="M161,398.4c-0.5,0.1-1.5,0.6-1.5,1.4s0.4,2.8,1,3.3c0.5,0.6,0.9,1.3,1.1,2c0.1,0.4,1.3,0.7,2,0.6
		s2.2-0.3,2.6-0.2c0.8,0.1,1.7,0.2,2.5,0.1c0.1-0.2-0.2-3.6-0.1-4c0-0.8-0.3-1.6-0.8-2.1c-0.7-0.6-1.1-1.6-1.9-1.6
		c-0.7-0.1-1.4,0.1-2,0.4C162.6,398.8,161.5,398.2,161,398.4z"/>
	<path class="st13" d="M167.5,409.1c-0.6,0.1-1.2,0.2-1.7,0.4c-0.3,0.4-0.5,0.9-0.4,1.4s0.1,1.9,0.2,2s0.4,0.5,1.3,0.4
		s1.5-0.1,2.1-0.1s1.3,0.1,1.4-0.1c0.1-0.7,0.1-1.3,0-2c-0.2-0.5-0.6-0.8-0.9-1.1s-0.2-0.5-0.4-0.8s-1.1-0.2-1.3-0.2L167.5,409.1z"
		/>
	<path class="st13" d="M163.6,408.5c-0.4,0.1-1.4,0.2-1.5,0.4c-0.1,0.8-0.1,1.7-0.1,2.5c0.1,0.8-0.2,1.8,0.4,1.7s1.4-0.4,1.8-0.3
		c0.3,0.1,0.7,0.2,1,0.1c0.2-0.1,0.3-0.1,0.3-0.5s-0.2-2.9-0.2-3.1s-0.1-0.5-0.3-0.6C164.7,408.5,164.1,408.4,163.6,408.5z"/>
	<path class="st13" d="M158.6,406.4c-0.4,0.2-0.6,0.6-0.6,1c0,0.6-0.3,3.3-0.3,3.7s-0.5,1.1-0.3,1.7c0.3,0.5,0.8,0.7,1.4,0.7
		c0.4-0.1,0.6-0.3,0.7-0.7c0-0.3,0.3-2.9,0.2-3.2s0-1.5,0.4-1.5s1.1-0.4,1.1-0.7s-0.2-1.5-0.7-1.5
		C159.9,406,159.3,406.1,158.6,406.4z"/>
	<path class="st13" d="M159.5,402.8c-0.5,0-1.4,1.6-1.4,2s-0.2,1.9,0.2,2s1.2-0.3,1.9-0.2s0.9,0,0.9-0.1c0.3-0.3,0.5-0.8,0.5-1.2
		c-0.1-0.7-0.4-1.3-0.8-1.8c-0.3-0.3-0.3-0.4-0.5-0.6S159.5,402.8,159.5,402.8z"/>
	<path class="st13" d="M161,407.6c-0.3,0-0.6,0-0.9,0.1c-0.5,0.2-0.9,0.7-0.9,1.2c0,0.7,0.3,1.6,0.2,1.9c-0.2,0.5-0.2,1-0.2,1.6
		c0.1,0.2,0.4,1.3,0.9,1.5c0.5,0.1,0.9,0.2,1.4,0.1c0.2,0,0.7,0,0.7-0.2s-0.1-1-0.1-1.2s-0.3-2.1-0.2-2.3c0.1-0.6,0.1-1.1,0.1-1.7
		C162,408.4,161.2,407.5,161,407.6z"/>
	<path class="st13" d="M163.2,405.9c-0.4,0-1.5-0.1-1.9,0.1s-0.5,1.2-0.4,1.6c0.2,0.5,0.7,0.9,1.2,0.9c0.7,0,1.7-0.1,2.1,0
		s1,0.6,1.3,0.7s0.6,0,1.4-0.1s1.9,0.2,2.2,0c0.4-0.4,0.6-1,0.6-1.6s-0.2-1.7-1.1-1.7s-2.4,0-2.8,0S163.2,405.9,163.2,405.9z"/>
	<path class="st13" d="M166.1,413.5c-0.3,0-0.4,1.5-0.1,1.9c0.7,1,1.3,2.1,1.7,3.3c0,0.5,0.1,3.1,0.1,3.5s-0.4,1.4-0.1,1.7
		s1.3,0.1,1.8,0s1.1-0.3,1.1-0.7s-0.6-1.3-0.6-1.9s-0.4-4-0.3-4.6c0.2-1,0.4-2.1,0.5-3.1c-0.1-0.2-1.9-0.2-2.6-0.1
		S166.1,413.5,166.1,413.5z"/>
	<path class="st13" d="M163.4,413.1c-0.3,0-1.1,0.4-1.1,0.6c0.2,0.9,0.5,1.7,1,2.4c0.4,0.4,0.7,0.8,1,1.2c0.4,0.5,1.1,4.2,1.2,5
		s-0.3,1.8,0.2,2s1.2,0.4,1.3,0s-0.4-1.8-0.4-2.5s-0.6-5.7-0.7-5.9s-0.2-1.5-0.2-2S165.4,412.9,163.4,413.1z"/>
	<path class="st13" d="M161.3,414c-0.5,0.2-0.8,0.7-0.7,1.2s1,1.3,1,1.7s0.4,3.4,0.6,4.1c0.3,0.8,0.6,1.7,0.9,2.5
		c0.1,0.7,0.3,1.4,0.8,1.4s1.1-0.1,1.1-0.5s-0.6-2-0.6-2.6s-0.5-4-0.5-4.4s-0.5-1.7-0.6-2.2S162.9,413.7,161.3,414z"/>
	<path class="st13" d="M168.4,423.9c-0.5,0.1-0.9,0.4-0.8,0.8c0.3,0.6,0.6,1.2,0.8,1.8c0.1,0.6,0.1,1.3,0,1.9
		c-0.1,0.2-0.5,0.6-0.1,0.8s1.9,0.4,2,0.1s-0.2-0.6-0.2-1c0-1,0.1-2,0.3-2.9c0.2-0.4,0.3-1.5-0.4-1.6
		C169.4,423.7,168.9,423.8,168.4,423.9z"/>
	<path class="st13" d="M166,424.2c-0.3,0-0.8,0.5-0.7,0.8c0.3,0.4,0.6,0.9,0.9,1.4c0.1,0.7,0.2,1.4,0.1,2.1
		c-0.1,0.1-0.1,0.5,0.4,0.5s1.1,0,0.9-0.4c-0.2-0.7-0.3-1.4-0.3-2.1c0-0.5-0.1-1.3-0.1-1.6S166.8,424.1,166,424.2z"/>
	<path class="st13" d="M163.8,425c-0.3,0-0.6,0.3-0.4,0.6c0.3,0.6,0.4,1.3,0.6,2c0,0.4,0.1,1.3,0.4,1.2s1.1,0.1,1.1-0.3
		c-0.1-0.6-0.3-1.2-0.3-1.9c0-0.5,0.2-1.5-0.3-1.7C164.5,424.9,164.1,424.9,163.8,425z"/>
	<path class="st13" d="M162.2,424.6c-0.5,0.1-0.7,0.5-0.6,0.8c0.3,0.6,0.4,1.2,0.6,1.8c0,0.3,0.3,2,0.8,2s0.8-0.4,0.8-0.8
		c0-0.1,0-0.2,0-0.2c-0.1-0.7-0.7-2.1-0.6-2.5S162.8,424.4,162.2,424.6z"/>
	<path class="st13" d="M159.8,423.5c-0.4,0.1-0.2,0.8,0,1c0.3,0.5,0.6,1,0.7,1.6c0.1,0.4,0.8,2.4,1,2.9s0.6,1.1,0.9,1.1
		c0.4,0,0.7-0.3,0.7-0.7c0-0.1,0-0.1,0-0.2c-0.2-0.6-1.3-3.8-1.3-4.2s-0.3-1.6-0.6-1.7C160.6,423.3,160.2,423.3,159.8,423.5z"/>
	<path class="st13" d="M169.1,429.3c-0.5,0-1.2,0.1-1.2,0.3s0.5,1.3,0.6,1.6s-0.2,2.1,0.1,2.1s1,0.1,1-0.1s0.1-1,0.1-1.5
		c0-0.4,0.1-0.9,0.4-1.2C170.2,430.2,170.3,429.2,169.1,429.3z"/>
	<path class="st13" d="M166.7,429c-0.4,0.1-0.6,0.6-0.4,0.9c0.1,0.5,0.5,2.1,0.5,2.4s0.1,2.1,0.6,2.1s0.3-1.7,0.3-2.1s0-1.6,0-2.1
		S167.4,428.8,166.7,429z"/>
	<path class="st13" d="M164.9,429c-0.4,0-0.6,0.4-0.4,0.8c0.3,0.5,0.5,0.9,0.8,1.5c0,0.3,0.3,2.6,0.6,2.7s0.4-0.4,0.4-1
		s-0.2-1.8-0.3-2.3S166.2,428.9,164.9,429z"/>
	<path class="st13" d="M163.5,429.2c-0.3,0.3-0.4,0.8-0.2,1.2c0.3,0.4,0.6,2,0.8,2.1s0.9,0.1,0.8-0.3s-0.8-1.9-0.9-2.3
		S164.3,428.8,163.5,429.2z"/>
	<path class="st18" d="M179.2,259c-1,1.3-1.8,2.7-2.4,4.2c-0.3,0.8,0.9,2.2,1.4,2.5c0.8,0.2,1.6,0.3,2.5,0.4
		c0.9,0.4,1.6,0.9,2.2,1.7c0.2,0.4-0.4,1-0.7,1.3c-0.3,0.5-0.3,1.1-0.1,1.7c0.2,0.5,1.1,0.8,1.2,1.3c-0.1,3.3-0.4,6.6-1,9.8
		c-0.6,3-8.1,30-8.8,32s-2.7,7.6-3.7,8.5c-0.9,0.7-1.9,1.1-3,1.3c-0.6,0.1-2,1.8-2.4,3.6c-0.3,1.5-0.3,3,0,4.5
		c0.2,0.3,0.1,0.4,0.7,0.4s3.2-0.7,3.9-0.1c0.9,0.9,1.9,1.6,3,2.2c1.5,0.7,2.4,1.1,3.8,0.9s2-1.5,2.4-2.4c0.5-0.8,0.7-1.7,0.8-2.7
		c-0.1-0.9-1.7-3.4-1.6-4.6s3.4-16.1,4-18.4s8.8-33.2,9-33.7s0.3-1.6,0.9-1.9s2-2.2,1.5-5.6s-2.2-5.6-2.7-5.7s-0.7,0.5-0.9,0.9
		s-0.6,1.2-0.9,1.3c-0.7,0.1-1.4,0-2-0.2c-0.7-0.6-1.2-1.4-1.5-2.3c0-0.5-0.8-2.7-2.6-2.6S179.9,258.2,179.2,259z"/>
	<path class="st13" d="M175.2,402.9c-0.7-0.1-1.3-0.4-1.5,0c0,0.7,0,1.4,0.1,2.1c0,0.4-0.1,3.6-0.1,3.9s0.7,0.5,1.4,0.5
		s2.2,0.3,2.3-0.2c0.2-0.9,0.3-1.7,0.4-2.6c0.1-0.8,0.1-1.7,0.1-2.5c-0.3-0.7-0.9-1.3-1.6-1.5C175.9,402.6,175.5,402.7,175.2,402.9z
		"/>
	<path class="st13" d="M168.9,394.4c-0.4,0.5-1,2-1.4,2.4c-0.6,0.8-1.1,1.7-1.2,2.7c0,0.8-0.6,2.3,0.1,2.5c1.3,0.1,2.5,0.1,3.8,0
		c1.1,0,2.1,0.2,3.1,0.5c0.7,0.2,1.5,0.3,2.2,0.4s1.3,0.4,1.9,0.8c0.1,0.3,0.2,1.3,0.5,1.1s0.4-0.9,0.4-1.4
		c-0.1-0.9,0.2-1.7,0.6-2.4c0.8-1.3,1.3-2.6,1.5-4.1c0-1.1-0.1-2.2-0.4-3.3c-0.2-0.8-0.8-1.4-1.6-1.7c-0.6,0-1.2,0.3-1.7,0.6
		c-0.3,0.3-2.5,2.2-3.2,2.3s-1.8-0.1-2.2-0.1S169.1,394.2,168.9,394.4z"/>
	<path class="st13" d="M165.6,403c-0.3,0.6-0.5,1.3-0.5,2c-0.1,0.5,1,0.5,1.4,0.7s1.5-0.4,2.1-0.5s1.4,0,2.1-0.1
		c0.9-0.3,1.7-0.7,2.5-1.1c0.2-0.1,0.7-0.1,0.7-0.6s-0.4-0.8-1.1-1.1c-0.9-0.2-1.8-0.3-2.7-0.3c-0.8,0-1.6,0.2-2.4,0.1
		C166.9,402.1,166.2,402.4,165.6,403z"/>
	<path class="st13" d="M165.7,405.1c-0.5-0.1-0.8,0.6-1,1.1s-0.7,2-0.7,2.4c-0.1,0.4,0.2,0.8,0.6,0.8h0.1c0.6,0.1,1.3,0.3,1.9,0.4
		s0.5-0.5,0.6-1.2c0.1-0.9,0.1-1.8,0.1-2.6C167.4,405.6,166.3,405.2,165.7,405.1z"/>
	<path class="st13" d="M168.2,408.9c0.6,0.1,1.1,0.1,1.7,0.1c0.4-0.1,0.8,0.2,0.8-0.5s0.1-2,0.1-2.4s0.5-1.2-0.1-1.2
		c-0.9-0.1-1.8,0-2.7,0.2c-0.4,0.3-0.7,0.8-0.6,1.3c0,0.9-0.2,2.4,0.2,2.5C167.8,409,168,408.9,168.2,408.9z"/>
	<path class="st13" d="M171,409.4c0.6,0.1,1.2,0.2,1.9,0.2c0.4,0,0.7-0.1,1-0.3c0.2-0.3,0.1-2.5,0.2-3s0.2-1.9-0.1-2.1
		s-0.1-0.6-0.8-0.3s-1.4,1-1.7,1.1s-0.6,1.8-0.6,2.2S170.4,409.3,171,409.4z"/>
	<path class="st13" d="M165.2,409.3c-0.5-0.1-1,0.3-1.1,0.9s0.1,4.2,0,4.8s-1.5,3.9-1.2,4.4c0.2,0.4,0.7,0.7,1.2,0.7s1-0.1,1.5-0.1
		c0,0,0.4-3.9,0.4-4.3s0.7-3,0.8-3.7s0.6-1.8,0.1-2C166.3,409.6,165.7,409.4,165.2,409.3z"/>
	<path class="st13" d="M167.9,409c-0.3,0-0.4,0.7-0.4,1.1s-0.1,5-0.1,5.5s-0.9,4-0.9,4.2s1.2,0.2,1.2,0.2s0.5-2.2,0.6-2.6
		c0.2-1.1,0.5-2.2,0.8-3.3c0.2-0.7,0.3-1.3,0.5-2c0.1-0.3,1.4-2.9,1-3.1C169.6,409,168.7,409,167.9,409z"/>
	<path class="st13" d="M170.9,409.6c-0.2-0.1-1,1.5-1,2.1s-0.2,4.4-0.3,4.8s-0.8,3.6-0.8,3.8s0.9,0.2,0.9,0.2s0.3-1.6,0.4-2.1
		c0.3-1.1,0.6-2.2,1.1-3.2c0.3-0.5,0.9-2.7,1.2-3.2s1-1.9,0.8-2.1C172.5,409.8,171.7,409.7,170.9,409.6z"/>
	<path class="st13" d="M174.2,409.7c-0.6,0.2-1.1,0.7-1.1,1.3c-0.1,0.8-0.6,3.9-0.7,4.6s-0.9,4.2-0.9,4.5s0.6,0.5,0.8,0.5
		c0.4-0.6,0.7-1.2,0.8-1.9c0.1-0.5,0.6-4.1,1.1-4.7c0.7-1,1.4-2.1,2-3.3c0.2-0.4,0.1-0.9-0.5-1S174.2,409.7,174.2,409.7z"/>
	<path class="st13" d="M177.9,408.9c-0.6,0.4-1.1,0.9-1.5,1.5c-0.4,0.9-0.8,1.9-1,2.8c-0.2,1.7-0.6,3.4-1.1,5.1
		c-0.2,0.4-1,1.1-0.6,1.4s1-0.4,1.3-1s1.2-3.6,1.6-4c0.8-1.1,1.5-2.2,2-3.4C179,410.4,178.9,408.9,177.9,408.9z"/>
	<path class="st13" d="M162.7,420.1c0,0.5,0.2,1.1,0.3,1.6c0.1,0.7,0,1.3-0.1,2c-0.1,0.2-0.4,2.7-0.1,3.2s1.2,0.2,1.2,0.2
		c0.2-0.5,0.4-0.9,0.6-1.4c0.1-0.4-0.3-1.8-0.3-2.3s0.5-2,0.6-2.4s0.2-0.7-0.4-0.9C164,420.1,163.3,420,162.7,420.1z"/>
	<path class="st13" d="M166.5,420.3c-0.2,0-0.5,0.5-0.5,1.5c0,0.9-0.2,1.8-0.3,2.7c-0.1,0.3,0.1,0.7,0.5,0.8h0.1
		c0.4,0,0.7-0.5,0.8-1.3s0.4-2,0.5-2.4S168.6,420.5,166.5,420.3z"/>
	<path class="st13" d="M169,420.7l-0.3,1.5c-0.1,0.3-0.8,2.5-0.6,2.8s0.7,0.5,0.8,0.3s0.3-1.3,0.6-1.8s0.8-2.4,0.6-2.6
		C169.7,420.8,169.4,420.7,169,420.7z"/>
	<path class="st13" d="M171.3,420.6c-0.2,0-0.6,1.8-0.7,2.1s-0.4,1.5-0.3,1.5s0.5,0.1,0.8-0.7c0.4-0.8,0.8-1.6,1.1-2.4
		C172.4,420.8,171.9,420.6,171.3,420.6z"/>
	<path class="st13" d="M173.6,420.1c-0.8,1-1.4,2.1-1.7,3.4c0,0.2,0.2,0.3,0.4,0.3c0.1,0,0.1-0.1,0.2-0.1c0.2-0.3,0.9-1.3,1.2-1.6
		s0.8-1.1,0.6-1.4S173.6,420.1,173.6,420.1z"/>
	<path class="st13" d="M163.4,427.8c-0.3,0.3-0.4,0.7-0.4,1.1c0,0.5,0.4,0.7,0.7,0.6s0.7-1,0.7-1.3S163.4,427.8,163.4,427.8z"/>
	<path class="st13" d="M166,425.5c-0.3,0-0.5,1.9-0.5,2.4s0.2,0.5,0.6,0.5s0.5-1.2,0.6-1.6S166.9,425.5,166,425.5z"/>
	<path class="st13" d="M165.8,428.8c-0.2,0.6-0.3,1.2-0.2,1.9c0,0.4,0.2,0.5,0.5,0.5s0.4-1.8,0.4-2.1S165.8,428.8,165.8,428.8z"/>
	<path class="st13" d="M168.3,425.5c-0.2,0-0.5,0.8-0.6,1.2s-0.4,1.7-0.4,2s-0.7,1.6-0.1,1.7s0.7-0.6,0.7-1c0-0.8,0.1-1.5,0.4-2.2
		C168.6,426.8,168.8,425.5,168.3,425.5z"/>
	<path class="st13" d="M170.1,424.5c-0.2,0-0.5,1.1-0.6,1.3s-0.7,2.5-0.8,2.7s0,0.7,0.2,0.7s0.4-1.3,0.6-1.4
		c0.4-0.8,0.8-1.6,1.1-2.5c0.1-0.3,0-0.7-0.3-0.8C170.3,424.5,170.2,424.5,170.1,424.5z"/>
	<path class="st13" d="M171.8,424c-0.3,0.1-0.5,0.4-0.6,0.8c0,0.4-0.4,1.5-0.4,1.7s0.2,0.5,0.4,0.4c0.3-0.4,0.5-0.9,0.7-1.4
		C172,425.2,172.5,424,171.8,424z"/>
	<path class="st14" d="M176.8,337.3c0.3,0,1.4-0.5,1.9-0.2s1.4,1.2,1.4,2s0.4,1.1,0.4,1.5c-0.3,0.9-0.6,1.8-1.1,2.6
		c-0.4,1.9-0.6,3.8-0.5,5.8c0.1,1.5,0.4,14.6,0.2,16.8s-1.4,20.1-1.4,21.7s0.2,2.2,0.1,2.6s0.2,4.8,0.1,5.3s0,2.8-0.1,3
		c-0.3,0.4-0.8,0.7-1.3,0.7c-0.8-0.2-1.4-0.7-1.9-1.3c-0.2-0.9-0.4-1.8-0.7-2.7c-0.2-0.7-0.3-1.3-0.2-2c0-0.7,1.5-5.6,1.5-6.5
		s0.4-16.8,0.5-19.3s-0.3-11.8-0.1-13.5s0-3.5,0.1-5.1s0.3-4.2-0.1-5.1s-1.6-1.7-1.7-2.2S176.8,337.3,176.8,337.3z"/>
	<path class="st18" d="M166.3,333.7c-0.5,0.5-0.8,1.1-1,1.8c-0.3,1-0.1,2.1,0.4,3c0.6,1,1.4,5.7,1.4,7s0.5,18.2,0.6,20.8
		s0.9,19.1,0.7,20.2s-2.6,4.4-2.8,5.4s-0.4,3,0.4,3.1s1.5-0.9,2-1c0.9-0.1,1.8-0.1,2.6,0.1c1,0.2,2,0.3,3,0.2
		c0.6-0.1,1.4-4.2,1.2-5.8s-1.2-3.2-1.5-5c-0.4-2.3-0.6-4.7-0.6-7.1c0-1.9-0.2-13.6-0.5-15.6s0.4-14.7,1.2-16.6s3.2-3.4,3.6-3.9
		c0.5-1.1,0.7-2.3,0.6-3.6c-0.4-1-1-2-1.8-2.7c-0.6-0.4-6.7-1.7-7.4-1.5C167.7,332.9,167,333.3,166.3,333.7z"/>
	<path class="st19" d="M168.9,329.8c-1.1,0-2.3,0.3-3.2,1c-0.5,1-0.6,2.1-0.3,3.2c0.6,0.9,1.1,1.9,1.5,2.8c0.1,0.6,0.7,1.7,1.3,1.7
		c1.2-0.4,2.3-1.2,3.1-2.2c0.3-0.9,0.4-1.9,0.3-2.8c-0.3-0.7-0.6-1.4-0.7-2.1C170.8,330.4,169.9,329.7,168.9,329.8L168.9,329.8z"/>
	<path class="st18" d="M155.5,240.6c0,0-3.9-2.8-5.9-3.1s-5,0.5-5.7,3.5c-0.6,3.3-0.1,6.7,1.3,9.6c1.5,3.3,4.5,9.4,4.6,10.3
		s2.1,1.6,3.5,3.6s2,4.3,2.9,5s4.9,1.7,5.3,2.2s1.8,2.5,2.7,2.6s2.2,0.1,2.4-0.9s0.6-1.8,0-2.2s-3.1-0.6-3.7-1
		c-1.6-1.5-3.1-3.2-4.5-4.9c-0.7-1-2.7-5.5-3.1-5.9c-0.4-0.5-0.6-1.1-0.5-1.8c0-0.7,0.2-2.1,0.2-2.5c0,0,1.3-0.4,1.6-0.9
		s0-3.4,0.5-3.7s0.6-1.5,3.1-1.3s13.9-0.1,14.6,0s1.5,0,1.5,0.8s-0.4,3.2,0.1,3.8s1.3,1.1,1.4,2c-0.4,2.6-1,5.1-1.8,7.6
		c-0.7,1.9-1.7,4.1-2.4,4.8c-1.1,1-2.2,1.9-3.4,2.7c-0.4,0.1-2.2-0.2-2.2,0.4s-0.4,2.2,1,2.2c1.4-0.2,2.8-0.6,4-1.3
		c0.4-0.4,0.9-0.8,1.3-1.2c0.6-0.4,2-2,2.9-2.2c0.9-0.4,1.7-1.2,2.2-2.1c0.1-0.4-0.1-2,0.5-2.6s3.9-4.8,4.4-6.1s2.7-5.8,2.9-9
		s0.3-7.8-0.6-9.7s-2-3.3-3.1-3.2s-3.8,2-4.1,2.4c-0.7,0.8-1.5,1.5-2.4,2.1c-0.6,0.2-7.3,0.6-7.3,0.6l-10.3,0.3L155.5,240.6z"/>
	<path class="st12" d="M164.6,229.8c-1.3,0-2.6-0.1-2.7,0.4c-0.1,0.7-0.3,1.4-0.5,2.1c-0.2,0.4-2.7,0.1-2.9,0.6s0.2,1.3,1.9,1.8
		s0.6,0.8,0.5,1.1c-0.3,0.5-0.4,1.1-0.4,1.8c0.1,0.5-1.5,0.8-2.1,0.8s-2.3-0.6-2.9-0.3c-1,0.7-1.3,2.1-0.7,3.1
		c0.8,1.3,1.6,3.3,2.4,3.7s1.2,0.7,1.3,1.6s1.6,3.5,1.8,4.5s1,2.7,2,3s1.7,0,1.9,0.6s1,3.4,1.3,4.2s0.6,2.3,1.4,2.3s0.6,0.5,1.1-1.1
		s0.8-4,1.3-4.3s2.8-1.5,3.1-2.3s1.1-4.7,1.4-5.5s0.8-2.7,0.9-3.1s2.7-3.6,2.7-4.7s-0.4-2.3-1.5-2.5s-3.9-0.1-4.3-0.2s-1-2-1-2.5
		s0.1-0.8,0.4-0.9s2-0.3,2-1.4s-2.7-0.8-2.9-0.8s-0.2-1.8-0.8-2.1S164.6,229.8,164.6,229.8z"/>
</g>
<g id="Layer_11">
	<path class="st20" d="M186.7,239.9l-9,6.4l-9.1,4l-1.6,0.9l-4.5-2.1l-5.8-2.3l-5.7-2.3l-4.6-1.2l-2.5-0.8c-0.5-0.2,0.6-2.7,0.6-2.7
		l-2.9,1.8l-0.2,2.2l1.2,0.9l-1.1,0.9l0.7,1.7l1.1,1.1l0.5,2.2l-0.4,4.4l-0.2,2.5l0.4,5.5l0.2,2.8l0.5,5.5l2-5.2l1.8,12.4l2.2-7.1
		l3.6,15.8l2.7-15.6l0.9,2.1l3.3-6.9l2,6.4l1.4,5.8l2.2-11.7l1.6,2.8l1.5,13.4l1.8-13.6l1.7,5.5l2.7-8.7l1.5,9.1l3.3-15.6l1.4,6.4
		l1.6-4.9l0.6,1.4l2.5-10.4l0.8-5.8l1.8-3.2l0.1-1.4l-0.6-0.7l0.5-2.8l-1.6-0.7l-1.6-0.2C186.3,238.6,186.6,239.2,186.7,239.9z"/>
	<line class="st21" x1="142.4" y1="241.7" x2="143.9" y2="242.5"/>
	<line class="st21" x1="187.7" y1="239.1" x2="185.9" y2="240.5"/>
	<line class="st21" x1="188.7" y1="241.6" x2="184.6" y2="243.9"/>
	<line class="st21" x1="142.6" y1="244.6" x2="147" y2="246.3"/>
	<line class="st21" x1="167.6" y1="250.9" x2="159.1" y2="255.5"/>
	<line class="st21" x1="166.6" y1="252.7" x2="177" y2="248.9"/>
	<line class="st21" x1="143.3" y1="248.3" x2="149.3" y2="249.7"/>
	<line class="st21" x1="162.6" y1="250.5" x2="166" y2="251.7"/>
	<line class="st21" x1="173.9" y1="251.3" x2="181.4" y2="249.5"/>
</g>
<g id="Layer_6">
	<path class="st13" d="M145.9,105.7c-1.6,0.6-5.7,3-7.2,5c-1.3,1.7-2.3,3.6-3,5.6c-0.2,1.6-0.3,3.2-0.3,4.9c0,1.1-0.2,2.2-0.3,3.3
		c0.1,1.2,0.5,2.4,0.9,3.6c0.4,0.7,2.3,3.8,2.5,4.6c0.3,1.2,0.7,2.3,1.3,3.3c0.4,0.6,1.8,0.9,2.3,1s1.9,0.2,1.9,0.2s0.5,2.5,0.7,2.9
		s1.9,4.7,1.9,4.7s0.9,3.2,1.2,3.8s1.6,1.9,2.6,1.8s2.8-0.3,3.4-0.4c0.8-0.2,1.7-0.5,2.4-1c0.8-0.5,1.4-1.2,1.9-1.4s4.1-5.1,4.8-5.8
		s3.4-3.3,3.2-4.2c-0.4-1.8-0.7-3.6-0.9-5.5c0.1-0.3,2.1-1.2,3-1.9s2.1-2,2.1-5.7c0-2.1-0.1-4.2-0.4-6.3c-0.2-1.9-0.5-3.8-1-5.7
		c-0.6-1.6-1.5-6.1-5.7-7.4C157.4,103.4,151.4,103.6,145.9,105.7z"/>
	<path class="st22" d="M148.2,123.2c-0.4,0.3-0.8,0.6-1.3,0.8c-0.4,0.1-0.5,0.6-0.5,0.8c0.3,0.5,0.5,1,0.7,1.5
		c0.3,1.1,0.8,2.2,1.4,3.2c0.6,0.4,1.2,0.8,1.8,1.1c0.6,0.2,1.2,0.4,1.8,0.4c0.2,0,0.2,0.2,0.6,0.3s0.1-0.6,0.4-0.8
		c0.8-0.5,1.5-1.1,2.2-1.7c0.3-0.4,0.5-1,0.5-1.5c-0.1-0.8-0.3-1.5-0.6-2.2c-0.4-0.9-1-1.7-1.6-2.5c-0.4-0.5-1.3-0.3-2-0.4
		c-0.6-0.1-1.2-0.1-1.8,0.1C149.4,122.6,148.2,123.2,148.2,123.2z"/>
	<path class="st22" d="M138.8,126.7c-0.3,0.1-0.5,0.5-0.7,0.8c-0.3,0.4-0.4,0.8-0.3,1.2c0.1,0.6,1.5,3.7,1.4,4
		c0.1,0.5,0.2,1,0.4,1.5c0.1,0.4,0.8,0.5,1.1,0.5s1.4,0,1.5-0.3c0.1-0.4,0.2-0.8,0.3-1.2c0.2-0.4-0.3-1.8-0.3-2.2s0.6-2.1,0.3-2.8
		c-0.5-0.7-1.3-1.1-2.2-1.1C139.5,127,139.4,126.5,138.8,126.7z"/>
	<path class="st22" d="M144.2,131.1c0.1-0.1,1.8,0.1,1.9,0.4c0.2,0.4,0.6,0.8,0.9,1.1c0.5,0.5,0.8,1.1,1.1,1.8
		c0.1,0.3,0.6,0.6,0.7,1.1c0,0.6-0.2,1.2-0.6,1.7c-0.4,0.2-0.6,0.2-0.7-0.2s-0.1-1.2-0.2-1.8c-0.2-0.6-0.5-1.2-0.9-1.7
		c-0.3-0.4-0.6-0.8-1-1.2C144.8,131.9,144.1,131.2,144.2,131.1z"/>
	<path class="st22" d="M144.4,132.3c-0.2,0.1,0,0.7,0,1s0.7,1.4,0.7,1.7c0,0.6,0,1.2,0.1,1.9c0.1,0.3,0.6,1,0.9,0.9
		c0.3-0.2,0.5-0.5,0.6-0.8c0.1-0.5,0.1-1.1,0-1.6c-0.2-0.4-0.5-0.9-0.8-1.2c-0.2-0.4-0.9-0.9-1-1.2S144.8,132.1,144.4,132.3z"/>
</g>
<g id="Layer_8">
	<polyline class="st23" points="65.3,52.5 162.9,37.8 275.5,52.7 	"/>
	<path class="st24" d="M40.5,117.2c-0.2,0.5-1.6-0.5-1.3-1s5.3-7.6,5.3-7.6l1.4,1C46,109.6,40.8,116.5,40.5,117.2z"/>
	<path class="st25" d="M47.6,112l0.7-1l-0.4-0.3c-0.5-2.3-2.7-3.9-5.1-3.5l-0.4-0.3l-0.7,1.1l0,0c-0.8,1.2-0.1,3,1.5,4.2
		s3.5,1.1,4.3,0l0,0L47.6,112L47.6,112C47.6,112.1,47.6,112,47.6,112z"/>
	
		<ellipse transform="matrix(0.5667 -0.8239 0.8239 0.5667 -70.2923 84.5891)" class="st24" cx="45.3" cy="109.1" rx="2.6" ry="3.6"/>
	<path class="st24" d="M287.9,113.9c0.3,0.4-1.4,1-1.6,0.4s-3-8.8-3-8.8l1.7-0.6C285,105,287.4,113.3,287.9,113.9z"/>
	<path class="st25" d="M287.9,105.1l-0.4-1.2l-0.5,0.2c-2.2-1-4.8-0.1-5.8,2l-0.5,0.2l0.4,1.2v0.1c0.5,1.4,2.4,1.9,4.2,1.3
		s2.9-2.2,2.6-3.5l0,0v-0.1C287.9,105.2,287.9,105.2,287.9,105.1L287.9,105.1z"/>
	
		<ellipse transform="matrix(0.9452 -0.3264 0.3264 0.9452 -18.7772 98.4924)" class="st24" cx="284.1" cy="105.2" rx="3.6" ry="2.6"/>
	<path class="st24" d="M165.3,39.5c0.4,0.2-0.7,1.6-1.2,1.1s-6.8-6.3-6.8-6.3l1.2-1.3C158.5,33,164.6,39.1,165.3,39.5z"/>
	<path class="st25" d="M161.1,31.7l-0.9-0.9l-0.3,0.4c-2.4,0.1-4.2,2.1-4.2,4.5l-0.4,0.4l0.9,0.9l0,0c1.1,1,3,0.6,4.3-0.9
		S162.1,32.8,161.1,31.7L161.1,31.7L161.1,31.7L161.1,31.7L161.1,31.7z"/>
	
		<ellipse transform="matrix(0.6764 -0.7366 0.7366 0.6764 26.3623 127.2022)" class="st24" cx="157.9" cy="33.6" rx="3.6" ry="2.6"/>
	<path class="st24" d="M169.3,399.6c0.4,0.3-1,1.4-1.4,0.9s-5.4-7.6-5.4-7.6l1.4-1C163.9,391.9,168.7,399.1,169.3,399.6z"/>
	<path class="st25" d="M166.8,391.1l-0.7-1l-0.4,0.3c-2.4-0.3-4.6,1.2-5,3.6l-0.4,0.3l0.7,1l0,0c0.8,1.2,2.8,1.2,4.4,0
		s2.2-2.9,1.5-4.1l0,0L166.8,391.1L166.8,391.1L166.8,391.1z"/>
	
		<ellipse transform="matrix(0.8128 -0.5825 0.5825 0.8128 -197.9639 168.4936)" class="st24" cx="163.2" cy="392.3" rx="3.6" ry="2.6"/>
</g>
</svg>
