<?xml version="1.0" encoding="utf-8"?>
<!-- Generator: Adobe Illustrator 22.0.1, SVG Export Plug-In . SVG Version: 6.00 Build 0)  -->
<svg version="1.1" id="Layer_1" xmlns="http://www.w3.org/2000/svg" xmlns:xlink="http://www.w3.org/1999/xlink" x="0px" y="0px"
	 viewBox="0 0 434.9 704.6" style="enable-background:new 0 0 434.9 704.6;" xml:space="preserve">
<style type="text/css">
	.st0{fill:#A87C4F;stroke:#000000;stroke-width:0.18;stroke-miterlimit:10;}
	.st1{fill:#754C28;stroke:#000000;stroke-width:0.18;stroke-miterlimit:10;}
	.st2{fill:#A87C4F;stroke:#000000;stroke-width:0.27;stroke-miterlimit:10;}
	.st3{fill:#754C28;}
	.st4{fill:#A87C4F;stroke:#000000;stroke-width:0.34;stroke-miterlimit:10;}
	.st5{fill:#754C28;stroke:#000000;stroke-width:0.2;stroke-miterlimit:10;}
	.st6{fill:none;stroke:#000000;stroke-width:0.34;stroke-miterlimit:10;}
	.st7{fill:#EC1C24;stroke:#000000;stroke-width:0.18;stroke-miterlimit:10;}
	.st8{fill:#9F0009;stroke:#000000;stroke-width:0.18;stroke-miterlimit:10;}
	.st9{font-family:'HelveticaNeueLTStd-XBlkCnO';}
	.st10{font-size:13.78px;}
	.st11{fill:#929497;stroke:#000000;stroke-width:0.21;stroke-miterlimit:10;}
	.st12{fill:#A6A8AB;stroke:#000000;stroke-width:0.21;stroke-miterlimit:10;}
	.st13{fill:#D0D2D3;stroke:#000000;stroke-width:0.21;stroke-miterlimit:10;}
	.st14{fill:#A6A8AB;stroke:#000000;stroke-width:0.19;stroke-miterlimit:10;}
	.st15{fill:#BBBDBF;stroke:#000000;stroke-width:0.21;stroke-miterlimit:10;}
	.st16{fill:none;}
	.st17{fill:none;stroke:#000000;stroke-width:0.21;stroke-miterlimit:10;}
	.st18{fill:#BBBDBF;stroke:#000000;stroke-width:0.19;stroke-miterlimit:10;}
	.st19{fill:#D0D2D3;stroke:#000000;stroke-width:0.19;stroke-miterlimit:10;}
	.st20{fill:#E6E7E8;stroke:#000000;stroke-width:0.18;stroke-miterlimit:10;}
	.st21{fill:none;stroke:#000000;stroke-width:0.18;stroke-miterlimit:10;}
	.st22{fill:#A6A8AB;stroke:#000000;stroke-width:0.17;stroke-miterlimit:10;}
	.st23{fill:none;stroke:#FFFFFF;stroke-width:0.17;stroke-miterlimit:10;}
	.st24{fill:#231F20;stroke:#000000;stroke-width:0.17;stroke-miterlimit:10;}
	.st25{stroke:#000000;stroke-width:0.17;stroke-miterlimit:10;}
	.st26{fill:#EC1C24;stroke:#000000;stroke-width:2.000000e-02;stroke-miterlimit:10;}
	.st27{fill:#EC1C24;stroke:#000000;stroke-width:3.000000e-02;stroke-miterlimit:10;}
</style>
<title>Artboard 3</title>
<rect x="50.1" y="140.9" class="st0" width="317.4" height="27.1"/>
<polygon class="st1" points="377,134 60.9,133.1 50.1,140.9 367.5,140.9 "/>
<polygon class="st1" points="235.2,50.7 235.1,592.3 225.8,600.6 225.8,57.7 "/>
<polygon class="st1" points="235.2,50.7 201.9,50.5 191.6,57.7 225.8,57.7 "/>
<rect x="191.8" y="57.4" class="st2" width="34.1" height="543.2"/>
<polygon class="st1" points="377,134 376.9,161.1 367.5,168 367.5,140.9 "/>
<polygon class="st3" points="227.7,450.2 226.2,449.9 223.7,453.6 223.7,460.8 227,457.9 "/>
<rect x="189.2" y="453.4" class="st4" width="34.5" height="7.4"/>
<polygon class="st5" points="225.8,450.3 191.8,450.3 189.2,453.4 223.7,453.4 "/>
<line class="st6" x1="223.8" y1="460.9" x2="225.9" y2="458.8"/>
<rect x="100.3" y="99" class="st7" width="211.3" height="23.1"/>
<polygon class="st8" points="311.6,122.1 319.3,115.6 319.3,92.5 311.6,99 "/>
<polygon class="st8" points="319.7,92.3 108.3,92.3 100.3,99 311.6,99 "/>
<text transform="matrix(1 0 0 1 105.23 115.62)" class="st9 st10">IESVS·NAZARENVS·REX·IVDÆO</text>
<text transform="matrix(1 0 0 1 276.96 115.62)" class="st9 st10">R</text>
<text transform="matrix(1 0 0 1 284.71 115.62)" class="st9 st10">VM</text>
<g id="Layer_4">
	<path class="st11" d="M195.6,304.3c0,0,0.1,5.7,0.6,6.9c0.7,1.3,1.6,2.6,2.7,3.7c0.5,0.4,1,1.4,1.4,1.6c0.7,0.2,1.4,0.4,2.1,0.4
		c0.6,0,1,0.3,1.9,0.4s1.8-0.6,2.5-0.7c1-0.1,1.8-0.6,2.4-1.4c0.3-0.8,0.9-3.4,0.9-3.4l-4.9,0.4c0,0,0.4,1.2-0.4,1.5
		c-1.3,0.2-2.6,0.1-3.8-0.4c-0.3-0.3-1-0.8-0.9-1.5c0.1-0.7,0.2-1.4,0.3-2.2c0-0.8-3-5.5-3.2-5.7S195.2,302.5,195.6,304.3z"/>
	<path class="st11" d="M211,313c0.4,1,1,1.8,1.8,2.5c1.3,0.6,2.8,0.8,4.2,0.8c0.6-0.1,1-0.6,1.5-0.8c0.9-0.4,1.8-0.8,2.7-1.3
		c2.2-1.9,4.2-4,6.2-6.1c-0.6-0.8-1.2-1.5-1.8-2.2c0,0-6.2,5.6-6.4,5.9c-0.6,0.7-1.3,1.2-2.2,1.5c-0.6,0-1.3-1-1.4-1.4
		s-1.3-0.4-1.8-0.3C212.8,312,211.9,312.5,211,313z"/>
	<path class="st12" d="M204.8,183.3l2.6,2l-0.4,7.2c0,0,1,27.8,1,28.2s-1.6,8.6-2.3,8.7s-2,1.4-2.6,1.5s-3.7,4.8-4.7,5.6
		c-1.6,1.2-3.3,2.2-5.1,3c-1.5,0.9-3,1.9-4.3,3c-0.1,0.2-0.2-0.8-0.2-1.2c0.6-1,1.4-1.8,2.4-2.4c1-0.3,2-0.9,2.8-1.6
		c0.6-0.7,1.4-1.2,2.3-1.6c0.4-0.1,1.6-2.2,2.5-3.4s3.3-3.4,3.6-4.2s1.4-1,2-1.4s-0.4-0.8-0.8-1s-0.8-0.7-1.5-0.8s-1.3,1-1.8,1.9
		s-1.5,2.7-1.8,3.1s-1.7,0.6-1.7,0.6s-0.4-3.9-0.6-4c-1.5,0.6-2.9,1.3-4.2,2.1c-0.7,0.4-0.7,2.9-0.8,3.3s-3,2.8-3.7,2.8
		s-2.1-1.5-2.1-1.5s2-2,2.6-2.6s4.1-3.9,4.4-4.5c1.3-1.5,2.7-2.9,4.2-4.1c0.5-0.4,0.8-1,0.7-1.7c1.4-1.2,3-2.4,4.6-3.4
		c1-0.5,1.7-1.5,1.9-2.6c0-0.3-2,0-3.2,0.2s-3.4,2.5-3.8,3.1s-1,2-1.7,2.3c-1.4,1.1-2.7,2.3-3.9,3.6c-0.9,0.9-3.3,3.8-3.6,4.1
		s-1.8,1.9-2.1,2.2s-1.1,1.1-1.1,1.1l-0.5-1.8c0-1.3,2.7-4.1,3.3-4.5c0.7-0.8,1.2-1.7,1.5-2.7c0.1-0.6,1.1-1.2,1.8-1.8
		c2.1-1.9,4.4-3.7,6.7-5.3c0.9-0.4,3.8-2.4,4.7-3c0.5-0.3,0.7-1,0.4-1.5c-0.1-0.1-0.2-0.2-0.3-0.3c-0.4-0.3-1.9,0-3,0.5
		c-2.2,1.2-4.3,2.6-6.3,4.2c-1.3,0.9-2.6,1.8-4,2.5c-0.8,0.4-2.5,2.3-3,2.5s-2.5,3.8-2.5,3.8l-0.9-2.2c0,0,1.7-2.4,2.2-2.9
		s2.2-2,2.8-2.5s-0.3-1.8-0.8-2.5s-1.7-0.1-2.6,0.1c-0.8,0.4-1.5,0.9-2.1,1.5l-0.5-1.6c0.3-1,2.6-3.3,3.2-3.6s0.9-2.1,0.9-2.6
		s-0.2-1.9-1-1.8s-2,1.8-2,1.8l-1.1-1c1-1,1.2-3,1.2-4s-2.5-3.3-3.4-4.3c-0.7-1.1-0.8-2.5-0.2-3.6c0.4-0.6,4.1-5.2,4.7-5.2
		c2.1-0.6,4.1-1.3,6.1-2.1c0.6-0.3,0.5-2.1,0.8-2.1s7.2-0.4,8.2-0.4s3.9-0.3,3.9-0.3L204.8,183.3z M198.1,186.9
		c-0.8,0-1.5-0.6-2.2-0.4c-0.5,0.1-0.8,0.5-0.8,1c0,0.1,0,0.2,0.1,0.2c0.4,0.7,0.6,1.5,0.8,2.3c0,0.5,2.6-0.3,2.9-0.3
		s2.7-0.2,2.8-0.5s0.3-0.9,0.4-1.2s-0.2-1.1-1.1-1.2S198.8,186.9,198.1,186.9z M195.9,191.3c0,0,0.6,1.1,0.5,1.4s-0.4,0.8,0.3,0.8
		s1.9-0.5,2.4-0.5s1.9,0.2,2-0.2s0.1-1.4-1.2-1.5c-1,0-2.1-0.2-3.1-0.3C196.4,191,195.9,191.3,195.9,191.3z M200.4,194.8
		c-0.7,0.2-1.4,0.3-2.1,0.2c-0.5,0-1.4,0.1-1.4,0.6s2.9,1,3.8,1.1c0.8,0.1,1.6,0.2,2.4,0.1c0.3,0-0.6-0.9-0.4-1.2
		c0.1-0.3,0-0.7-0.4-0.9c0,0-0.1,0-0.1,0C201.6,194.7,201,194.7,200.4,194.8z M201.9,199.3c-0.4-0.2-1-0.2-1.4,0
		c-0.8,0.3-1.6,0.5-2.4,0.6c-0.8,0.1-1.5,0.7-1,1.2s5.9,2,6.1,1.6s0.1-1.2,0-1.5s-1.1-0.2-1.2-0.8C202.1,200,202,199.6,201.9,199.3z
		 M201.9,204.6c-0.7-0.1-1.4-0.1-2.1,0c-0.9,0.3-1.7,0.7-2.5,1.2c-0.7,0.5-0.9,1.1-0.2,1.3c1.5,0.4,3,0.6,4.5,0.6
		c0.5-0.1,1.6-0.8,1.6-1.3c0-0.3,0-0.6-0.1-0.9C203.2,205.5,202.1,205.2,201.9,204.6z M183.2,197.4c-0.4-0.2-0.9-0.3-1.3-0.3
		c-0.6,0-1.9-0.1-1.9,0.3c0.3,0.7,0.7,1.2,1.3,1.6c0.3,0.1,0.8-0.3,1.3-0.3c0.4,0,0.8-0.1,1.1-0.2L183.2,197.4z"/>
	<path class="st12" d="M213.8,184.2c0,0,2.9,0.3,3.9,0.3s7.8,0.4,8.2,0.4s0.2,1.8,0.8,2.1c2,0.8,4,1.5,6.1,2.1
		c0.5,0,4.2,4.7,4.7,5.2s0.8,2.7-0.2,3.6s-3.5,3.3-3.4,4.3s0.3,3,1.2,4l-1.1,1c0,0-1.3-1.7-2-1.8s-1,1.3-1,1.8s0.3,2.3,0.9,2.6
		s3,2.5,3.2,3.6l-0.5,1.6c-0.6-0.6-1.3-1.1-2.1-1.5c-0.9-0.3-2.1-0.8-2.6-0.1s-1.4,2-0.8,2.5s2.2,2,2.8,2.5s2.2,2.9,2.2,2.9
		l-0.9,2.2c0,0-2-3.6-2.5-3.8s-2.2-2.1-3-2.5c-1.4-0.7-2.7-1.6-4-2.5c-2-1.5-4.1-2.9-6.3-4.2c-1.2-0.5-2.6-0.8-3-0.5
		c-0.5,0.4-0.6,1.1-0.2,1.5c0.1,0.1,0.2,0.2,0.3,0.3c0.9,0.6,3.8,2.6,4.7,3c2.3,1.7,4.5,3.4,6.7,5.3c0.7,0.6,1.6,1.3,1.8,1.8
		c0.3,1,0.9,1.9,1.5,2.7c0.5,0.4,3.3,3.2,3.2,4.5L232,231c0,0-0.8-0.8-1.1-1.1s-1.9-1.9-2.1-2.2s-2.7-3.1-3.6-4.1
		c-1.2-1.3-2.5-2.5-3.9-3.6c-0.7-0.3-1.3-1.7-1.7-2.3s-2.6-2.8-3.8-3.1s-3.2-0.5-3.2-0.2c0.2,1.1,0.9,2.1,1.9,2.6
		c1.6,1,3.1,2.2,4.6,3.4c0,0.6,0.3,1.3,0.8,1.7c1.5,1.2,2.9,2.6,4.2,4.1c0.2,0.6,3.8,3.8,4.4,4.5s2.6,2.6,2.6,2.6s-1.4,1.5-2,1.5
		s-3.6-2.4-3.7-2.8s-0.1-2.9-0.7-3.3c-1.4-0.8-2.8-1.5-4.2-2.1c-0.1,0.1-0.6,4-0.6,4s-1.4-0.2-1.7-0.6s-1.2-2.2-1.8-3.1
		s-1.1-2-1.8-1.9s-1.1,0.6-1.5,0.8s-1.4,0.6-0.8,1s1.7,0.6,2,1.4s2.7,3,3.6,4.2s2.1,3.3,2.5,3.4c0.9,0.3,1.7,0.9,2.3,1.6
		c0.8,0.8,1.7,1.3,2.8,1.6c1,0.6,1.8,1.4,2.4,2.4c0,0.4-0.1,1.4-0.2,1.2c-1.3-1.1-2.8-2.1-4.3-3c-1.8-0.8-3.5-1.8-5.1-3
		c-0.9-0.8-4.1-5.4-4.7-5.6s-1.9-1.4-2.6-1.5s-2.4-8.4-2.3-8.7s1-28.2,1-28.2l-0.4-7.2l2.6-2L213.8,184.2z M215.6,186.9
		c-0.9,0-1.3,0.8-1.1,1.2s0.3,0.9,0.4,1.2s2.5,0.6,2.8,0.5s2.8,0.8,2.8,0.3c0.2-0.8,0.4-1.6,0.8-2.3c0.2-0.5,0-1-0.5-1.2
		c-0.1,0-0.2-0.1-0.2-0.1c-0.7-0.1-1.4,0.4-2.2,0.4S216.5,186.8,215.6,186.9z M219.7,191c-1,0.2-2.1,0.3-3.1,0.3
		c-1.4,0.1-1.3,1-1.2,1.5s1.4,0.2,2,0.2s1.8,0.5,2.4,0.5s0.4-0.5,0.3-0.8s0.5-1.4,0.5-1.4S220.1,191,219.7,191L219.7,191z
		 M214.3,194.7c-0.4,0.1-0.6,0.5-0.5,0.8c0,0,0,0.1,0,0.1c0.1,0.3-0.7,1.2-0.4,1.2c0.8,0,1.6,0,2.4-0.1c0.9-0.1,3.8-0.6,3.8-1.1
		s-0.9-0.6-1.4-0.6c-0.7,0-1.3-0.1-2-0.2C215.5,194.7,214.9,194.7,214.3,194.7L214.3,194.7z M214.3,200.4c0,0.6-1.1,0.4-1.2,0.8
		s-0.3,1.2,0,1.5s5.6-1,6.2-1.6s-0.1-1.1-1-1.2c-0.8-0.1-1.6-0.3-2.4-0.6c-0.4-0.2-1-0.2-1.4,0C214.4,199.7,214.3,200,214.3,200.4
		L214.3,200.4z M213.3,205.5c0,0.3,0,0.6,0,0.9c0,0.5,1.1,1.2,1.6,1.3c1.5,0,3-0.2,4.5-0.6c0.6-0.2,0.5-0.8-0.2-1.3
		c-0.8-0.5-1.6-0.9-2.5-1.2c-0.7-0.1-1.4-0.1-2.1,0C214.3,205.2,213.3,205.4,213.3,205.5L213.3,205.5z M232.7,198.6
		c0.4,0.1,0.7,0.2,1.1,0.2c0.5,0,1,0.4,1.3,0.3c0.6-0.4,1-0.9,1.3-1.6c0-0.4-1.3-0.3-1.9-0.3c-0.5,0-0.9,0.1-1.3,0.3L232.7,198.6z"
		/>
	<path class="st13" d="M245.5,187.4c-1.3,0.4-5.6,0.9-6.9,1.1s-2.6,0.2-3,1.1c-0.3,1.1-0.7,2.1-1.1,3.1c-0.8,1.5-0.5,3.3,0.6,4.4
		c1.4,1.3,3.6,1.1,5.1,0.8s2.3-0.8,2.2-1.4s0.5-1.6,1.7-2.4c3.5-2.1,7.1-3.9,10.9-5.3c3.6-1.3,15.6-5.2,19.2-6.2
		c2.9-0.8,5.9-1.5,8.9-1.9c1,0,3.2-0.1,4.1,0.4c0.9,0.6,2,0.7,3,0.4c0.8-0.5,1.3-1.4,1.2-1.8s-0.8-3-1-3.6c-0.1-0.7-0.2-1.5-0.1-2.3
		c-0.1-1.3-0.4-2.5-0.9-3.6c-0.5-0.5-1.3-0.6-1.9-0.4c-0.5,0.1-1.9,0.5-2.1,1c-0.4,0.7-0.9,1.3-1.5,1.7c-0.6,0.4-3,2.1-3.7,2.5
		s-5,3.2-6.1,3.8c-2.8,1-5.6,1.9-8.5,2.6c-2.9,0.5-5.7,1.2-8.5,2c-3.1,1-7.4,2.7-9,3.2S245.5,187.4,245.5,187.4z"/>
	<path class="st13" d="M287.1,177c-0.6,0.4-0.5,2,0.1,2.8c0.4,0.7,1.2,1,1.9,0.7c0.9-0.6,1.8-1.3,2.6-2c0.5-0.4,5.6-4,6.2-4.5
		s8.3-6,9.7-6.9c2.3-1.2,4.6-2.3,7-3.2c1.2-0.4,8.1-2.6,8.9-2.8s5.5-1,6.3-1.2s2.4-0.4,2.5-0.7s-0.3-0.4-0.5-0.9s-0.5-1.6-0.9-1.7
		c-0.7-0.2-1.4-0.1-1.9,0.4c-0.6,0.5-1.3,0.9-2.1,1.2c-0.4,0.1-7.5,2.4-8.6,2.8c-3.1,0.7-6.1,1.6-9,2.7c-3.8,2-7.4,4.3-10.8,6.8
		c-0.8,0.8-7.1,4.6-8.4,5.3S287.8,176.5,287.1,177z"/>
	<path class="st13" d="M289.8,169.9c-0.7,0.2-1.2,0.3-1,1.2c0.4,1.1,0.8,2.2,1.3,3.3c0.2,0.3,0.9,0,1.1-0.2c0.4-0.4,0.9-0.7,1.3-1
		c1-0.5,2-0.9,3-1.3c0.8-0.3,5.1-2.6,6-3s14.6-7.9,15.7-8.4s8.8-3.1,9.9-3.4s1.5,0.1,2.2-0.2c0.6-0.2,1-0.9,0.9-1.5
		c-0.1-0.5-1-2.6-1-2.8c-0.4-0.4-0.9-0.6-1.4-0.5c-0.7,0.3-1.3,0.7-1.8,1.1c-0.4,0.6-0.9,1-1.5,1.3c-0.8,0.4-16.1,7.2-17.7,8.1
		s-13.6,7-14.2,7.2c-0.5,0.2-0.9,0.3-1.4,0.4C290.8,170.4,290.2,169.8,289.8,169.9z"/>
	<path class="st13" d="M336.8,144.7c-0.8,0.3-5.5,2.7-5.7,3s0.3,0.9,0.7,1.2c0.3,0.4,0.9,0.5,1.3,0.2c0.5-0.4,1.4-1.2,1.9-1.5
		c0.8-0.5,1.7-0.9,2.6-1.1c0.4,0.1,1,0.3,1.2,0c0.3-0.5,0.3-1.1,0-1.7C338.6,144.4,338.3,144.1,336.8,144.7z"/>
	<path class="st13" d="M341.7,142.9l-2.9,1.3c0,0,0.5,1.8,1,1.7s1.2-0.9,1.7-1.2s2.2-0.9,2.5-1.1s-0.1-1.3-0.3-1.5
		S341.7,142.9,341.7,142.9z"/>
	<path class="st13" d="M344.7,141.6c-0.3,0.2-0.7,0.3-0.6,0.8s0.4,1.1,0.7,0.9c0.4-0.4,0.9-0.7,1.4-1c0.5-0.2,1.7-0.7,1.8-1
		s-0.2-0.8-0.8-0.5S344.7,141.6,344.7,141.6z"/>
	<path class="st13" d="M335,148.5c-0.4,0.1-1.3,0.3-1.3,0.6s1.2,0.7,1.9,0.5s4.5-1.1,5.1-1.2s5-1,5.7-1.3s1.3-0.9,1.1-1.4
		c-0.3-0.7-1-1-1.8-0.9c-1.1,0.4-2.2,0.9-3.2,1.5c-1.4,0.6-2.8,1.1-4.2,1.5C337.8,148,335,148.5,335,148.5z"/>
	<path class="st13" d="M347.5,144.3c-0.2,0.4-0.1,0.5,0,0.9c0.1,0.6,0.3,1.1,0.5,1.6c0.2,0.3,0.5,0.4,0.8,0.1s0.6-0.8,1-0.9
		s4.1-0.9,4.5-0.9s1.1,0.2,1.5,0s0.3-0.9,0.2-1.3s-1.2-0.4-1.4-0.3s-4.1,0.7-4.6,0.7S347.7,143.9,347.5,144.3z"/>
	<path class="st13" d="M356.1,143.2c0,0,0.1,1,0.2,1.3s0.5,0.4,1,0.5c0.9,0.1,1.9,0.3,2.8,0.6c0.2,0.2,0.3,0.1,0.5-0.5
		s-0.2-0.9-0.9-1c-0.8-0.1-1.6-0.3-2.3-0.6C357,143.5,356.3,143,356.1,143.2z"/>
	<path class="st13" d="M361,144.2c-0.2,0.1-0.2,0.8,0,1s0.6,0.2,1,0.1s1.6-0.4,1.7-0.6s-0.9-0.6-1.3-0.6S361,144.2,361,144.2z"/>
	<path class="st13" d="M330.9,149.5c-0.3,0.1-0.4,0.7-0.5,1s1,0.6,1.6,0.6c0.6-0.1,1.1-0.3,1.6-0.5c0.6-0.1,0.9-0.4,0.5-0.7
		c-0.4-0.3-1-0.5-1.5-0.4C332.1,149.6,331.5,149.6,330.9,149.5z"/>
	<path class="st13" d="M335.9,150c-0.3,0.1-0.4,0.4-0.4,0.7c0,0.1,0.1,0.2,0.1,0.2c0.3,0.4,0.4,1.3,0.9,1.2s3.8-1.6,4.4-1.6
		s5.4-0.2,6-0.2s1.6-0.6,1.5-1c-0.2-0.5-0.5-1-0.9-1.4c-0.7-0.3-1.4-0.3-2,0c-0.8,0.3-3.2,0.9-3.7,1c-0.8,0.2-1.6,0.4-2.5,0.5
		c-0.7,0-1.4,0.1-2.1,0.2C336.9,149.6,336.4,149.8,335.9,150z"/>
	<path class="st13" d="M348.6,147.7c-0.2,0.1,0,1.1,0.2,1.5s1.1,1.2,1.4,1s0.7-0.9,1.3-1.1c1.3-0.6,2.7-1,4.1-1.3
		c0.5,0,2.1,0.6,2.3,0.5c0.3-0.3,0.3-0.8,0.1-1.1c-0.2-0.5-0.8-0.8-2.3-0.7c-1.4,0-2.8,0.1-4.1,0.4
		C350.8,147.1,348.6,147.7,348.6,147.7z"/>
	<path class="st13" d="M358.8,146.4c-0.3,0.1-0.4,0.4-0.3,0.9s0.6,0.4,1,0.2c0.8-0.2,1.6-0.3,2.5-0.2c0.5,0.1,1.4,1,1.9,0.9
		s0.6-0.6,0.3-1s-2.5-0.8-3.5-0.8C360.1,146.3,359.4,146.3,358.8,146.4z"/>
	<path class="st13" d="M365.1,147.1c-0.3,0-0.4,0.6-0.3,0.8c0.2,0.4,0.5,0.6,0.9,0.5c0.5-0.1,2,0.3,2.1,0c0.2-0.3,0.1-0.7-0.3-0.9
		c0,0-0.1,0-0.1,0C367.1,147.4,365.1,147.1,365.1,147.1z"/>
	<path class="st13" d="M334,150.8c-0.4,0.2-0.9,0.3-1.1,0.6s-0.4,0.9,0.4,0.9s1.1,0.1,1.6,0.2s1,0.1,1-0.5s0-1-0.5-1.2
		C334.9,150.7,334.5,150.7,334,150.8z"/>
	<path class="st13" d="M337.4,152.4c-0.6,0.2-1,0.3-0.9,0.7s0,1.6,1.4,1.2c0.9-0.3,1.9-0.5,2.9-0.6c0.4,0,4.2,0,4.6,0
		c1.2,0,2.3-0.1,3.4-0.3c0.5-0.2,0.3-1,0.1-1.4c-0.6-0.6-1.5-0.9-2.4-0.7c-1,0.2-3.4,0.8-4.3,0.9c-1.1,0.1-2.2,0.2-3.3,0.1
		C338.4,152.4,337.9,152.4,337.4,152.4z"/>
	<path class="st13" d="M349.6,151.3c-0.4,0.1-0.5,0.7-0.4,1.2s0,1.5,0.5,1.5s1.6-0.5,2.2-0.6s5.1-0.9,5.8-0.9s1.4,0.1,1.6-0.2
		s-0.1-1.7-0.5-1.8c-1.1-0.1-2.3,0-3.4,0.2c-0.7,0.2-4.3,0.6-4.6,0.6L349.6,151.3z"/>
	<path class="st13" d="M359.4,150.2c-0.3,0.2,0,1.1,0.1,1.6s0.6,0.8,1,0.7c0.7-0.3,1.4-0.4,2.1-0.5c0.6,0.1,1.1,0.1,1.7,0.1
		c0.4-0.1,0.3-1.1,0.1-1.4s-1.3,0-2-0.1S359.8,149.9,359.4,150.2z"/>
	<path class="st13" d="M365.2,150.4c-0.4,0-0.3,0-0.3,0.6s0.2,0.6,0.8,0.5s1.3-0.1,1.4-0.2s0.1-0.3,0-0.7S365.2,150.4,365.2,150.4z"
		/>
	<path class="st13" d="M338.7,154.6c-0.7,0-1.4,0.3-1.9,0.8c-0.3,0.5,0.7,1.4,1.4,1.2s1.7-0.4,2.5-0.5s4.8-0.3,5.3,0s1.8,1.2,2.3,1
		s1.2-1.1,1-1.5s0-1.2-2-1.3s-4.1-0.4-5.1-0.1C341.2,154.5,340,154.6,338.7,154.6z"/>
	<path class="st13" d="M350,154.5c-0.3,0.2-0.4,0.9-0.4,1.3s-0.4,1.1,0.1,1.1s2.1-0.2,2.8-0.3s3.5,0.3,3.9,0.2
		c0.4-0.3,0.7-0.8,0.7-1.4c-0.4-0.3-0.9-0.4-1.4-0.3c-1.3,0.2-2.6,0.2-3.8-0.1C351.3,154.7,350.7,154.5,350,154.5z"/>
	<path class="st13" d="M357.6,155.4l-0.7,1.6c0.7,0.2,1.4,0.2,2.1,0.2c0.8-0.1,1.5-0.1,2.3,0.1c0.2,0.1,1-0.6,0.7-1.1
		s-1.2-0.2-2-0.3S357.6,155.4,357.6,155.4z"/>
	<path class="st13" d="M362.6,156.2c-0.2,0.1-0.2,0.9-0.2,0.9l1.3,0.5c0.6,0.2,0.8,0.6,1.2,0.3s0.7-0.7,0.1-0.9
		C364.2,156.6,363.4,156.3,362.6,156.2z"/>
	<path class="st13" d="M330.2,151.2c-0.2,0.1-0.3,1-0.1,1.4s0.1,1.4,0.8,1.4s1.7-0.4,1.6-0.8c-0.1-0.4-0.3-0.8-0.5-1.2
		C331.6,151.3,330.9,151,330.2,151.2z"/>
	<path class="st13" d="M334,152.9c-0.5-0.1-0.9-0.1-0.8,0.2s0.2,1.4,0.8,1.2s0.9-0.7,0.7-1S334,152.9,334,152.9z"/>
	<path class="st13" d="M335.5,153.2c-0.3,0.4-0.3,0.9-0.2,1.4c0.1,0.3,0.5,0.9,0.9,0.9s0.7-0.2,0.6-0.6c-0.1-0.4-0.2-0.8-0.3-1.2
		C336.1,153.3,335.8,153,335.5,153.2z"/>
	<path class="st13" d="M334.1,154.8c-0.3,0.2-1,0.7-0.9,1.2s0.6,1.2,1,1.1s0.6-0.4,0.9-0.9S334.6,154.5,334.1,154.8z"/>
	<path class="st13" d="M332.2,153.9c-0.4,0.1-1.2,0.5-1.2,0.8c0,0.6,0.3,1.1,0.7,1.4c0.4,0.2,1-0.3,1.2-0.7c0.2-0.4,0.2-0.8,0-1.1
		C332.8,154,332.2,153.9,332.2,153.9z"/>
	<path class="st13" d="M335.1,157.2c-0.5,0.1-1.4,0.2-1.3,0.5s0.7,1,1.3,0.8s1.4-0.2,1.2-0.7S335.1,157.2,335.1,157.2z"/>
	<path class="st13" d="M335.6,155.9c-0.3,0.3-0.4,0.7-0.1,0.9s0.8,0.1,0.8-0.3s-0.2-0.7-0.4-0.7
		C335.9,155.9,335.7,155.9,335.6,155.9z"/>
	<path class="st13" d="M169.9,187.4c1.3,0.4,5.6,0.9,6.9,1.1s2.6,0.2,3,1.1c0.3,1.1,0.7,2.1,1.1,3.1c0.8,1.5,0.5,3.3-0.6,4.4
		c-1.4,1.3-3.6,1.1-5.1,0.8s-2.3-0.8-2.2-1.4s-0.5-1.6-1.7-2.4c-3.5-2.1-7.1-3.9-10.9-5.3c-3.6-1.3-15.6-5.2-19.2-6.2
		c-2.9-0.8-5.9-1.5-8.9-1.9c-1,0-3.2-0.1-4.1,0.4c-0.9,0.6-2,0.7-3,0.4c-0.8-0.5-1.3-1.4-1.2-1.8s0.8-3,1-3.6
		c0.1-0.7,0.2-1.5,0.1-2.3c0.1-1.3,0.4-2.5,0.9-3.6c0.5-0.5,1.3-0.7,2-0.4c0.5,0.1,1.9,0.5,2.1,1c0.4,0.7,0.9,1.3,1.6,1.7
		c0.6,0.4,3,2.1,3.7,2.5s5,3.2,6.1,3.8c2.8,1,5.6,1.9,8.5,2.6c2.9,0.5,5.7,1.2,8.5,2c3.1,1,7.4,2.7,9,3.2S169.9,187.4,169.9,187.4z"
		/>
	<path class="st13" d="M128.3,177c0.6,0.4,0.5,2-0.1,2.8c-0.4,0.7-1.2,1-1.9,0.7c-0.9-0.6-1.8-1.3-2.6-2c-0.5-0.4-5.6-4-6.2-4.5
		s-8.3-6-9.7-6.9c-2.3-1.2-4.6-2.3-7-3.2c-1.2-0.4-8.1-2.6-8.9-2.8s-5.5-1-6.3-1.2s-2.3-0.4-2.5-0.7s0.3-0.4,0.5-0.9
		s0.5-1.6,0.9-1.7c0.7-0.2,1.4-0.1,1.9,0.4c0.6,0.5,1.3,0.9,2.1,1.2c0.3,0.1,7.4,2.4,8.6,2.8c3.1,0.7,6.1,1.6,9,2.7
		c3.7,2,7.4,4.3,10.8,6.8c0.8,0.8,7.1,4.6,8.4,5.3S127.6,176.5,128.3,177z"/>
	<path class="st13" d="M125.6,169.9c0.7,0.2,1.2,0.3,1,1.2c-0.4,1.1-0.8,2.2-1.3,3.3c-0.2,0.3-0.9,0-1.1-0.2c-0.4-0.4-0.9-0.7-1.3-1
		c-1-0.5-2-0.9-3-1.3c-0.8-0.3-5.1-2.6-6-3s-14.6-7.9-15.7-8.4s-8.8-3.1-9.9-3.4s-1.5,0.1-2.2-0.2c-0.6-0.2-1-0.9-0.9-1.5
		c0.2-0.5,1-2.6,1-2.8c0.4-0.4,0.9-0.6,1.4-0.5c0.6,0.3,1.2,0.7,1.8,1.1c0.4,0.6,0.9,1,1.5,1.3c0.8,0.4,16.1,7.2,17.7,8.1
		s13.6,7,14.2,7.2c0.5,0.2,0.9,0.3,1.4,0.4C124.6,170.4,125.2,169.8,125.6,169.9z"/>
	<path class="st13" d="M78.6,144.7c0.8,0.3,5.5,2.7,5.7,3s-0.3,0.9-0.7,1.2c-0.3,0.4-0.9,0.5-1.3,0.2c-0.5-0.4-1.4-1.2-1.9-1.5
		c-0.8-0.5-1.7-0.9-2.6-1.1c-0.4,0.1-0.9,0.3-1.2,0c-0.3-0.5-0.3-1.1,0-1.7C76.8,144.4,77.1,144.1,78.6,144.7z"/>
	<path class="st13" d="M73.7,142.9l2.9,1.3c0,0-0.5,1.8-1,1.7s-1.2-0.9-1.7-1.2s-2.2-0.9-2.5-1.1s0.1-1.3,0.3-1.5
		S73.7,142.9,73.7,142.9z"/>
	<path class="st13" d="M70.7,141.6c0.3,0.2,0.7,0.3,0.6,0.8s-0.4,1.1-0.7,0.9c-0.4-0.4-0.9-0.7-1.4-1c-0.4-0.2-1.7-0.7-1.8-1
		s0.2-0.8,0.8-0.5S70.7,141.6,70.7,141.6z"/>
	<path class="st13" d="M80.4,148.5c0.4,0.1,1.3,0.3,1.3,0.6s-1.2,0.7-1.9,0.5s-4.5-1.1-5.1-1.2s-5-1-5.7-1.3s-1.3-0.9-1.1-1.4
		c0.3-0.7,1-1,1.8-0.9c1.1,0.4,2.2,0.9,3.2,1.5c1.4,0.6,2.8,1.1,4.2,1.5C77.7,148,80.4,148.5,80.4,148.5z"/>
	<path class="st13" d="M67.9,144.3c0.2,0.4,0.1,0.5,0,0.9c-0.1,0.6-0.3,1.1-0.5,1.6c-0.2,0.3-0.5,0.4-0.8,0.1s-0.6-0.8-1-0.9
		s-4.1-0.9-4.5-0.9s-1.1,0.2-1.5,0s-0.3-0.9-0.2-1.3s1.2-0.4,1.4-0.3s4.1,0.7,4.6,0.7S67.7,143.9,67.9,144.3z"/>
	<path class="st13" d="M59.3,143.2c0,0-0.1,1-0.2,1.3s-0.5,0.4-1,0.5c-0.9,0.1-1.9,0.3-2.8,0.6c-0.2,0.2-0.3,0.1-0.5-0.5
		s0.2-0.9,0.9-1c0.8-0.1,1.6-0.3,2.3-0.6C58.4,143.5,59.1,143,59.3,143.2z"/>
	<path class="st13" d="M54.5,144.2c0.2,0.1,0.2,0.8,0,1s-0.6,0.2-1,0.1s-1.6-0.4-1.7-0.6s0.9-0.6,1.3-0.6S54.5,144.2,54.5,144.2z"/>
	<path class="st13" d="M84.5,149.5c0.3,0.1,0.4,0.7,0.5,1s-1,0.6-1.6,0.6c-0.6-0.1-1.1-0.3-1.7-0.5c-0.6-0.1-0.9-0.4-0.5-0.7
		c0.4-0.3,1-0.5,1.5-0.4C83.3,149.6,83.9,149.6,84.5,149.5z"/>
	<path class="st13" d="M79.5,150c0.3,0.1,0.4,0.4,0.4,0.7c0,0.1-0.1,0.2-0.1,0.2c-0.3,0.4-0.4,1.3-0.9,1.2s-3.8-1.6-4.4-1.6
		s-5.4-0.2-6-0.2s-1.6-0.6-1.5-1c0.2-0.5,0.5-1,0.8-1.4c0.6-0.2,1.4-0.2,2,0c0.8,0.3,3.2,0.9,3.7,1c0.8,0.2,1.6,0.4,2.5,0.5
		c0.7,0,1.4,0.1,2.1,0.2C78.5,149.6,79,149.8,79.5,150z"/>
	<path class="st13" d="M66.8,147.7c0.2,0.1,0,1.1-0.2,1.5s-1.1,1.2-1.4,1s-0.7-0.9-1.3-1.1c-1.3-0.6-2.7-1-4.1-1.3
		c-0.5,0-2.1,0.6-2.3,0.5c-0.3-0.3-0.3-0.8-0.1-1.1c0.2-0.5,0.8-0.8,2.3-0.7c1.4,0,2.8,0.1,4.2,0.4
		C64.6,147.1,66.8,147.7,66.8,147.7z"/>
	<path class="st13" d="M56.6,146.4c0.3,0.1,0.3,0.4,0.3,0.9s-0.6,0.4-1,0.2c-0.8-0.2-1.6-0.3-2.5-0.2c-0.5,0.1-1.4,1-1.9,0.9
		s-0.5-0.6-0.3-1s2.5-0.8,3.5-0.8C55.3,146.3,56,146.3,56.6,146.4z"/>
	<path class="st13" d="M50.3,147.1c0.3,0,0.4,0.6,0.3,0.8c-0.2,0.4-0.5,0.6-0.9,0.5c-0.5-0.1-2,0.3-2.1,0c-0.2-0.3-0.1-0.7,0.3-0.9
		c0,0,0.1,0,0.1,0C48.3,147.4,50.3,147.1,50.3,147.1z"/>
	<path class="st13" d="M81.4,150.8c0.4,0.2,0.9,0.3,1.1,0.6s0.3,0.9-0.4,0.9s-1.1,0.1-1.7,0.2s-1,0.1-0.9-0.5s0-1,0.5-1.2
		C80.5,150.7,80.9,150.7,81.4,150.8z"/>
	<path class="st13" d="M78.1,152.4c0.6,0.2,1,0.3,0.9,0.7s0,1.6-1.4,1.2c-0.9-0.3-1.9-0.5-2.9-0.6c-0.4,0-4.2,0-4.6,0
		c-1.2,0-2.3-0.1-3.4-0.3c-0.5-0.2-0.3-1-0.1-1.4c0.6-0.6,1.5-0.9,2.4-0.7c1,0.2,3.3,0.8,4.3,0.9c1.1,0.1,2.2,0.2,3.3,0.1
		C77.1,152.4,77.6,152.4,78.1,152.4z"/>
	<path class="st13" d="M65.8,151.3c0.4,0.1,0.5,0.7,0.4,1.2s0,1.5-0.5,1.5s-1.6-0.5-2.2-0.6s-5.1-0.9-5.8-0.9s-1.4,0.1-1.6-0.2
		s0.1-1.7,0.5-1.8c1.1-0.1,2.3,0,3.4,0.2c0.7,0.2,4.3,0.6,4.6,0.6L65.8,151.3z"/>
	<path class="st13" d="M56.1,150.2c0.2,0.2,0,1.1-0.1,1.6s-0.6,0.8-1,0.7c-0.7-0.3-1.4-0.4-2.1-0.5c-0.6,0.1-1.1,0.1-1.7,0.1
		c-0.4-0.1-0.3-1.1-0.1-1.4s1.3,0,2-0.1S55.7,149.9,56.1,150.2z"/>
	<path class="st13" d="M50.2,150.4c0.4,0,0.3,0,0.3,0.6s-0.2,0.6-0.8,0.5s-1.3-0.1-1.4-0.2s-0.1-0.3,0-0.7S50.2,150.4,50.2,150.4z"
		/>
	<path class="st13" d="M76.7,154.6c0.7,0,1.4,0.3,1.9,0.8c0.3,0.5-0.7,1.4-1.4,1.2s-1.7-0.4-2.5-0.5s-4.8-0.3-5.3,0s-1.8,1.2-2.3,1
		s-1.2-1.1-1-1.5s0-1.2,2-1.3s4.1-0.4,5.1-0.1C74.2,154.5,75.5,154.6,76.7,154.6z"/>
	<path class="st13" d="M65.4,154.5c0.3,0.2,0.3,0.9,0.4,1.3s0.3,1.1-0.1,1.1s-2.1-0.2-2.8-0.3s-3.5,0.3-3.9,0.2
		c-0.4-0.3-0.7-0.8-0.7-1.4c0.4-0.3,0.9-0.4,1.4-0.3c1.3,0.2,2.6,0.2,3.8-0.1C64.1,154.7,64.7,154.5,65.4,154.5z"/>
	<path class="st13" d="M57.8,155.4l0.7,1.6c-0.7,0.2-1.4,0.2-2.1,0.2c-0.8-0.1-1.5-0.1-2.3,0.1c-0.2,0.1-1-0.6-0.7-1.1
		s1.2-0.2,2-0.3S57.8,155.4,57.8,155.4z"/>
	<path class="st13" d="M52.8,156.2C53,156.3,53,157,53,157l-1.3,0.5c-0.6,0.2-0.8,0.6-1.2,0.3s-0.7-0.7-0.1-0.9
		C51.2,156.6,52,156.3,52.8,156.2z"/>
	<path class="st13" d="M85.2,151.2c0.2,0.1,0.3,1,0.1,1.4s-0.1,1.4-0.8,1.4s-1.7-0.4-1.6-0.8c0.1-0.4,0.3-0.8,0.5-1.2
		C83.7,151.4,84.5,151,85.2,151.2z"/>
	<path class="st13" d="M81.4,152.9c0.5-0.1,0.9-0.1,0.8,0.2s-0.2,1.4-0.8,1.2s-0.9-0.7-0.7-1S81.4,152.9,81.4,152.9z"/>
	<path class="st13" d="M80,153.2c0.3,0.4,0.3,0.9,0.2,1.4c-0.2,0.3-0.5,0.9-0.9,0.9s-0.7-0.2-0.6-0.6c0.1-0.4,0.2-0.8,0.3-1.2
		C79.3,153.3,79.6,153,80,153.2z"/>
	<path class="st13" d="M81.3,154.8c0.3,0.2,1,0.7,0.9,1.2s-0.6,1.2-1,1.1s-0.6-0.4-0.8-0.9S80.8,154.5,81.3,154.8z"/>
	<path class="st13" d="M83.2,153.9c0.3,0.1,1.2,0.5,1.2,0.8c0,0.6-0.3,1.1-0.7,1.4c-0.4,0.2-1-0.3-1.2-0.7c-0.2-0.4-0.2-0.8,0-1.1
		C82.6,154,83.2,153.9,83.2,153.9z"/>
	<path class="st13" d="M80.3,157.2c0.5,0.1,1.4,0.2,1.3,0.5s-0.7,1-1.3,0.8s-1.4-0.2-1.2-0.7S80.3,157.2,80.3,157.2z"/>
	<path class="st13" d="M79.8,155.9c0.3,0.3,0.4,0.7,0.1,0.9s-0.8,0.1-0.8-0.3s0.2-0.7,0.4-0.7C79.5,155.9,79.7,155.9,79.8,155.9z"/>
	<path class="st14" d="M193.6,381.4c-0.6-0.1-1.2,0-1.7,0.2c-0.7,0.4-1.9,2.1-1.4,2.9s2.1,3.3,2.4,4.1s1.4,7,1.7,7.9
		s2.1,10.1,2.3,12.5s1.4,16.6,1.5,17.7s0.7,7.6,0.6,8.7c-0.1,1.6,0.1,3.2,0.5,4.8c0.4,0.9,0.7,1.6,1.2,1.5s1.4-2,1.5-2.6
		c0-0.9,0.2-1.7,0.4-2.6c0.1-1.9,0-3.7-0.1-5.6c0-0.3-0.9-1.3-1-1.6s-0.8-4.3-0.8-5.6s-0.2-11.7-0.5-13.8s-1.5-8.7-2-11.6
		c-0.6-2.7-1.2-5.4-2.1-8c-0.3-1.6-0.6-3.2-0.6-4.8C195.5,385.2,193.6,381.4,193.6,381.4z"/>
	<rect x="206.7" y="232.5" class="st12" width="3.2" height="38.1"/>
	<path class="st15" d="M205.1,175.8l0.4,12.4l4.7-0.1c0,0-0.6-6.8-0.7-7.2c-0.2-0.5-0.3-1-0.4-1.5c0-0.6-0.2-4.3-0.2-4.6
		s-2.5,0.1-2.5,0.1L205.1,175.8z"/>
	<path class="st13" d="M211.8,176.9c-0.8,0-3.1,0-3.6,0s-3.5,0.2-3.9,0.2s-2.4,0-2.4,0.7s0.3,1.2,1.6,1.6c0.9,0.3,1.9,0.4,2.9,0.4
		c1,0,2.1-0.1,3.1-0.2c0.2-0.1,0.2-0.6,0.5-0.6c0.4,0.1,0.8,0.1,1.1,0.1c0.6-0.1,1.5-0.6,1.5-1.1S213,176.9,211.8,176.9z"/>
	<path class="st13" d="M213.7,181.8c-0.3-0.4-0.8-0.6-1.3-0.5c-0.8,0-1.6,0-2.4-0.1c-0.5-0.2-0.9-0.2-1.4-0.2
		c-0.6,0-3.3,0.4-3.8,0.5s-3.1,0.4-3.4,0.7s-0.6,1.3-0.1,1.7c0.7,0.4,1.6,0.5,2.4,0.4c1-0.2,2-0.4,3-0.4c0.6,0,2.1-0.3,2.4-0.3
		c0.4,0,0.9-0.1,1.3-0.3c0.3-0.1,2.9,0.1,3.2-0.2C214,182.8,214,182.3,213.7,181.8z"/>
	<path class="st16" d="M193.8,228.4c-0.3,0.2-1.3,0.4-1.6,0.9s-1,1.1-0.1,1.4c1.1,0.1,2.2-0.3,3-1c0.6-0.6,1.1-1.5,0.8-2
		S195,227.6,193.8,228.4z"/>
	<path class="st16" d="M196.8,195.5c1.5,0.6,3,0.9,4.5,1c1,0.1,1.9,0.1,2.9-0.1c0.1-0.2-0.1-1.2-0.1-1.7s-0.9-0.7-1.3-1.3
		s-1.1-1.9-1.9-2.1l-2.1-0.4c-0.9,0.2-1.8,0.4-2.7,0.7c-0.6,0-2.4,0.1-2.4,0.3C194.2,193.4,195.4,194.7,196.8,195.5z"/>
	<path class="st16" d="M188,236c-0.6,0-1.2-0.6-1.5-0.5c-0.4,0.4-0.5,1-0.3,1.5c0.2,0.7,0.8,2.1,1.2,2.2s1.5-0.9,1.8-1.3
		S190.2,236,188,236z"/>
	<path class="st16" d="M204.4,199.1c0-0.3-0.6-0.3-1.1-0.2c-0.4,0-0.9,0-1.3-0.1c-2.2-0.2-4.4-0.7-6.4-1.4c-2.1-0.6-3.4-3.7-3.6-4.2
		s-0.4-0.5-1.1-0.6c-1.2-0.3-2.3-0.8-3.2-1.5c-0.5-0.5-2.9-0.6-3.7-0.4s0.2,3.2,0.2,3.2s0.5,0.5,0.8,0.7c1.4,1.6,2.9,3,4.6,4.2
		c2.6,1.7,9.7,2.6,10.4,2.6s3.6,0.2,4-0.1S204.4,199.4,204.4,199.1z"/>
	<path class="st16" d="M203.9,203.6c-0.4-0.2-3.4-0.2-5.8-0.5s-7.5-1.2-9.3-2.4c-2-1.4-3.8-2.9-5.5-4.7c-0.1-0.2-0.2-0.3-0.4-0.4
		c-0.4,0.3-0.7,0.8-0.8,1.3c0.2,0.6,0.7,1.2,1.2,1.5c0.6,0.5,3,3.3,4.2,4.3c2.4,1.5,4.9,2.7,7.6,3.4c1.4,0.2,4.4,0.4,5.1,0.4
		c0.9,0.1,1.9,0.1,2.8-0.1c0.3-0.2,0.5-0.8,0.8-1S204.3,203.9,203.9,203.6z"/>
	<path class="st16" d="M204.5,218.1c-0.2,0.2-0.5,0.3-0.8,0.4c-0.8,0.2-1.5,0.5-2.1,1c-0.4,0.3-1.1,1.1-0.3,1.1
		c0.9-0.1,1.8-0.4,2.6-0.7c0.4-0.3,0.9-0.4,1.4-0.5c0.4,0.1,0.5-0.5,0.5-0.8S204.8,217.8,204.5,218.1z"/>
	<path class="st13" d="M209.1,173.1c-1.2,0-2.4,0-3.5,0.1c-0.7,0-2.5,0.3-2.8,0.7s0.2,1.6,0.8,1.6c0.5,0.1,1,0.2,1.5,0.5
		c0.2,0.1,2.8,0,3.1,0c0.6-0.1,1.1-0.3,1.6-0.6c0.5-0.3,1-0.5,1.5-0.6c0.4,0,1.2-0.3,1.2-0.7s-0.6-1-1.5-1S209.3,173.2,209.1,173.1z
		"/>
	<path class="st15" d="M205.5,220.7c-0.9,0.1-3.1,1.3-3.2,2s0.5,1.6,1,1.6s1.2-0.5,1.6-0.3s0.7,0.2,0.8,0.5s0.1,1.9-0.2,2
		c-0.8,0.4-1.6,0.8-2.3,1.2c-0.5,0.4-1,1.2-0.7,1.7s0.9,0.2,1.1,0.2s0.9-0.4,1-0.1c0,0.6-0.1,1.2-0.2,1.8c0,0.1-1,0.5-1.2,1
		c-0.2,0.5-0.1,1.1,0.3,1.5c0.3,0.3,0.7,0.7,0.7,1.1s0.5,1.4,1,1.4s2.8,0.2,3.3,0.2c1.1,0,2.2-0.2,3.3-0.4c0.1-0.1,0-1.8,0.3-1.9
		s1.3-0.6,1.2-1.2c-0.2-0.5-0.6-1-1.1-1.3c-0.3-0.1-0.4-0.9-0.4-1.4s0.1-1.3,0.3-1.3s0.8-0.2,1-0.1s0.8,0.4,1,0.3
		c0.4-0.2,0.6-0.7,0.6-1.1c0-0.6-1.1-1.7-1.3-2s-0.4-0.5-1.1-0.4s-0.9,0.4-1.2,0.2s-0.3-1.5,0-1.6s2.3,0,2.5,0c0.7-0.3,1-1,0.8-1.7
		c0,0,0,0,0,0c-0.4-1.1-2.1-2-3-2.4c-0.9-0.3-1.9-0.4-2.9-0.5c-0.2,0-2,0.4-2.2,0.5C206.1,220.4,205.8,220.5,205.5,220.7z"/>
	<path class="st16" d="M222.5,228.4c0.3,0.2,1.3,0.4,1.6,0.9s1,1.1,0.1,1.4c-1.1,0.1-2.2-0.3-3-1c-0.6-0.6-1.1-1.5-0.8-2
		S221.3,227.6,222.5,228.4z"/>
	<path class="st16" d="M219.5,195.5c-1.5,0.6-3,0.9-4.5,1c-1,0.1-1.9,0.1-2.9-0.1c-0.1-0.2,0.1-1.2,0.1-1.7s0.9-0.7,1.3-1.3
		s1.1-1.9,1.9-2.1l2-0.4c0.9,0.2,1.8,0.4,2.7,0.7c0.6,0,2.4,0.1,2.4,0.3C222.1,193.4,220.9,194.7,219.5,195.5z"/>
	<path class="st16" d="M228.4,236c0.6,0,1.2-0.6,1.5-0.5c0.4,0.4,0.5,1,0.3,1.5c-0.2,0.7-0.7,2.1-1.2,2.2s-1.5-0.9-1.8-1.3
		S226.1,236,228.4,236z"/>
	<path class="st16" d="M211.9,199.1c0-0.3,0.6-0.3,1.1-0.2c0.4,0,0.9,0,1.3-0.1c2.2-0.2,4.4-0.7,6.4-1.4c2.1-0.6,3.4-3.7,3.6-4.2
		s0.4-0.5,1.1-0.6c1.2-0.3,2.3-0.8,3.2-1.5c0.5-0.5,2.9-0.6,3.7-0.4s-0.2,3.2-0.2,3.2s-0.5,0.5-0.8,0.7c-1.4,1.6-2.9,3-4.6,4.2
		c-2.6,1.7-9.7,2.6-10.4,2.6s-3.6,0.2-4-0.1S211.9,199.4,211.9,199.1z"/>
	<path class="st16" d="M212.4,203.6c0.4-0.2,3.4-0.2,5.8-0.5s7.5-1.2,9.3-2.4c2-1.4,3.8-2.9,5.5-4.7c0.1-0.2,0.2-0.3,0.4-0.4
		c0.4,0.3,0.7,0.8,0.8,1.3c-0.2,0.6-0.7,1.2-1.2,1.5c-0.6,0.5-3,3.3-4.1,4.3c-2.4,1.5-4.9,2.7-7.6,3.4c-1.4,0.2-4.4,0.4-5.1,0.4
		c-0.9,0.1-1.9,0.1-2.8-0.1c-0.3-0.2-0.5-0.8-0.8-1S212,203.9,212.4,203.6z"/>
	<path class="st16" d="M211.9,218.1c0.2,0.2,0.5,0.3,0.8,0.4c0.8,0.2,1.5,0.5,2.1,1c0.4,0.3,1.1,1.1,0.3,1.1
		c-0.9-0.1-1.8-0.4-2.6-0.7c-0.4-0.3-0.9-0.4-1.4-0.5c-0.4,0.1-0.5-0.5-0.5-0.8C210.9,218.1,211.4,217.9,211.9,218.1z"/>
	<path class="st17" d="M229.1,239.3c0.4-0.1,1-1.5,1.2-2.2c0.2-0.5,0.1-1.1-0.3-1.5c-0.3-0.2-0.9,0.5-1.5,0.5c-2.2,0-1.4,1.6-1.1,2
		S228.6,239.4,229.1,239.3z"/>
	<path class="st17" d="M196.8,195.5c1.5,0.6,3,0.9,4.5,1c1,0.1,1.9,0.1,2.9-0.1c0.1-0.2-0.1-1.2-0.1-1.7s-0.9-0.7-1.3-1.3
		s-1.1-1.9-1.9-2.1l-2.1-0.4c-0.9,0.2-1.8,0.4-2.7,0.7c-0.6,0-2.4,0.1-2.4,0.3C194.2,193.4,195.4,194.7,196.8,195.5z"/>
	<path class="st17" d="M204.5,218.1c-0.2,0.2-0.5,0.3-0.8,0.4c-0.8,0.2-1.5,0.5-2.1,1c-0.4,0.3-1.1,1.1-0.3,1.1
		c0.9-0.1,1.8-0.4,2.6-0.7c0.4-0.3,0.9-0.4,1.4-0.5c0.4,0.1,0.5-0.5,0.5-0.8S204.8,217.8,204.5,218.1z"/>
	<path class="st17" d="M203.9,203.6c-0.4-0.2-3.4-0.2-5.8-0.5s-7.5-1.2-9.3-2.4c-2-1.4-3.8-2.9-5.5-4.7c-0.1-0.2-0.2-0.3-0.4-0.4
		c-0.4,0.3-0.7,0.8-0.8,1.3c0.2,0.6,0.7,1.2,1.2,1.5c0.6,0.5,3,3.3,4.2,4.3c2.4,1.5,4.9,2.7,7.6,3.4c1.4,0.2,4.4,0.4,5.1,0.4
		c0.9,0.1,1.9,0.1,2.8-0.1c0.3-0.2,0.5-0.8,0.8-1S204.3,203.9,203.9,203.6z"/>
	<path class="st17" d="M193.8,228.4c-0.3,0.2-1.3,0.4-1.6,0.9s-1,1.1-0.1,1.4c1.1,0.1,2.2-0.3,3-1c0.6-0.6,1.1-1.5,0.8-2
		S195,227.6,193.8,228.4z"/>
	<path class="st17" d="M188,236c-0.6,0-1.2-0.6-1.5-0.5c-0.4,0.4-0.5,1-0.3,1.5c0.2,0.7,0.8,2.1,1.2,2.2s1.5-0.9,1.8-1.3
		S190.2,236,188,236z"/>
	<path class="st17" d="M204.4,199.1c0-0.3-0.6-0.3-1.1-0.2c-0.4,0-0.9,0-1.3-0.1c-2.2-0.2-4.4-0.7-6.4-1.4c-2.1-0.6-3.4-3.7-3.6-4.2
		s-0.4-0.5-1.1-0.6c-1.2-0.3-2.3-0.8-3.2-1.5c-0.5-0.5-2.9-0.6-3.7-0.4s0.2,3.2,0.2,3.2s0.5,0.5,0.8,0.7c1.4,1.6,2.9,3,4.6,4.2
		c2.6,1.7,9.7,2.6,10.4,2.6s3.6,0.2,4-0.1S204.4,199.4,204.4,199.1z"/>
	<path class="st17" d="M210.7,218.5c-0.1,0.3,0.1,0.8,0.5,0.8c0.5,0,1,0.2,1.4,0.5c0.8,0.4,1.7,0.6,2.6,0.7c0.8,0,0.1-0.8-0.3-1.1
		c-0.6-0.5-1.4-0.8-2.1-1c-0.3-0.1-0.5-0.2-0.8-0.4C211.4,217.9,210.9,218,210.7,218.5z"/>
	<path class="st17" d="M212.3,201.2c0.4,0.3,3.3,0.1,4,0.1s7.8-1,10.4-2.6c1.7-1.2,3.3-2.6,4.6-4.2c0.2-0.2,0.8-0.7,0.8-0.7
		s1-2.9,0.2-3.2s-3.2-0.1-3.7,0.4c-1,0.7-2.1,1.2-3.2,1.5c-0.8,0.1-1,0.1-1.1,0.6s-1.5,3.5-3.6,4.2c-2.1,0.7-4.2,1.1-6.4,1.4
		c-0.4,0.1-0.9,0.2-1.3,0.1c-0.4-0.1-1.1-0.1-1.1,0.2S211.9,200.9,212.3,201.2z"/>
	<path class="st17" d="M233.5,195.7c-0.2,0-0.4,0.2-0.4,0.4c-1.7,1.7-3.5,3.3-5.5,4.7c-1.8,1.2-6.9,2.1-9.3,2.4s-5.4,0.3-5.8,0.5
		s-0.3,1.8,0,2s0.6,0.8,0.8,1c0.9,0.1,1.9,0.2,2.8,0.1c0.8,0,3.8-0.2,5.1-0.4c2.7-0.8,5.3-1.9,7.6-3.4c1.2-1,3.5-3.8,4.1-4.3
		c0.6-0.4,1-0.9,1.2-1.5C234.1,196.5,233.9,196,233.5,195.7z"/>
	<path class="st17" d="M215,196.5c1.6-0.1,3.1-0.4,4.5-1c1.5-0.7,2.6-2,3.2-3.6c0-0.2-1.9-0.3-2.4-0.3c-0.9-0.3-1.8-0.5-2.7-0.7
		l-2,0.4c-0.9,0.2-1.5,1.5-1.9,2.1s-1.3,0.9-1.3,1.3s-0.3,1.5-0.1,1.7C213.1,196.6,214.1,196.6,215,196.5z"/>
	<path class="st17" d="M221.2,229.8c0.8,0.7,1.9,1.1,3,1c0.9-0.3,0.3-0.8-0.1-1.4s-1.3-0.7-1.6-0.9c-1.2-0.8-1.8-1.1-2.1-0.7
		S220.5,229.2,221.2,229.8z"/>
	<path class="st13" d="M240.1,187.6c-0.4-0.7-1.1-1.1-1.9-1c-1.1,0-4.1,1.6-4.5,1.7s-3.7-0.2-4.6,0c-1,0.1-2,0-3-0.3
		c-0.1-0.2,0.3-2.7,0.3-3s-1.4-0.3-2-0.2s-0.5,2.8-0.5,3.7s-1.2,0.5-2.3,0.4s-5.6-0.4-8.1-0.3h-0.7h0.1c0.4,0,0.8-0.8,0.4-0.9
		s-2.9-0.1-3.2-0.2c-0.6-0.1-1.2-0.2-1.9-0.2h-0.1c-0.6,0-1.3,0.1-1.9,0.2c-0.4,0.1-2.7,0.1-3.2,0.2s0,0.9,0.4,0.9h0.1h-0.7
		c-2.4,0-6.9,0.3-8.1,0.3s-2.3,0.5-2.3-0.4s0-3.6-0.5-3.7s-1.9-0.1-2,0.2s0.4,2.8,0.3,3c-1,0.4-2,0.5-3,0.3c-0.8-0.2-4.2,0.1-4.6,0
		s-3.4-1.7-4.5-1.7c-0.8-0.1-1.5,0.3-1.9,1c-0.2,0.7,0,1.4,0.5,1.9c0.5,0.6,1.5,4.6,2,5.4s3.3,4.7,3.8,5.5s3.3,4.3,5.6,5.6
		s5.9,2.8,7.5,2.9c1.3,0,2.6,0.1,3.9,0.2c1,0.3,2,0.4,3,0.4c0.4-0.2,0.5,0.6,0.9,0.8c0.3,0.1,0.5,0.5,0.4,0.9c0,0.1-0.1,0.2-0.1,0.2
		c-0.6,0.7-1.4,1.1-2.3,1.1c-1.3,0-7.8,0.6-10.3-0.2s-6.6-2.9-6.9-3.4s-1.8-2.7-2.3-2.8s-0.9,0.8-0.8,1.3c1.1,1.7,2.5,3.3,4,4.7
		c1.6,1.1,3.3,1.9,5.2,2.5c1.4,0.3,3.2,0.7,4,0.8s4.1,0.1,4.5,0.1s2.9-0.4,3.6-0.4s2.1,0.1,2.1,0.5s-1.1,0.8-2.5,1.4s-4,1-4.6,1.2
		c-1.2,0.6-2.4,1-3.7,1.3c-1.4,0.1-6.4,0-7.7-0.8c-1.5-1-2.7-2.3-3.6-3.8c-0.1-0.5-0.5-1.7-0.8-1.5s-0.2,1.8,0.1,2.4
		c1,1.6,2.1,3,3.2,4.5c0.5,0.5,2.2,1.7,2.9,1.7c0.9,0,1.7,0,2.6,0.1c1.1,0,2.2-0.1,3.3-0.4c0.8-0.2,3.4-0.8,3.8-0.6
		c0.7,0.4,1,1.2,0.6,1.9c0,0,0,0.1-0.1,0.1c-0.6,0.8-4.1,2.7-4.6,2.8s-2.6,1.2-3.4,1.2s-4.3-1.2-5.3-2.3c-0.7-1-1.3-2-1.8-3.2
		c-0.1-0.4-0.6-0.4-0.6,0.1c0.2,1.2,0.6,2.4,1.2,3.5c0.6,0.7,1.6,2.8,2.2,3.1s3.4,1.3,4,1.6c0.6,0.4,0.9,1.1,0.9,1.8
		c-0.4,0.9-1.1,1.6-2,1.9c-0.6,0.1-2.7,0-2.9-0.6s-1.4-2.8-1.4-3s-0.1-1-0.3-0.9s0.4,2.5,0.4,2.9s1.3,2.5,1.3,2.8s-0.9,0.3-0.9,0.8
		c0.3,1.3,0.8,2.5,1.4,3.7c0.4,0.6,1.3,2.6,1.3,2.6s0.9,2.3,1.3,2.3s0.1-2,0.3-2.3s1.2-0.9,1.4-1.2c0.5-0.7,0.9-1.5,1.2-2.3
		c0.1-0.7,0.9-2.8,1.8-3.3s4.6-4.5,4.9-4.8c0.3-0.3,0.4-0.8,0.4-1.3c0-0.5-0.3-3.1,1.1-4c1.2-0.9,2.4-1.7,3.7-2.4
		c0.7-0.1,1.4-0.4,2-0.8c0.3-0.3,1.2-1.5,1.4-1.2c0.4,0.3,0.8,0.6,1.2,0.8h0.1c0.4-0.2,0.8-0.5,1.1-0.8c0.2-0.3,1.1,0.9,1.4,1.2
		c0.6,0.4,1.3,0.6,2,0.8c1.3,0.7,2.6,1.5,3.7,2.4c1.4,0.9,1.1,3.6,1.1,4c-0.1,0.5,0.1,0.9,0.4,1.3c0.3,0.3,4,4.2,4.9,4.8
		s1.7,2.6,1.8,3.3c0.3,0.8,0.7,1.6,1.2,2.3c0.1,0.2,1.2,0.8,1.4,1.2s-0.1,2.3,0.3,2.3s1.3-2.3,1.3-2.3s0.9-1.9,1.3-2.6
		c0.6-1.2,1.1-2.4,1.4-3.7c0-0.5-0.9-0.5-0.9-0.8s1.2-2.4,1.3-2.8s0.6-2.8,0.4-2.9s-0.3,0.6-0.3,0.9s-1.2,2.5-1.4,3
		s-2.3,0.6-2.9,0.6c-0.9-0.4-1.6-1.1-2-1.9c0-0.7,0.3-1.4,0.9-1.8c0.6-0.4,3.4-1.4,4-1.6s1.6-2.3,2.2-3.1c0.6-1.1,1-2.3,1.2-3.5
		c0-0.5-0.5-0.4-0.7-0.1c-0.4,1.1-1,2.2-1.8,3.2c-1,1.2-4.5,2.3-5.3,2.3s-2.8-1.1-3.4-1.2s-4-1.9-4.6-2.8c-0.4-0.7-0.2-1.5,0.4-1.9
		c0,0,0.1,0,0.1-0.1c0.4-0.2,3,0.4,3.8,0.6c1,0.2,2.1,0.4,3.2,0.4c0.9-0.1,1.7-0.1,2.6-0.1c0.6,0,2.4-1.2,2.9-1.7
		c1.2-1.4,2.2-2.9,3.2-4.5c0.3-0.7,0.5-2.2,0.1-2.4s-0.8,1-0.8,1.5c-1,1.5-2.2,2.8-3.6,3.8c-1.4,0.8-6.4,0.9-7.7,0.8
		c-1.3-0.3-2.5-0.7-3.7-1.3c-0.6-0.2-3.2-0.7-4.6-1.2s-2.4-1.1-2.5-1.4s1.5-0.5,2.1-0.5s3.2,0.3,3.5,0.4s3.7,0,4.5-0.1
		s2.6-0.5,4-0.8c1.8-0.6,3.6-1.4,5.2-2.5c1.5-1.4,2.9-2.9,4-4.7c0.1-0.6-0.2-1.4-0.7-1.3s-2,2.3-2.3,2.8s-4.4,2.6-6.9,3.4
		s-9,0.2-10.3,0.2c-0.9,0-1.7-0.4-2.3-1.1c-0.3-0.3-0.2-0.7,0-0.9c0.1-0.1,0.1-0.1,0.2-0.1c0.4-0.2,0.6-1,0.9-0.8c1,0,2-0.1,3-0.4
		c1.3-0.2,2.6-0.2,3.9-0.2c1.6-0.1,5.3-1.6,7.5-2.9s5-4.9,5.6-5.6s3.4-4.7,3.8-5.5s1.5-4.7,2-5.4
		C240.1,189.1,240.2,188.3,240.1,187.6z M189,238c-0.3,0.4-1.4,1.4-1.8,1.3s-1-1.5-1.2-2.2c-0.2-0.5-0.1-1.1,0.3-1.5
		c0.3-0.2,0.9,0.5,1.5,0.5C190.2,236,189.3,237.6,189,238z M195.1,229.7c-0.8,0.7-1.9,1.1-3,1c-0.9-0.3-0.3-0.8,0.1-1.4
		s1.3-0.7,1.6-0.9c1.2-0.8,1.8-1.1,2.1-0.7S195.8,229.2,195.1,229.7L195.1,229.7z M196,191.6c0.9-0.3,1.8-0.5,2.7-0.7l2.1,0.4
		c0.9,0.2,1.5,1.5,1.9,2.1s1.3,0.9,1.3,1.3s0.3,1.5,0.1,1.7c-1,0.2-1.9,0.2-2.9,0.1c-1.6-0.1-3.1-0.4-4.5-1c-1.5-0.7-2.6-2-3.2-3.6
		C193.7,191.7,195.5,191.6,196,191.6L196,191.6z M203.9,205.7c-0.3,0.2-0.5,0.8-0.8,1c-0.9,0.1-1.9,0.2-2.8,0.1
		c-0.8,0-3.8-0.2-5.1-0.4c-2.7-0.8-5.3-1.9-7.6-3.4c-1.2-1-3.5-3.8-4.2-4.3c-0.6-0.4-1-0.9-1.2-1.6c0.1-0.5,0.3-1,0.8-1.3
		c0.2,0,0.4,0.2,0.4,0.4c1.7,1.7,3.5,3.3,5.5,4.7c1.8,1.2,6.9,2.1,9.3,2.4s5.4,0.3,5.8,0.5S204.2,205.4,203.9,205.7L203.9,205.7z
		 M203.9,201.2c-0.4,0.3-3.3,0.1-4,0.1s-7.8-1-10.4-2.6c-1.7-1.2-3.3-2.6-4.6-4.2c-0.2-0.2-0.8-0.7-0.8-0.7s-1-2.9-0.2-3.2
		s3.2-0.1,3.7,0.4c1,0.7,2.1,1.2,3.2,1.5c0.8,0.1,1,0.1,1.1,0.6s1.5,3.5,3.6,4.2c2.1,0.7,4.2,1.1,6.4,1.4c0.4,0.1,0.9,0.2,1.3,0.1
		c0.4-0.1,1.1-0.1,1.1,0.2S204.4,200.9,203.9,201.2L203.9,201.2z M205.1,219.2c-0.5,0-1,0.2-1.4,0.5c-0.8,0.4-1.7,0.6-2.6,0.7
		c-0.7,0-0.1-0.8,0.3-1.1c0.6-0.5,1.4-0.8,2.1-1c0.3-0.1,0.6-0.2,0.8-0.4c0.3-0.2,1.1,0.1,1.2,0.4S205.5,219.3,205.1,219.2
		L205.1,219.2z M228.4,236c0.6,0,1.2-0.6,1.5-0.5c0.4,0.4,0.5,1,0.3,1.5c-0.2,0.7-0.7,2.1-1.2,2.2s-1.5-0.9-1.8-1.3
		S226.1,236,228.4,236z M220.4,227.8c0.3-0.4,0.9-0.2,2.1,0.7c0.3,0.2,1.3,0.4,1.6,0.9s1,1.1,0.1,1.4c-1.1,0.1-2.2-0.3-3-1
		C220.5,229.2,220.1,228.2,220.4,227.8L220.4,227.8z M212.2,194.8c0-0.4,0.9-0.7,1.3-1.3s1.1-1.9,1.9-2.1l2-0.4
		c0.9,0.2,1.8,0.4,2.7,0.7c0.6,0,2.4,0.1,2.4,0.3c-0.6,1.5-1.7,2.8-3.2,3.6c-1.5,0.6-3,0.9-4.5,1c-1,0.1-1.9,0.1-2.9-0.1
		C211.9,196.2,212.2,195.2,212.2,194.8L212.2,194.8z M212.6,218.5c0.8,0.2,1.5,0.5,2.1,1c0.4,0.3,1.1,1.1,0.3,1.1
		c-0.9-0.1-1.8-0.4-2.6-0.7c-0.4-0.3-0.9-0.4-1.4-0.5c-0.4,0.1-0.5-0.5-0.5-0.8c0.2-0.4,0.7-0.6,1.2-0.4
		C212.1,218.3,212.4,218.4,212.6,218.5L212.6,218.5z M211.9,199.2c0-0.3,0.6-0.3,1.1-0.2c0.4,0,0.9,0,1.3-0.1
		c2.2-0.2,4.4-0.7,6.4-1.4c2.1-0.6,3.4-3.7,3.6-4.2s0.4-0.5,1.1-0.6c1.2-0.3,2.3-0.8,3.2-1.5c0.5-0.5,2.9-0.6,3.7-0.4
		s-0.2,3.2-0.2,3.2s-0.5,0.5-0.8,0.7c-1.4,1.6-2.9,3-4.6,4.2c-2.6,1.7-9.7,2.6-10.4,2.6s-3.6,0.2-4-0.1S211.9,199.4,211.9,199.2
		L211.9,199.2z M232.9,198.6c-0.6,0.5-3,3.3-4.1,4.3c-2.4,1.5-4.9,2.7-7.6,3.4c-1.4,0.2-4.4,0.4-5.1,0.4c-0.9,0.1-1.9,0.1-2.8-0.1
		c-0.3-0.2-0.5-0.8-0.8-1s-0.4-1.8,0-2s3.4-0.2,5.8-0.5s7.5-1.2,9.3-2.4c2-1.4,3.8-2.9,5.5-4.7c0.1-0.2,0.2-0.3,0.4-0.4
		c0.4,0.3,0.7,0.8,0.8,1.3C233.9,197.7,233.5,198.2,232.9,198.6L232.9,198.6z"/>
	<path class="st13" d="M208,238.4c-1,0-3.1-0.1-3.4,0.2c-0.2,0.3-0.3,0.6-0.4,0.9c0,0-1.2-0.1-1.4,0.4s-0.3,1.3,0.1,1.5
		s1,0.2,1.1,0.6s0.1,1.6,0.4,1.7c0.8,0.2,1.7,0.3,2.6,0.3c1.1,0,4.6,0,4.7-0.1c0.2-0.1,0.3-0.4,0.4-0.6c0-0.3-0.1-1.3,0.4-1.3
		s1-0.1,1.1-0.5s0-1.7-0.3-1.8l-1.2-0.1c0,0-0.3-1.2-0.9-1.2S208.6,238.4,208,238.4z"/>
	<path class="st13" d="M207.4,245.7c-1.2,0-2.8,0.2-2.9,0.5s-0.1,0.6-0.3,0.6s-1.4,0.2-1.4,1.1s0.1,1.2,0.5,1.3s0.8,0.3,0.9,0.8
		s0.2,1.2,0.8,1.2s3.7,0.1,4.2,0.1c0.8,0.1,1.6,0.1,2.3,0c0.3-0.1,0.3-0.4,0.4-0.8s-0.1-0.6,0.1-0.8s1.2-0.9,1.2-1.5
		s-0.9-1.3-1.2-1.5s-0.3-0.7-0.9-0.8C209.9,245.8,208.6,245.7,207.4,245.7z"/>
	<path class="st13" d="M207.5,253.4c-1.3,0-2.1,0.1-2.4,0.4c-0.1,0.2-0.3,0.4-0.3,0.7c0,0-1.6,0.3-1.8,0.7s-0.4,1.4,0,1.6
		s1,0.1,1.1,0.4s0,1.4,0.3,1.5c0.9,0.2,1.7,0.3,2.6,0.3c0.9,0,3.6,0,3.9,0c0.4,0,0.7-0.3,0.7-0.7c0.1-0.5,0-1.4,0.5-1.4
		s0.9-0.1,0.9-0.7c0-0.6-0.3-1.2-0.9-1.6c-0.5-0.1-0.5-1.2-1.2-1.3S207.5,253.4,207.5,253.4z"/>
	<path class="st13" d="M208,260.9c-0.7,0-2.6-0.1-2.8,0.2s-0.1,0.8-0.4,0.9s-1.7,0.1-1.7,0.7s0,1.6,0.4,1.7s1.2-0.1,1.2,0.3
		c-0.1,0.5-0.1,1-0.1,1.5c0.1,0.4,0.5,0.7,0.9,0.8c0.5,0,5.5,0,5.8,0s0.3-0.2,0.3-0.5s-0.3-1.7,0-1.8s1.1-0.1,1.1-0.6s0-1.5-0.4-1.7
		s-0.7-0.2-0.9-0.5s-0.4-0.8-0.8-0.8L208,260.9z"/>
	<path class="st18" d="M189.2,300.9c-0.9,0.1-1.7,0.6-2.2,1.3c-0.3,0.5-0.6,1-0.8,1.6c0,0.2-0.4,0.6-0.2,0.9s0.4,0.6,0.2,0.7
		s-0.8,0.4-0.9,0.2s-0.5-2.4-1.2-2.4c-0.9,0.1-1.7,0.6-2.3,1.4c-0.5,0.8-1.4,1.3-1.6,3c-0.2,2-0.1,3.9,0.1,5.9
		c0.2,0.5,1.6,0.6,2.1,1.7s6.5,26.7,6.8,28.6s3.9,21.3,4,22.3c0.2,1.5,0,3.1-0.4,4.6c-0.5,1.2-0.7,2.5-0.7,3.8
		c0.2,0.7,0.8,2.5,1,3.1s0.7,1.2,1.2,1.2c0.6,0,1.1-0.2,1.6-0.4c0.4-0.2,3.4-1.5,4.4-1.3c1,0.2,2,0.3,3.1,0.2c1-0.1,1.9-0.5,2.6-1.1
		c0.6-0.6,0.6-1.6,0.4-3c-0.2-1.4-0.4-2.9-0.9-4.2c-0.4-0.6-1-1.1-1.7-1.3c-1.2-0.3-2.3-1.1-2.9-2.1c-2.1-4.5-3.6-9.2-4.7-14
		c-1.1-5.5-4.6-21.4-5.2-25.7s-1.1-9.7-1.1-9.7c0.7-0.6,1.4-1.2,1.9-2c0.2-0.5,0.3-1.6-0.3-2c-0.5-0.3-1.1-0.5-1.6-0.5
		c-0.2,0-0.3-0.9,0-1.2c0.3-0.4,0.7-0.6,1.1-0.8c0.3,0,1.4,0.2,1.8-0.1c0.8-0.8,1.5-1.7,2-2.7c-0.3-1.6-1-3.1-2.2-4.2
		C191.7,301.7,190.5,301.2,189.2,300.9z"/>
	<path class="st18" d="M198.8,380.3c-0.9,0-3.2-0.8-4.3-0.5s-1.4,2.1-1.3,2.9c0.4,1.3,1.2,2.4,2.2,3.3c1.9,1.7,3.1,4.2,3.3,6.8
		c0.4,3.7,2.5,18.9,2.6,20.4s1.8,14.9,1.6,15.4s-1,1-1,1.9s0.2,2.3,0.1,3.1s-0.6,3.9,0.3,4.2c1.1,0.3,2.2,0.3,3.3,0.1
		c0.9-0.1,1.7-0.2,2.6-0.1c0.4,0,0.9,1.6,1.4,2c0.5,0.4,1.2,0.3,1.7-0.1c0.4-0.4,0.4-1.3,0.4-2c-0.1-1.2-0.4-2.5-0.6-3.7
		c-0.2-0.3-0.8-1.2-1.5-2.4s-1.8-2.3-1.9-3.1s-3.1-29.3-3.4-31.3s-0.5-8.3,0.1-9.6s2.6-4.6,2.6-5.5s0.1-2.7-1-3.2
		c-0.7-0.4-1.5-0.5-2.2-0.3c-0.6,0.1-1.3,0.2-1.4,0.2S198.8,380.3,198.8,380.3z"/>
	<path class="st19" d="M198.4,374.7c-0.9,0.3-1.8,0.9-2.3,1.8c-0.5,1-0.8,2.1-0.8,3.2c0.7,0.9,1.6,1.6,2.6,2.2
		c0.6,0.5,1.4,0.7,2.1,0.8c0.7-0.1,1.9-1.6,2.1-2.2c0.4-0.7,0.8-1.4,1-2.2c0.1-0.8-0.3-1.6-1-2C200.9,375.4,199.6,374.5,198.4,374.7
		z"/>
	<path class="st13" d="M200.4,452.5c0,0-0.6,0.4-0.7,0.8c-0.1,0.7,0,1.5,0.4,2.2c0.8,1.3,1.4,2.7,1.9,4.1c0.1,0.6,0.4,3.5,0.5,3.8
		s1.2-0.1,1.5-0.3s-0.3-1.9-0.7-2.9c-0.6-1.3-1-2.7-1.3-4.1c-0.1-0.6-0.1-1.7-0.2-2.2S201,452.2,200.4,452.5z"/>
	<path class="st13" d="M201.8,453.4c-0.5,0.3-0.8,0.6-0.8,1s0.9,1.6,1,2s1.2,4.2,1.3,4.7c0.4,1,0.7,1.9,0.9,2.9
		c0,0.4,0.4,0.8,0.8,0.7c0.1,0,0.1,0,0.2,0c0.5-0.1,0.8-1.3,0.7-2s-1.2-7-1.2-7l-0.6-2.5C203.3,453.1,202.5,453.1,201.8,453.4z"/>
	<path class="st13" d="M204,438.4c-0.5,0.1-1.5,0.6-1.5,1.4s0.4,2.8,1,3.3c0.5,0.6,0.9,1.3,1.1,2c0.1,0.4,1.3,0.7,2,0.6
		s2.2-0.3,2.6-0.2c0.8,0.1,1.7,0.2,2.5,0.1c0.1-0.2-0.2-3.6-0.1-4c0-0.8-0.3-1.6-0.8-2.1c-0.7-0.6-1.1-1.6-1.9-1.6
		c-0.7-0.1-1.4,0.1-2,0.4C205.6,438.8,204.5,438.2,204,438.4z"/>
	<path class="st13" d="M210.5,449.1c-0.6,0.1-1.2,0.2-1.7,0.4c-0.3,0.4-0.5,0.9-0.4,1.4c0.1,0.5,0.1,1.9,0.2,2s0.4,0.5,1.3,0.4
		s1.5-0.1,2.1-0.1s1.3,0.1,1.4-0.1c0.1-0.7,0.1-1.3,0-2c-0.2-0.5-0.6-0.8-0.9-1.1s-0.2-0.5-0.4-0.8s-1.1-0.2-1.3-0.2L210.5,449.1z"
		/>
	<path class="st13" d="M206.6,448.5c-0.4,0.1-1.4,0.2-1.5,0.4c-0.1,0.8-0.1,1.7-0.1,2.5c0.1,0.8-0.2,1.8,0.4,1.7s1.4-0.4,1.8-0.3
		c0.3,0.1,0.7,0.2,1,0.1c0.2-0.1,0.3-0.1,0.3-0.5s-0.2-2.9-0.2-3.1c0-0.2-0.1-0.5-0.3-0.6C207.7,448.5,207.1,448.4,206.6,448.5z"/>
	<path class="st13" d="M201.6,446.4c-0.4,0.2-0.6,0.6-0.6,1c0,0.6-0.3,3.3-0.3,3.7s-0.5,1.1-0.3,1.7c0.3,0.5,0.8,0.7,1.4,0.7
		c0.4-0.1,0.6-0.3,0.7-0.7c0-0.3,0.3-2.9,0.2-3.2s0-1.5,0.4-1.5s1.1-0.4,1.1-0.7s-0.2-1.5-0.7-1.5
		C202.9,446,202.3,446.1,201.6,446.4z"/>
	<path class="st13" d="M202.5,442.8c-0.5,0-1.4,1.6-1.4,2s-0.2,1.9,0.2,2s1.2-0.3,1.9-0.2s0.9,0,0.9-0.1c0.3-0.3,0.5-0.8,0.5-1.2
		c-0.1-0.7-0.4-1.3-0.8-1.8c-0.3-0.3-0.3-0.4-0.5-0.6S202.5,442.8,202.5,442.8z"/>
	<path class="st13" d="M204,447.6c-0.3,0-0.6,0-0.9,0.1c-0.5,0.2-0.9,0.7-0.9,1.2c0,0.7,0.3,1.6,0.2,1.9c-0.2,0.5-0.2,1-0.2,1.6
		c0.1,0.2,0.4,1.3,0.9,1.5c0.5,0.1,0.9,0.2,1.4,0.1c0.2,0,0.7,0,0.7-0.2s-0.1-1-0.1-1.2s-0.3-2.1-0.2-2.3c0.1-0.6,0.1-1.1,0.1-1.7
		C205,448.4,204.2,447.5,204,447.6z"/>
	<path class="st13" d="M206.2,445.9c-0.4,0-1.5-0.1-1.9,0.1s-0.5,1.2-0.4,1.6c0.2,0.5,0.7,0.9,1.2,0.9c0.7,0,1.7-0.1,2.1,0
		s1,0.6,1.3,0.7s0.6,0,1.4-0.1s1.9,0.2,2.2,0c0.4-0.4,0.6-1,0.6-1.6c0-0.6-0.2-1.7-1.1-1.7s-2.4,0-2.8,0S206.2,445.9,206.2,445.9z"
		/>
	<path class="st13" d="M209.1,453.5c-0.3,0-0.4,1.5-0.1,1.9c0.7,1,1.3,2.1,1.7,3.3c0,0.5,0.1,3.1,0.1,3.5s-0.4,1.4-0.1,1.7
		s1.3,0.1,1.8,0s1.1-0.3,1.1-0.7s-0.6-1.3-0.6-1.9s-0.4-4-0.3-4.6c0.2-1,0.4-2.1,0.5-3.1c-0.1-0.2-1.9-0.2-2.6-0.1
		S209.1,453.5,209.1,453.5z"/>
	<path class="st13" d="M206.4,453.1c-0.3,0-1.1,0.4-1.1,0.6c0.2,0.9,0.5,1.7,1,2.4c0.4,0.4,0.7,0.8,1,1.2c0.4,0.5,1.1,4.2,1.2,5
		s-0.3,1.8,0.2,2s1.2,0.4,1.3,0s-0.4-1.8-0.4-2.5s-0.6-5.7-0.7-5.9s-0.2-1.5-0.2-2S208.4,452.9,206.4,453.1z"/>
	<path class="st13" d="M204.3,454c-0.5,0.2-0.8,0.7-0.7,1.2c0.1,0.5,1,1.3,1,1.7s0.4,3.4,0.6,4.1c0.3,0.8,0.6,1.7,0.9,2.5
		c0.1,0.7,0.3,1.4,0.8,1.4s1.1-0.1,1.1-0.5s-0.6-2-0.6-2.6s-0.5-4-0.5-4.4s-0.5-1.7-0.6-2.2S205.9,453.7,204.3,454z"/>
	<path class="st13" d="M211.4,463.9c-0.5,0.1-0.9,0.4-0.8,0.8c0.3,0.6,0.6,1.2,0.8,1.8c0.1,0.6,0.1,1.3,0,1.9
		c-0.1,0.2-0.5,0.6-0.1,0.8s1.9,0.4,2,0.1s-0.2-0.6-0.2-1c0-1,0.1-2,0.3-2.9c0.2-0.4,0.3-1.5-0.4-1.6
		C212.4,463.7,211.9,463.8,211.4,463.9z"/>
	<path class="st13" d="M209,464.2c-0.3,0-0.8,0.5-0.7,0.8c0.3,0.4,0.6,0.9,0.9,1.4c0.1,0.7,0.2,1.4,0.1,2.1
		c-0.1,0.1-0.1,0.5,0.4,0.5s1.1,0,0.9-0.4c-0.2-0.7-0.3-1.4-0.3-2.1c0-0.5-0.1-1.3-0.1-1.6S209.8,464.1,209,464.2z"/>
	<path class="st13" d="M206.8,465c-0.3,0-0.6,0.3-0.4,0.6c0.3,0.6,0.4,1.3,0.6,2c0,0.4,0.1,1.3,0.4,1.2s1.1,0.1,1.1-0.3
		c-0.1-0.6-0.3-1.2-0.3-1.9c0-0.5,0.2-1.5-0.3-1.7C207.5,464.9,207.1,464.9,206.8,465z"/>
	<path class="st13" d="M205.2,464.6c-0.5,0.1-0.7,0.5-0.6,0.8c0.3,0.6,0.4,1.2,0.6,1.8c0,0.3,0.3,2,0.8,2c0.5,0,0.8-0.4,0.8-0.8
		c0-0.1,0-0.2,0-0.2c-0.1-0.7-0.7-2.1-0.6-2.5S205.8,464.4,205.2,464.6z"/>
	<path class="st13" d="M202.8,463.5c-0.4,0.1-0.2,0.8,0,1c0.3,0.5,0.6,1,0.7,1.6c0.1,0.4,0.8,2.4,1,2.9s0.6,1.1,0.9,1.1
		c0.4,0,0.7-0.3,0.7-0.7c0-0.1,0-0.1,0-0.2c-0.2-0.6-1.3-3.8-1.3-4.2s-0.3-1.6-0.6-1.7C203.6,463.3,203.2,463.3,202.8,463.5z"/>
	<path class="st13" d="M212.1,469.3c-0.5,0-1.2,0.1-1.2,0.3s0.5,1.3,0.6,1.6s-0.2,2.1,0.1,2.1s1,0.1,1-0.1s0.1-1,0.1-1.5
		c0-0.4,0.1-0.9,0.4-1.2C213.2,470.2,213.3,469.2,212.1,469.3z"/>
	<path class="st13" d="M209.7,469c-0.4,0.1-0.6,0.6-0.4,0.9c0.1,0.5,0.5,2.1,0.5,2.4s0.1,2.1,0.6,2.1s0.3-1.7,0.3-2.1s0-1.6,0-2.1
		S210.4,468.8,209.7,469z"/>
	<path class="st13" d="M207.9,469c-0.4,0-0.6,0.4-0.4,0.8c0.3,0.5,0.5,0.9,0.8,1.5c0,0.3,0.3,2.6,0.6,2.7s0.4-0.4,0.4-1
		s-0.2-1.8-0.3-2.3S209.2,468.9,207.9,469z"/>
	<path class="st13" d="M206.5,469.2c-0.3,0.3-0.4,0.8-0.2,1.2c0.3,0.4,0.6,2,0.8,2.1s0.9,0.1,0.8-0.3s-0.8-1.9-0.9-2.3
		S207.3,468.8,206.5,469.2z"/>
	<path class="st18" d="M222.2,299c-1,1.3-1.8,2.7-2.4,4.2c-0.3,0.8,0.9,2.2,1.4,2.5c0.8,0.2,1.6,0.3,2.5,0.4
		c0.9,0.4,1.6,0.9,2.2,1.7c0.2,0.4-0.4,1-0.7,1.3c-0.3,0.5-0.3,1.1-0.1,1.7c0.2,0.5,1.1,0.8,1.2,1.3c-0.1,3.3-0.4,6.6-1,9.8
		c-0.6,3-8.1,30-8.8,32s-2.7,7.6-3.7,8.5c-0.9,0.7-1.9,1.1-3,1.3c-0.6,0.1-2,1.8-2.4,3.6c-0.3,1.5-0.3,3,0,4.5
		c0.2,0.3,0.1,0.4,0.7,0.4s3.2-0.7,3.9-0.1c0.9,0.9,1.9,1.6,3,2.2c1.5,0.7,2.4,1.1,3.8,0.9s2-1.5,2.4-2.4c0.5-0.8,0.7-1.7,0.8-2.7
		c-0.1-0.9-1.7-3.4-1.6-4.6s3.4-16.1,4-18.4s8.8-33.2,9-33.7s0.3-1.6,0.9-1.9s2-2.2,1.5-5.6s-2.2-5.6-2.7-5.7s-0.7,0.5-0.9,0.9
		s-0.6,1.2-0.9,1.3c-0.7,0.1-1.4,0-2-0.2c-0.7-0.6-1.2-1.4-1.5-2.3c0-0.5-0.8-2.7-2.6-2.6S222.9,298.2,222.2,299z"/>
	<path class="st13" d="M218.2,442.9c-0.7-0.1-1.3-0.4-1.5,0c0,0.7,0,1.4,0.1,2.1c0,0.4-0.1,3.6-0.1,3.9s0.7,0.5,1.4,0.5
		s2.2,0.3,2.3-0.2c0.2-0.9,0.3-1.7,0.4-2.6c0.1-0.8,0.1-1.7,0.1-2.5c-0.3-0.7-0.9-1.3-1.6-1.5C218.9,442.6,218.5,442.7,218.2,442.9z
		"/>
	<path class="st13" d="M211.9,434.4c-0.4,0.5-1,2-1.4,2.4c-0.6,0.8-1.1,1.7-1.2,2.7c0,0.8-0.6,2.3,0.1,2.5c1.3,0.1,2.5,0.1,3.8,0
		c1.1,0,2.1,0.2,3.1,0.5c0.7,0.2,1.5,0.3,2.2,0.4c0.7,0.1,1.3,0.4,1.9,0.8c0.1,0.3,0.2,1.3,0.5,1.1s0.4-0.9,0.4-1.4
		c-0.1-0.9,0.2-1.7,0.6-2.4c0.8-1.3,1.3-2.6,1.5-4.1c0-1.1-0.1-2.2-0.4-3.3c-0.2-0.8-0.8-1.4-1.6-1.7c-0.6,0-1.2,0.3-1.7,0.6
		c-0.3,0.3-2.5,2.2-3.2,2.3s-1.8-0.1-2.2-0.1S212.1,434.2,211.9,434.4z"/>
	<path class="st13" d="M208.6,443c-0.3,0.6-0.5,1.3-0.5,2c-0.1,0.5,1,0.5,1.4,0.7s1.5-0.4,2.1-0.5s1.4,0,2.1-0.1
		c0.9-0.3,1.7-0.7,2.5-1.1c0.2-0.1,0.7-0.1,0.7-0.6s-0.4-0.8-1.1-1.1c-0.9-0.2-1.8-0.3-2.7-0.3c-0.8,0-1.6,0.2-2.4,0.1
		C209.9,442.1,209.2,442.4,208.6,443z"/>
	<path class="st13" d="M208.7,445.1c-0.5-0.1-0.8,0.6-1,1.1s-0.7,2-0.7,2.4c-0.1,0.4,0.2,0.8,0.6,0.8c0,0,0.1,0,0.1,0
		c0.6,0.1,1.3,0.3,1.9,0.4s0.5-0.5,0.6-1.2c0.1-0.9,0.1-1.8,0.1-2.6C210.4,445.6,209.3,445.2,208.7,445.1z"/>
	<path class="st13" d="M211.2,448.9c0.6,0.1,1.1,0.1,1.7,0.1c0.4-0.1,0.8,0.2,0.8-0.5s0.1-2,0.1-2.4s0.5-1.2-0.1-1.2
		c-0.9-0.1-1.8,0-2.7,0.2c-0.4,0.3-0.7,0.8-0.6,1.3c0,0.9-0.2,2.4,0.2,2.5C210.8,449,211,448.9,211.2,448.9z"/>
	<path class="st13" d="M214,449.4c0.6,0.1,1.2,0.2,1.9,0.2c0.4,0,0.7-0.1,1-0.3c0.2-0.3,0.1-2.5,0.2-3s0.2-1.9-0.1-2.1
		s-0.1-0.6-0.8-0.3s-1.4,1-1.7,1.1s-0.6,1.8-0.6,2.2S213.4,449.3,214,449.4z"/>
	<path class="st13" d="M208.2,449.3c-0.5-0.1-1,0.3-1.1,0.9c-0.1,0.6,0.1,4.2,0,4.8s-1.5,3.9-1.2,4.4c0.2,0.4,0.7,0.7,1.2,0.7
		c0.5,0,1-0.1,1.5-0.1c0,0,0.4-3.9,0.4-4.3s0.7-3,0.8-3.7s0.6-1.8,0.1-2C209.3,449.6,208.7,449.4,208.2,449.3z"/>
	<path class="st13" d="M210.9,449c-0.3,0-0.4,0.7-0.4,1.1s-0.1,5-0.1,5.5s-0.9,4-0.9,4.2s1.2,0.2,1.2,0.2s0.5-2.2,0.6-2.6
		c0.2-1.1,0.5-2.2,0.8-3.3c0.2-0.7,0.3-1.3,0.5-2c0.1-0.3,1.4-2.9,1-3.1C212.6,449,211.7,449,210.9,449z"/>
	<path class="st13" d="M213.9,449.6c-0.2-0.1-1,1.5-1,2.1s-0.2,4.4-0.3,4.8s-0.8,3.6-0.8,3.8s0.9,0.2,0.9,0.2s0.3-1.6,0.4-2.1
		c0.3-1.1,0.6-2.2,1.1-3.2c0.3-0.5,0.9-2.7,1.2-3.2s1-1.9,0.8-2.1C215.5,449.8,214.7,449.7,213.9,449.6z"/>
	<path class="st13" d="M217.2,449.7c-0.6,0.2-1.1,0.7-1.1,1.3c-0.1,0.8-0.6,3.9-0.7,4.6s-0.9,4.2-0.9,4.5s0.6,0.5,0.8,0.5
		c0.4-0.6,0.7-1.2,0.8-1.9c0.1-0.5,0.6-4.1,1.1-4.7c0.7-1,1.4-2.1,2-3.3c0.2-0.4,0.1-0.9-0.5-1S217.2,449.7,217.2,449.7z"/>
	<path class="st13" d="M220.9,448.9c-0.6,0.4-1.1,0.9-1.5,1.5c-0.4,0.9-0.8,1.9-1,2.8c-0.2,1.7-0.6,3.4-1.1,5.1
		c-0.2,0.4-1,1.1-0.6,1.4s1-0.4,1.3-1s1.2-3.6,1.6-4c0.8-1.1,1.5-2.2,2-3.4C222,450.4,221.9,448.9,220.9,448.9z"/>
	<path class="st13" d="M205.7,460.1c0,0.5,0.2,1.1,0.3,1.6c0.1,0.7,0,1.3-0.1,2c-0.1,0.2-0.4,2.7-0.1,3.2s1.2,0.2,1.2,0.2
		c0.2-0.5,0.4-0.9,0.6-1.4c0.1-0.4-0.3-1.8-0.3-2.3s0.5-2,0.6-2.4s0.2-0.7-0.4-0.9C207,460.1,206.3,460,205.7,460.1z"/>
	<path class="st13" d="M209.5,460.3c-0.2,0-0.5,0.5-0.5,1.5c0,0.9-0.2,1.8-0.3,2.7c-0.1,0.3,0.1,0.7,0.5,0.8c0,0,0.1,0,0.1,0
		c0.4,0,0.7-0.5,0.8-1.3s0.4-2,0.5-2.4S211.6,460.5,209.5,460.3z"/>
	<path class="st13" d="M212,460.7l-0.3,1.5c-0.1,0.3-0.8,2.5-0.6,2.8s0.7,0.5,0.8,0.3s0.3-1.3,0.6-1.8s0.8-2.4,0.6-2.6
		C212.7,460.8,212.4,460.7,212,460.7z"/>
	<path class="st13" d="M214.3,460.6c-0.2,0-0.6,1.8-0.7,2.1s-0.4,1.5-0.3,1.5s0.5,0.1,0.8-0.7c0.4-0.8,0.8-1.6,1.1-2.4
		C215.4,460.8,214.9,460.6,214.3,460.6z"/>
	<path class="st13" d="M216.6,460.1c-0.8,1-1.4,2.1-1.7,3.4c0,0.2,0.2,0.3,0.4,0.3c0.1,0,0.1-0.1,0.2-0.1c0.2-0.3,0.9-1.3,1.2-1.6
		s0.8-1.1,0.6-1.4S216.6,460.1,216.6,460.1z"/>
	<path class="st13" d="M206.4,467.8c-0.3,0.3-0.4,0.7-0.4,1.1c0,0.5,0.4,0.7,0.7,0.6s0.7-1,0.7-1.3S206.4,467.8,206.4,467.8z"/>
	<path class="st13" d="M209,465.5c-0.3,0-0.5,1.9-0.5,2.4s0.2,0.5,0.6,0.5s0.5-1.2,0.6-1.6S209.9,465.5,209,465.5z"/>
	<path class="st13" d="M208.8,468.8c-0.2,0.6-0.3,1.2-0.2,1.9c0,0.4,0.2,0.5,0.5,0.5s0.4-1.8,0.4-2.1S208.8,468.8,208.8,468.8z"/>
	<path class="st13" d="M211.3,465.5c-0.2,0-0.5,0.8-0.6,1.2s-0.4,1.7-0.4,2s-0.7,1.6-0.1,1.7s0.7-0.6,0.7-1c0-0.8,0.1-1.5,0.4-2.2
		C211.6,466.8,211.8,465.5,211.3,465.5z"/>
	<path class="st13" d="M213.1,464.5c-0.2,0-0.5,1.1-0.6,1.3s-0.7,2.5-0.8,2.7s0,0.7,0.2,0.7s0.4-1.3,0.6-1.4
		c0.4-0.8,0.8-1.6,1.1-2.5c0.1-0.3,0-0.7-0.3-0.8C213.3,464.5,213.2,464.5,213.1,464.5z"/>
	<path class="st13" d="M214.8,464c-0.3,0.1-0.5,0.4-0.6,0.8c0,0.4-0.4,1.5-0.4,1.7s0.2,0.5,0.4,0.4c0.3-0.4,0.5-0.9,0.7-1.4
		C215,465.2,215.5,464,214.8,464z"/>
	<path class="st14" d="M219.8,377.3c0.3,0,1.4-0.5,1.9-0.2s1.4,1.2,1.4,2s0.4,1.1,0.4,1.5c-0.3,0.9-0.6,1.8-1.1,2.6
		c-0.4,1.9-0.6,3.8-0.5,5.8c0.1,1.5,0.4,14.6,0.2,16.8s-1.4,20.1-1.4,21.7s0.2,2.2,0.1,2.6s0.2,4.8,0.1,5.3s0,2.8-0.1,3
		c-0.3,0.4-0.8,0.7-1.3,0.7c-0.8-0.2-1.4-0.7-1.9-1.3c-0.2-0.9-0.4-1.8-0.7-2.7c-0.2-0.7-0.3-1.3-0.2-2c0-0.7,1.5-5.6,1.5-6.5
		s0.4-16.8,0.5-19.3s-0.3-11.8-0.1-13.5s0-3.5,0.1-5.1s0.3-4.2-0.1-5.1s-1.6-1.7-1.7-2.2S219.8,377.3,219.8,377.3z"/>
	<path class="st18" d="M209.3,373.7c-0.5,0.5-0.8,1.1-1,1.8c-0.3,1-0.1,2.1,0.4,3c0.6,1,1.4,5.7,1.4,7s0.5,18.2,0.6,20.8
		s0.9,19.1,0.7,20.2s-2.6,4.4-2.8,5.4s-0.4,3,0.4,3.1s1.5-0.9,2-1c0.9-0.1,1.8-0.1,2.6,0.1c1,0.2,2,0.3,3,0.2
		c0.6-0.1,1.4-4.2,1.2-5.8s-1.2-3.2-1.5-5c-0.4-2.3-0.6-4.7-0.6-7.1c0-1.9-0.2-13.6-0.5-15.6s0.4-14.7,1.2-16.6s3.2-3.4,3.6-3.9
		c0.5-1.1,0.7-2.3,0.6-3.6c-0.4-1-1-2-1.8-2.7c-0.6-0.4-6.7-1.7-7.4-1.5C210.7,372.9,210,373.3,209.3,373.7z"/>
	<path class="st19" d="M211.9,369.8c-1.1,0-2.3,0.3-3.2,1c-0.5,1-0.6,2.1-0.3,3.2c0.6,0.9,1.1,1.9,1.5,2.8c0.1,0.6,0.7,1.7,1.3,1.7
		c1.2-0.4,2.3-1.2,3.1-2.2c0.3-0.9,0.4-1.9,0.3-2.8c-0.3-0.7-0.6-1.4-0.7-2.1C213.8,370.4,212.9,369.7,211.9,369.8
		C211.9,369.8,211.9,369.8,211.9,369.8z"/>
	<path class="st18" d="M198.5,280.6c0,0-3.9-2.8-5.9-3.1s-5,0.5-5.7,3.5c-0.6,3.3-0.1,6.7,1.3,9.6c1.5,3.3,4.5,9.4,4.6,10.3
		s2.1,1.6,3.5,3.6s2,4.3,2.9,5s4.9,1.7,5.3,2.2s1.8,2.5,2.7,2.6s2.2,0.1,2.4-0.9s0.6-1.8,0-2.2s-3.1-0.6-3.7-1
		c-1.6-1.5-3.1-3.2-4.5-4.9c-0.7-1-2.7-5.5-3.1-5.9c-0.4-0.5-0.6-1.1-0.5-1.8c0-0.7,0.2-2.1,0.2-2.5c0,0,1.3-0.4,1.6-0.9
		s0-3.4,0.5-3.7s0.6-1.5,3.1-1.3s13.9-0.1,14.6,0s1.5,0,1.5,0.8s-0.4,3.2,0.1,3.8s1.3,1.1,1.4,2c-0.4,2.6-1,5.1-1.8,7.6
		c-0.7,1.9-1.7,4.1-2.4,4.8c-1.1,1-2.2,1.9-3.4,2.7c-0.4,0.1-2.2-0.2-2.2,0.4s-0.4,2.2,1,2.2c1.4-0.2,2.8-0.6,4-1.3
		c0.4-0.4,0.9-0.8,1.3-1.2c0.6-0.4,2-2,2.9-2.2c0.9-0.4,1.7-1.2,2.2-2.1c0.1-0.4-0.1-2,0.5-2.6s3.9-4.8,4.4-6.1s2.7-5.8,2.9-9
		s0.3-7.8-0.6-9.7s-2-3.3-3.1-3.2s-3.8,2-4.1,2.4c-0.7,0.8-1.5,1.5-2.4,2.1c-0.6,0.2-7.3,0.6-7.3,0.6l-10.3,0.3L198.5,280.6z"/>
	<path class="st12" d="M207.6,269.8c-1.3,0-2.6-0.1-2.7,0.4c-0.1,0.7-0.3,1.4-0.5,2.1c-0.2,0.4-2.7,0.1-2.9,0.6s0.2,1.3,1.9,1.8
		s0.6,0.8,0.5,1.1c-0.3,0.5-0.4,1.1-0.4,1.8c0.1,0.5-1.5,0.8-2.1,0.8s-2.3-0.6-2.9-0.3c-1,0.7-1.3,2.1-0.7,3.1
		c0.8,1.3,1.6,3.3,2.4,3.7s1.2,0.7,1.3,1.6s1.6,3.5,1.8,4.5s1,2.7,2,3s1.7,0,1.9,0.6s1,3.4,1.3,4.2s0.6,2.3,1.4,2.3s0.6,0.5,1.1-1.1
		s0.8-4,1.3-4.3s2.8-1.5,3.1-2.3s1.1-4.7,1.4-5.5s0.8-2.7,0.9-3.1s2.7-3.6,2.7-4.7s-0.4-2.3-1.5-2.5s-3.9-0.1-4.3-0.2s-1-2-1-2.5
		s0.1-0.8,0.4-0.9s2-0.3,2-1.4s-2.7-0.8-2.9-0.8s-0.2-1.8-0.8-2.1S207.6,269.8,207.6,269.8z"/>
</g>
<g id="Layer_11">
	<path class="st20" d="M229.7,279.9l-9,6.4l-9.1,4l-1.6,0.9l-4.5-2.1l-5.8-2.3l-5.7-2.3l-4.6-1.2l-2.5-0.8c-0.5-0.2,0.6-2.7,0.6-2.7
		l-2.9,1.8l-0.2,2.2l1.2,0.9l-1.1,0.9l0.7,1.7l1.1,1.1l0.5,2.2l-0.4,4.4l-0.2,2.5l0.4,5.5l0.2,2.8l0.5,5.5l2-5.2l1.8,12.4l2.2-7.1
		l3.6,15.8l2.7-15.6l0.9,2.1l3.3-6.9l2,6.4l1.4,5.8l2.2-11.7l1.6,2.8l1.5,13.4l1.8-13.6l1.7,5.5l2.7-8.7l1.5,9.1l3.3-15.6l1.4,6.4
		l1.6-4.9l0.6,1.4l2.5-10.4l0.8-5.8l1.8-3.2l0.1-1.4l-0.6-0.7l0.5-2.8l-1.6-0.7l-1.6-0.2C229.3,278.6,229.6,279.2,229.7,279.9z"/>
	<line class="st21" x1="185.4" y1="281.7" x2="186.9" y2="282.5"/>
	<line class="st21" x1="230.7" y1="279.1" x2="228.9" y2="280.5"/>
	<line class="st21" x1="231.7" y1="281.6" x2="227.6" y2="283.9"/>
	<line class="st21" x1="185.6" y1="284.6" x2="190" y2="286.3"/>
	<line class="st21" x1="210.6" y1="290.9" x2="202.1" y2="295.5"/>
	<line class="st21" x1="209.6" y1="292.7" x2="220" y2="288.9"/>
	<line class="st21" x1="186.3" y1="288.3" x2="192.3" y2="289.7"/>
	<line class="st21" x1="205.6" y1="290.5" x2="209" y2="291.7"/>
	<line class="st21" x1="216.9" y1="291.3" x2="224.4" y2="289.5"/>
</g>
<g id="Layer_6">
	<path class="st13" d="M188.9,145.7c-1.6,0.6-5.7,3-7.2,5c-1.3,1.7-2.3,3.6-3,5.6c-0.2,1.6-0.3,3.2-0.3,4.9c0,1.1-0.2,2.2-0.3,3.3
		c0.1,1.2,0.5,2.4,0.9,3.6c0.4,0.7,2.3,3.8,2.5,4.6c0.3,1.2,0.7,2.3,1.3,3.3c0.4,0.6,1.8,0.9,2.3,1s1.9,0.2,1.9,0.2s0.5,2.5,0.7,2.9
		s1.9,4.7,1.9,4.7s0.9,3.2,1.2,3.8s1.6,1.9,2.6,1.8s2.8-0.3,3.4-0.4c0.8-0.2,1.7-0.5,2.4-1c0.8-0.5,1.4-1.2,1.9-1.4s4.1-5.1,4.8-5.8
		s3.4-3.3,3.2-4.2c-0.4-1.8-0.7-3.6-0.9-5.5c0.1-0.3,2.1-1.2,3-1.9s2.1-2,2.1-5.7c0-2.1-0.1-4.2-0.4-6.3c-0.2-1.9-0.5-3.8-1-5.7
		c-0.6-1.6-1.5-6.1-5.7-7.4C200.4,143.4,194.4,143.6,188.9,145.7z"/>
	<path class="st22" d="M191.2,163.2c-0.4,0.3-0.8,0.6-1.3,0.8c-0.4,0.1-0.5,0.6-0.5,0.8c0.3,0.5,0.5,1,0.7,1.5
		c0.3,1.1,0.8,2.2,1.4,3.2c0.6,0.4,1.2,0.8,1.8,1.1c0.6,0.2,1.2,0.4,1.8,0.4c0.2,0,0.2,0.2,0.6,0.3s0.1-0.6,0.4-0.8
		c0.8-0.5,1.5-1.1,2.2-1.7c0.3-0.4,0.5-1,0.5-1.5c-0.1-0.8-0.3-1.5-0.6-2.2c-0.4-0.9-1-1.7-1.6-2.5c-0.4-0.5-1.3-0.3-2-0.4
		c-0.6-0.1-1.2-0.1-1.8,0.1C192.4,162.6,191.2,163.2,191.2,163.2z"/>
	<path class="st22" d="M181.8,166.7c-0.3,0.1-0.5,0.5-0.7,0.8c-0.3,0.4-0.4,0.8-0.3,1.2c0.1,0.6,1.5,3.7,1.4,4
		c0.1,0.5,0.2,1,0.4,1.5c0.1,0.4,0.8,0.5,1.1,0.5s1.4,0,1.5-0.3c0.1-0.4,0.2-0.8,0.3-1.2c0.2-0.4-0.3-1.8-0.3-2.2s0.6-2.1,0.3-2.8
		c-0.5-0.7-1.3-1.1-2.2-1.1C182.5,167,182.4,166.5,181.8,166.7z"/>
	<path class="st22" d="M187.2,171.1c0.1-0.1,1.8,0.1,1.9,0.4c0.2,0.4,0.6,0.8,0.9,1.1c0.5,0.5,0.8,1.1,1.1,1.8
		c0.1,0.3,0.6,0.6,0.7,1.1c0,0.6-0.2,1.2-0.6,1.7c-0.4,0.2-0.6,0.2-0.7-0.2s-0.1-1.2-0.2-1.8c-0.2-0.6-0.5-1.2-0.9-1.7
		c-0.3-0.4-0.6-0.8-1-1.2C187.8,171.9,187.1,171.2,187.2,171.1z"/>
	<path class="st22" d="M187.4,172.3c-0.2,0.1,0,0.7,0,1s0.7,1.4,0.7,1.7c0,0.6,0,1.2,0.1,1.9c0.1,0.3,0.6,1,0.9,0.9
		c0.3-0.2,0.5-0.5,0.6-0.8c0.1-0.5,0.1-1.1,0-1.6c-0.2-0.4-0.5-0.9-0.8-1.2c-0.2-0.4-0.9-0.9-1-1.2S187.8,172.1,187.4,172.3z"/>
</g>
<g id="Layer_8">
	<polyline class="st23" points="108.3,92.5 205.9,77.8 318.5,92.7 	"/>
	<path class="st24" d="M83.5,157.2c-0.2,0.5-1.6-0.5-1.3-1s5.3-7.6,5.3-7.6l1.4,1C89,149.6,83.8,156.5,83.5,157.2z"/>
	<path class="st25" d="M90.6,152l0.7-1l-0.4-0.3c-0.5-2.3-2.7-3.9-5.1-3.5l-0.4-0.3l-0.7,1.1l0,0c-0.8,1.2-0.1,3,1.5,4.2
		s3.5,1.1,4.3,0l0,0L90.6,152L90.6,152C90.6,152.1,90.6,152,90.6,152z"/>
	
		<ellipse transform="matrix(0.5667 -0.8239 0.8239 0.5667 -84.5435 137.3539)" class="st24" cx="88.3" cy="149.1" rx="2.6" ry="3.6"/>
	<path class="st24" d="M330.9,153.9c0.3,0.4-1.4,1-1.6,0.4s-3-8.8-3-8.8l1.7-0.6C328,145,330.4,153.3,330.9,153.9z"/>
	<path class="st25" d="M330.9,145.1l-0.4-1.2l-0.5,0.2c-2.2-1-4.8-0.1-5.8,2l-0.5,0.2l0.4,1.2v0.1c0.5,1.4,2.4,1.9,4.2,1.3
		s2.9-2.2,2.6-3.5l0,0v-0.1C330.9,145.2,330.9,145.2,330.9,145.1C330.9,145.1,330.9,145.1,330.9,145.1z"/>
	
		<ellipse transform="matrix(0.9452 -0.3264 0.3264 0.9452 -29.4845 114.7136)" class="st24" cx="327.1" cy="145.2" rx="3.6" ry="2.6"/>
	<path class="st24" d="M208.3,79.5c0.4,0.2-0.7,1.6-1.2,1.1s-6.8-6.3-6.8-6.3l1.2-1.3C201.5,73,207.6,79.1,208.3,79.5z"/>
	<path class="st25" d="M204.1,71.7l-0.9-0.9l-0.3,0.4c-2.4,0.1-4.2,2.1-4.2,4.5l-0.4,0.4l0.9,0.9l0,0c1.1,1,3,0.6,4.3-0.9
		s1.6-3.3,0.6-4.3l0,0L204.1,71.7L204.1,71.7C204.1,71.7,204.1,71.7,204.1,71.7z"/>
	
		<ellipse transform="matrix(0.6764 -0.7366 0.7366 0.6764 10.7791 171.7728)" class="st24" cx="200.9" cy="73.6" rx="3.6" ry="2.6"/>
	<path class="st24" d="M212.3,439.6c0.4,0.3-1,1.4-1.4,0.9s-5.4-7.6-5.4-7.6l1.4-1C206.9,431.9,211.7,439.1,212.3,439.6z"/>
	<path class="st25" d="M209.8,431.1l-0.7-1l-0.4,0.3c-2.4-0.3-4.6,1.2-5,3.6l-0.4,0.3l0.7,1l0,0c0.8,1.2,2.8,1.2,4.4,0
		s2.2-2.9,1.5-4.1l0,0L209.8,431.1L209.8,431.1L209.8,431.1z"/>
	
		<ellipse transform="matrix(0.8128 -0.5825 0.5825 0.8128 -213.2336 201.0355)" class="st24" cx="206.2" cy="432.3" rx="3.6" ry="2.6"/>
</g>
<g id="Layer_7">
	<path class="st26" d="M332.6,161.2c-0.1,1.3-1.2,2.3-2.5,2.2c-1.2-0.1-2.1-1-2.2-2.2c0-1.3,2.3-6.3,2.3-6.3
		S332.6,159.9,332.6,161.2z"/>
	<path class="st27" d="M334.1,200c-0.1,2.1-1.9,3.7-3.9,3.6c-1.9-0.1-3.5-1.6-3.6-3.6c0-2.1,3.8-10.2,3.8-10.2
		S334.1,197.9,334.1,200z"/>
	<path class="st27" d="M88,200c0,2.1-1.7,3.8-3.8,3.8s-3.8-1.7-3.8-3.8c0-2.1,3.8-10.2,3.8-10.2S88,197.9,88,200z"/>
</g>
</svg>
